<svg id="Режим_изоляции" data-name="Режим изоляции" xmlns="http://www.w3.org/2000/svg" viewBox="0 0 83.73 56.02">
  <defs>
    <style>
      .cls-1 {
        fill: #b9b9b9;
      }
    </style>
  </defs>
  <title>catalog-1</title>
  <g>
    <path class="cls-1" d="M790,604.89a.66.66,0,0,0,.25.45.66.66,0,0,0,.42.15h.07l5.44-.56a.67.67,0,0,0,.61-.74.66.66,0,0,0-.74-.6l-5.45.56A.67.67,0,0,0,790,604.89Z" transform="translate(-722.97 -579.66)"/>
    <path class="cls-1" d="M787.74,603.09a.67.67,0,0,0,.66.57h.11l5.33-.87a.68.68,0,0,0,.56-.78.67.67,0,0,0-.27-.44.75.75,0,0,0-.5-.12l-5.34.88A.68.68,0,0,0,787.74,603.09Z" transform="translate(-722.97 -579.66)"/>
    <path class="cls-1" d="M784.69,615.89l4.93,1.2.16,0a.74.74,0,0,0,.35-.1.68.68,0,0,0-.19-1.24L785,614.58a.65.65,0,0,0-.51.08.67.67,0,0,0-.31.41A.69.69,0,0,0,784.69,615.89Z" transform="translate(-722.97 -579.66)"/>
    <path class="cls-1" d="M777.52,615.66l9.26,2.6.18,0a.67.67,0,0,0,.18-1.32l-9.26-2.6a.65.65,0,0,0-.51.06.69.69,0,0,0-.32.41A.67.67,0,0,0,777.52,615.66Z" transform="translate(-722.97 -579.66)"/>
    <path class="cls-1" d="M791.36,606.33a.69.69,0,0,0,0,.95.67.67,0,0,0,.46.18h0l5.45-.23a.65.65,0,0,0,.47-.22.65.65,0,0,0,.17-.48.68.68,0,0,0-.7-.65l-5.45.23A.72.72,0,0,0,791.36,606.33Z" transform="translate(-722.97 -579.66)"/>
    <path class="cls-1" d="M793.44,613.8l-5.26-.91a.61.61,0,0,0-.5.11.66.66,0,0,0-.28.43.71.71,0,0,0,.11.51.67.67,0,0,0,.44.27l5.26.92h.11a.67.67,0,0,0,.12-1.34Z" transform="translate(-722.97 -579.66)"/>
    <path class="cls-1" d="M783.84,618.14l-4.36-1.54a.65.65,0,0,0-.51,0,.65.65,0,0,0-.35.38.68.68,0,0,0,.41.86l4.36,1.54a.59.59,0,0,0,.23,0,.65.65,0,0,0,.29-.07.64.64,0,0,0,.34-.38A.67.67,0,0,0,783.84,618.14Z" transform="translate(-722.97 -579.66)"/>
    <path class="cls-1" d="M786.37,607.46a.68.68,0,0,0-.68.68.67.67,0,0,0,.68.67h11.18a.68.68,0,0,0,0-1.35Z" transform="translate(-722.97 -579.66)"/>
    <path class="cls-1" d="M797.29,609.22l-5.45-.26a.67.67,0,0,0-.48.18.65.65,0,0,0-.22.47.65.65,0,0,0,.17.48.63.63,0,0,0,.47.22l5.44.26h0a.71.71,0,0,0,.45-.18.69.69,0,0,0,.22-.47.62.62,0,0,0-.18-.48A.63.63,0,0,0,797.29,609.22Z" transform="translate(-722.97 -579.66)"/>
    <path class="cls-1" d="M795.88,611.67l-5.42-.61a.67.67,0,0,0-.49.14.71.71,0,0,0-.25.46.67.67,0,0,0,.59.74l5.41.61h.08a.67.67,0,0,0,.53-1.09A.71.71,0,0,0,795.88,611.67Z" transform="translate(-722.97 -579.66)"/>
    <path class="cls-1" d="M785,601.84l.15,0,5-1.18a.68.68,0,0,0,.5-.81.67.67,0,0,0-.81-.5l-5,1.18a.67.67,0,0,0,.16,1.33Z" transform="translate(-722.97 -579.66)"/>
    <path class="cls-1" d="M748.24,598.49a.68.68,0,0,0,.33.09.66.66,0,0,0,.59-.34l1-1.74a.7.7,0,0,0,.07-.51.73.73,0,0,0-.32-.41.65.65,0,0,0-.51-.06.66.66,0,0,0-.41.32l-1,1.73A.67.67,0,0,0,748.24,598.49Z" transform="translate(-722.97 -579.66)"/>
    <path class="cls-1" d="M753.32,597.84a.64.64,0,0,0,.41-.14l2.36-1.86a.66.66,0,0,0,.25-.45.67.67,0,0,0-1.09-.61l-2.35,1.86a.67.67,0,0,0-.26.45.67.67,0,0,0,.68.75Z" transform="translate(-722.97 -579.66)"/>
    <path class="cls-1" d="M748.31,620.19a.69.69,0,0,0,.35.38.71.71,0,0,0,.28.06,1,1,0,0,0,.24,0,.68.68,0,0,0,.4-.87l-.64-1.71a.69.69,0,0,0-.87-.4.7.7,0,0,0-.37.35.63.63,0,0,0,0,.52Z" transform="translate(-722.97 -579.66)"/>
    <path class="cls-1" d="M774.4,619l4.1,1.73a.58.58,0,0,0,.26,0,.56.56,0,0,0,.25,0,.63.63,0,0,0,.37-.36.67.67,0,0,0,0-.52.64.64,0,0,0-.36-.36l-4.09-1.73a.68.68,0,0,0-.89.35A.69.69,0,0,0,774.4,619Z" transform="translate(-722.97 -579.66)"/>
    <path class="cls-1" d="M743,598.54l-.5,2.61a.67.67,0,0,0,.53.79h.13a.67.67,0,0,0,.66-.54l.4-2a.72.72,0,0,0,.11.15.67.67,0,0,0,1.16-.45l0-1.54a.69.69,0,0,0-.66-.69h0a.66.66,0,0,0-.47.19.63.63,0,0,0-.2.47l0,.72a.61.61,0,0,0-.37-.2A.68.68,0,0,0,743,598.54Z" transform="translate(-722.97 -579.66)"/>
    <path class="cls-1" d="M804.65,602.49c-1.93-2.58-5.1-4.89-9.42-6.86a61.92,61.92,0,0,0-14.66-4.3,21.07,21.07,0,0,1-.79-4.14c-.06-.91-.1-1.76-.1-2.51a8.77,8.77,0,0,1,.45-3.52.54.54,0,0,1,.06-.11l.12-.09.1,0,0,0,0,0a.66.66,0,0,0,.25-.75.68.68,0,0,0-.47-.45l-.15,0h-.2v0l-.07,0v0l0,0a1.05,1.05,0,0,0-.26.13,1.19,1.19,0,0,0-.23.22l-14,10.07a.65.65,0,0,0-.39-.12c-11.09,0-21.53,1.84-29.39,5.17a28.47,28.47,0,0,0-9,5.71,10.32,10.32,0,0,0-3.43,7.29v9.32a10.32,10.32,0,0,0,3.43,7.29c3.2,3.2,8.46,5.92,15.22,7.87a85.65,85.65,0,0,0,23.21,3c11.09,0,21.53-1.84,29.39-5.18a28.4,28.4,0,0,0,9-5.7,10.36,10.36,0,0,0,3.43-7.29v-9.32A9.45,9.45,0,0,0,804.65,602.49Zm-26.22-15.21a23.47,23.47,0,0,0,.94,4.77l0,.11c.41,1.43.9,2.89,1.39,4.34l.09.25c.37,1.12.72,2.16,1,3.14a1.11,1.11,0,0,0,0,.17.51.51,0,0,0,.09.18,17.9,17.9,0,0,1,1,4.91,4.37,4.37,0,0,1-.15,1.22,2.47,2.47,0,0,1-.41.69l-.17.22H743.68l34.79-25a18.14,18.14,0,0,0-.14,2.4C778.33,585.46,778.37,586.34,778.43,587.28ZM741.19,607.4a.68.68,0,0,0,.4,1.23h41a.72.72,0,0,0,.5-.22l.44-.53a3.91,3.91,0,0,0,.63-1.14,5.53,5.53,0,0,0,.2-1.59,17.91,17.91,0,0,0-.88-4.82l3.6-1a.66.66,0,0,0,.41-.32.65.65,0,0,0,.06-.51.66.66,0,0,0-.32-.41.65.65,0,0,0-.51-.06l-3.63,1c0-.13-.09-.27-.13-.4l1.13-.39a.68.68,0,0,0-.44-1.28l-1.12.38c-.09-.27-.18-.55-.28-.84l-.06-.19c-.11-.31-.21-.62-.32-.94a39.43,39.43,0,0,1,13.25,5.35,14.06,14.06,0,0,1,3.72,3.58,6.84,6.84,0,0,1,1.27,3.83,7.84,7.84,0,0,1-2.63,5.46c-2.6,2.61-7.12,4.93-12.73,6.54a73.26,73.26,0,0,1-19.88,2.59h0c-9.49,0-18.4-1.57-25.11-4.43a23.59,23.59,0,0,1-7.49-4.7,7.8,7.8,0,0,1-2.63-5.46,7.63,7.63,0,0,1,2.39-5.22c2.39-2.53,6.42-4.74,11.66-6.4a68.2,68.2,0,0,1,16.67-2.85Zm21.07-15.13-.21,0c-9.08.3-17.52,2-23.78,4.89A23.35,23.35,0,0,0,731,602a8.94,8.94,0,0,0-2.76,6.15,9.05,9.05,0,0,0,3,6.41c2.81,2.81,7.41,5.19,13.32,6.89a74.36,74.36,0,0,0,20.25,2.64c9.67,0,18.78-1.61,25.66-4.53a25,25,0,0,0,7.92-5,9.09,9.09,0,0,0,3-6.41,8.06,8.06,0,0,0-1.5-4.58,18.47,18.47,0,0,0-6.91-5.64A46.46,46.46,0,0,0,781.84,594a.73.73,0,0,0-.44,0c-.14-.42-.28-.85-.41-1.28,7,1.29,13,3.37,17.39,6.05a18.43,18.43,0,0,1,5.18,4.47,8.14,8.14,0,0,1,1.79,4.9,9,9,0,0,1-3,6.33c-3,3-8.18,5.68-14.63,7.53a84.52,84.52,0,0,1-22.85,3h0c-10.91,0-21.16-1.8-28.85-5.07a27.2,27.2,0,0,1-8.61-5.42,8.12,8.12,0,0,1,0-12.67c3-3,8.18-5.67,14.63-7.52a83.23,83.23,0,0,1,21.51-3Zm-35.86,23.2c3.2,3.21,8.46,5.93,15.22,7.87a85.25,85.25,0,0,0,23.21,3c11.09,0,21.53-1.84,29.39-5.18a28.24,28.24,0,0,0,9-5.71,14,14,0,0,0,2.08-2.62,9.12,9.12,0,0,1-3,6.19c-3,3-8.18,5.68-14.63,7.53a84.5,84.5,0,0,1-22.84,3h0c-10.91,0-21.15-1.8-28.85-5.07a27.2,27.2,0,0,1-8.61-5.42,9.08,9.08,0,0,1-3-6.2A13.33,13.33,0,0,0,726.4,615.47Zm-2.08,1.89A13.67,13.67,0,0,0,726.4,620c3.2,3.2,8.46,5.92,15.22,7.87a85.65,85.65,0,0,0,23.21,3c11.09,0,21.53-1.84,29.39-5.18a28.4,28.4,0,0,0,9-5.7,14.35,14.35,0,0,0,2.08-2.63v.14a9,9,0,0,1-3,6.33c-3,3-8.18,5.68-14.63,7.53a84.5,84.5,0,0,1-22.84,3h0c-10.91,0-21.15-1.8-28.85-5.07a27.2,27.2,0,0,1-8.61-5.42,9,9,0,0,1-3-6.33Z" transform="translate(-722.97 -579.66)"/>
    <path class="cls-1" d="M743.24,618.12a.66.66,0,0,0,.49.16.62.62,0,0,0,.42-.2l0,.53a.69.69,0,0,0,.61.73h.07a.62.62,0,0,0,.43-.16.65.65,0,0,0,.24-.45l.14-1.52a.7.7,0,0,0-.62-.74.69.69,0,0,0-.68.41l-.15-1.93a.69.69,0,0,0-.24-.46.76.76,0,0,0-.49-.16.69.69,0,0,0-.46.24.68.68,0,0,0-.16.49l.21,2.6A.65.65,0,0,0,743.24,618.12Z" transform="translate(-722.97 -579.66)"/>
    <path class="cls-1" d="M765.34,620.13l3.92,1.92a.66.66,0,0,0,.3.07.67.67,0,0,0,.3-1.28l-3.93-1.92a.67.67,0,1,0-.59,1.21Z" transform="translate(-722.97 -579.66)"/>
    <path class="cls-1" d="M754.38,621.35a.65.65,0,0,0,.46.19.67.67,0,0,0,.47-1.16l-1.92-1.84a.66.66,0,0,0-.95,0,.66.66,0,0,0-.19.48.64.64,0,0,0,.21.47Z" transform="translate(-722.97 -579.66)"/>
    <path class="cls-1" d="M770,619.72l4,1.86a.67.67,0,0,0,.28.06.59.59,0,0,0,.23,0,.66.66,0,0,0,.38-.35.63.63,0,0,0,0-.52.65.65,0,0,0-.35-.38l-4-1.85a.66.66,0,0,0-.89.33.63.63,0,0,0,0,.52A.64.64,0,0,0,770,619.72Z" transform="translate(-722.97 -579.66)"/>
    <path class="cls-1" d="M758.13,620.08l3.16,1.92a.64.64,0,0,0,.35.1l.16,0a.66.66,0,0,0,.42-.31.69.69,0,0,0,.08-.51.67.67,0,0,0-.31-.41l-3.16-1.92a.65.65,0,0,0-.51-.08.71.71,0,0,0-.42.3.7.7,0,0,0,.23.93Z" transform="translate(-722.97 -579.66)"/>
    <path class="cls-1" d="M759.11,618.44l6.55,3.68a.8.8,0,0,0,.33.08l.19,0a.71.71,0,0,0,.4-.32.67.67,0,0,0-.26-.92l-6.55-3.68a.69.69,0,0,0-.92.26.77.77,0,0,0-.06.52A.71.71,0,0,0,759.11,618.44Z" transform="translate(-722.97 -579.66)"/>
  </g>
</svg>
