<svg id="Режим_изоляции" data-name="Режим изоляции" xmlns="http://www.w3.org/2000/svg" viewBox="0 0 45.46 114">
  <defs>
    <style>
      .cls-1 {
        fill: #b9b9b9;
      }
    </style>
  </defs>
  <title>catalog-6</title>
  <g>
    <path class="cls-1" d="M922.38,734.14a1.62,1.62,0,0,0-.24,3.22l.5,0v0a1.62,1.62,0,0,0-.26-3.22Zm0,1.5a.12.12,0,1,1,0,.24.13.13,0,0,1-.12-.12A.11.11,0,0,1,922.39,735.64Z" transform="translate(-896.77 -709.5)"/>
    <path class="cls-1" d="M916.31,749.5l-1.73-1.73h0l0,0-.14-.15,0,0a1.61,1.61,0,0,0-1-.31h0a1.61,1.61,0,0,0-1.13.47l-1.74,1.74a.73.73,0,0,0-.22.52.79.79,0,0,0,.22.54.75.75,0,0,0,1.06,0l1.73-1.73a.12.12,0,0,1,.17,0l1.74,1.74a.75.75,0,0,0,1.06,0,.77.77,0,0,0,.22-.53A.75.75,0,0,0,916.31,749.5Z" transform="translate(-896.77 -709.5)"/>
    <path class="cls-1" d="M936.14,801.7a.8.8,0,0,0,.21-.53V769a.76.76,0,0,0-.5-.71v0H903.4a.73.73,0,0,0-.75.75v32.21a.77.77,0,0,0,.22.53.75.75,0,0,0,.53.22h32.2A.79.79,0,0,0,936.14,801.7Zm-32-1.28V769.71h30.7v30.71Z" transform="translate(-896.77 -709.5)"/>
    <path class="cls-1" d="M912,813a.76.76,0,0,0-.75.75v9a.75.75,0,0,0,1.5,0v-9A.76.76,0,0,0,912,813Z" transform="translate(-896.77 -709.5)"/>
    <path class="cls-1" d="M916.89,734.16l-.22,0h-.27v0a1.63,1.63,0,1,0,.49,0Zm-.24,1.72a.13.13,0,0,1-.12-.12.11.11,0,0,1,.12-.12.12.12,0,0,1,.12.12A.12.12,0,0,1,916.65,735.88Z" transform="translate(-896.77 -709.5)"/>
    <path class="cls-1" d="M919,815a.76.76,0,0,0-.75.75v7a.75.75,0,0,0,1.5,0v-7A.76.76,0,0,0,919,815Z" transform="translate(-896.77 -709.5)"/>
    <path class="cls-1" d="M920.64,751.23a1.61,1.61,0,0,0-1.14-.47h0a1.61,1.61,0,0,0-1.14.47L916.62,753a.77.77,0,0,0-.22.53.75.75,0,0,0,.22.53.71.71,0,0,0,.53.22h0a.71.71,0,0,0,.53-.22l1.74-1.73a.1.1,0,0,1,.16,0l1.74,1.73a.75.75,0,0,0,1.28-.53.77.77,0,0,0-.22-.53Z" transform="translate(-896.77 -709.5)"/>
    <path class="cls-1" d="M941.48,758.82a.76.76,0,0,0-.75.75v3.06h-2.17v-5.38a.75.75,0,0,0,0-1v-5.94a.75.75,0,0,0-1.5,0v4.94L927.84,744v-5.2a.59.59,0,0,0-.06-.32l-7.53-17.85V710.25a.75.75,0,0,0-1.5,0v10.37l-7.09,17.82a.82.82,0,0,0-.07.31V744l-9.65,11.3v-5a.75.75,0,0,0-1.5,0v5.94a.75.75,0,0,0,0,1v5.38h-2.17v-3.06a.75.75,0,0,0-1.5,0v47.11a.75.75,0,0,0,.67.74.77.77,0,0,0,.44.14h3.39a1.23,1.23,0,0,0,0,.19v15a.75.75,0,0,0,1.5,0v-15a1.23,1.23,0,0,0,0-.19h3.54a1.23,1.23,0,0,0,0,.19v15a.75.75,0,0,0,1.5,0v-15a1.23,1.23,0,0,0,0-.19h23.54a1.23,1.23,0,0,0,0,.19v15a.75.75,0,0,0,1.5,0v-15a1.23,1.23,0,0,0,0-.19h3.54a1.23,1.23,0,0,0,0,.19v15a.75.75,0,0,0,1.5,0v-15a1.23,1.23,0,0,0,0-.19h3.4a.76.76,0,0,0,.43-.14.75.75,0,0,0,.67-.74V759.57A.76.76,0,0,0,941.48,758.82Zm-22-36.08L926,738H913.45Zm-6.43,20.76v-4h13.25v4Zm-.4,1.5h14l9,11H903.28ZM932,804a.76.76,0,0,0-.75.75v1.31h-3.5v-1.31a.75.75,0,0,0-1.5,0v1.31h-3.5v-1.31a.75.75,0,0,0-1.5,0v1.31h-3.5v-1.31a.75.75,0,0,0-1.5,0v1.31h-3.5v-1.31a.75.75,0,0,0-1.5,0v1.31h-3.5v-1.31a.75.75,0,0,0-1.5,0v1.31h-7.62V764.13h41.75v41.93h-7.63v-1.31A.76.76,0,0,0,932,804Zm5.06-41.37h-4.31v-3.38a.75.75,0,0,0-1.5,0v3.38h-3.5v-3.38a.75.75,0,0,0-1.5,0v3.38h-3.5v-3.38a.75.75,0,0,0-1.5,0v3.38h-3.5v-3.38a.75.75,0,0,0-1.5,0v3.38h-3.5v-3.38a.75.75,0,0,0-1.5,0v3.38h-3.5v-3.38a.75.75,0,0,0-1.5,0v3.38h-4.31V757.5h35.12Z" transform="translate(-896.77 -709.5)"/>
    <path class="cls-1" d="M927,813a.76.76,0,0,0-.75.75v9a.75.75,0,0,0,1.5,0v-9A.76.76,0,0,0,927,813Z" transform="translate(-896.77 -709.5)"/>
    <path class="cls-1" d="M911.58,778.11l0,.09a2.57,2.57,0,0,0,.19.28l.05,0c.2.23.56.59,1.13,1.12.37.36.71.66.76.71a.78.78,0,0,0,.51.2.76.76,0,0,0,.55-.25.77.77,0,0,0,.2-.54.76.76,0,0,0-.25-.52l-.17.19h0l.17-.19-1-.9-.64-.63-.17-.19,0,0-.06-.18,0,0,0-.07,0,0a.75.75,0,0,0-.49-.19h0a.76.76,0,0,0-.52.21.75.75,0,0,0-.23.56.34.34,0,0,0,0,.1l-.3.14Z" transform="translate(-896.77 -709.5)"/>
    <path class="cls-1" d="M923.63,788l-2.75-2.75a1.55,1.55,0,0,0,0-.31,1.51,1.51,0,0,0-3-.25l0,.5h0a1.54,1.54,0,0,0,.41.8l-1.77,5.56a.76.76,0,0,0,.48.94.66.66,0,0,0,.23,0,.73.73,0,0,0,.35-.09A.75.75,0,0,0,918,792l1.79-5.61.11,0,2.69,2.69a.77.77,0,0,0,1.06,0A.75.75,0,0,0,923.63,788Z" transform="translate(-896.77 -709.5)"/>
    <path class="cls-1" d="M919.4,791.5a.75.75,0,0,0-.75.75V795a.75.75,0,0,0,1.5,0v-2.76A.74.74,0,0,0,919.4,791.5Z" transform="translate(-896.77 -709.5)"/>
    <path class="cls-1" d="M913.72,789.58l-2,1.95a.75.75,0,0,0,0,1.06.75.75,0,0,0,1.06,0l2-2a.75.75,0,0,0-1.06-1.06Z" transform="translate(-896.77 -709.5)"/>
    <path class="cls-1" d="M925.09,789.58a.75.75,0,0,0-.53-.22h0a.73.73,0,0,0-.52.22.74.74,0,0,0,0,1.06l2,2a.71.71,0,0,0,.53.22.75.75,0,0,0,.52-1.28Z" transform="translate(-896.77 -709.5)"/>
    <path class="cls-1" d="M926,785a.75.75,0,0,0,.75.75h2.76a.75.75,0,0,0,0-1.5H926.7A.74.74,0,0,0,926,785Z" transform="translate(-896.77 -709.5)"/>
    <path class="cls-1" d="M912.86,785a.75.75,0,0,0-.75-.75h-2.76a.75.75,0,1,0,0,1.5h2.76A.76.76,0,0,0,912.86,785Z" transform="translate(-896.77 -709.5)"/>
    <path class="cls-1" d="M924.46,780.69h0a.75.75,0,0,0,.53-.22l2.06-2.09a.75.75,0,0,0,.22-.53.8.8,0,0,0-.23-.53.75.75,0,0,0-1.06,0l-2.06,2.09a.75.75,0,0,0,0,1.06A.74.74,0,0,0,924.46,780.69Z" transform="translate(-896.77 -709.5)"/>
    <path class="cls-1" d="M919.4,778.42a.75.75,0,0,0,.75-.75v-2.76a.75.75,0,0,0-1.5,0v2.76A.76.76,0,0,0,919.4,778.42Z" transform="translate(-896.77 -709.5)"/>
    <path class="cls-1" d="M928.45,749.5l-1.91-1.92v0a1.63,1.63,0,0,0-.95-.31h0a1.61,1.61,0,0,0-1.14.47l-1.74,1.73a.76.76,0,0,0,0,1.07.75.75,0,0,0,1.06,0l1.74-1.74a.11.11,0,0,1,.16,0l1.74,1.74a.75.75,0,1,0,1.06-1.06Z" transform="translate(-896.77 -709.5)"/>
    <path class="cls-1" d="M919.57,771a14.19,14.19,0,1,0,14.18,14.44v-.5h0A14.21,14.21,0,0,0,919.57,771Zm9,23.16a12.67,12.67,0,1,1,3.72-9A12.59,12.59,0,0,1,928.53,794.11Z" transform="translate(-896.77 -709.5)"/>
  </g>
</svg>
