<svg id="Icons" xmlns="http://www.w3.org/2000/svg" viewBox="0 0 147.85 86.73">
  <defs>
    <style>
      .cls-1 {
        fill: #b9b9b9;
      }
    </style>
  </defs>
  <title>catalog-2</title>
  <g>
    <path class="cls-1" d="M-183.74,74.69a.81.81,0,0,0-.57-.23.8.8,0,0,0-.56.24.79.79,0,0,0-.23.57.76.76,0,0,0,.24.56l4.27,4.21a.82.82,0,0,0,.56.23.78.78,0,0,0,.57-.24.79.79,0,0,0,.23-.57.8.8,0,0,0-.24-.56Z" transform="translate(240.47 -38.86)"/>
    <path class="cls-1" d="M-183.88,89.8a.79.79,0,0,0-.79-.79h-5.65a.79.79,0,0,0-.8.79.8.8,0,0,0,.8.8h5.65A.79.79,0,0,0-183.88,89.8Z" transform="translate(240.47 -38.86)"/>
    <path class="cls-1" d="M-169.77,75.69a.79.79,0,0,0,.79-.8V69.24a.79.79,0,0,0-.79-.8.8.8,0,0,0-.8.8v5.65A.8.8,0,0,0-169.77,75.69Z" transform="translate(240.47 -38.86)"/>
    <path class="cls-1" d="M-159.79,79.83a.8.8,0,0,0,.56.23.8.8,0,0,0,.56-.23l4-4a.8.8,0,0,0,0-1.13.79.79,0,0,0-.56-.23h0a.8.8,0,0,0-.57.24l-4,4a.8.8,0,0,0,0,1.13Zm.26-.27Z" transform="translate(240.47 -38.86)"/>
    <path class="cls-1" d="M-158.67,99.78a.8.8,0,0,0-1.13,0,.8.8,0,0,0,0,1.13l4,4a.78.78,0,0,0,.57.23.76.76,0,0,0,.56-.23.8.8,0,0,0,0-1.13Z" transform="translate(240.47 -38.86)"/>
    <path class="cls-1" d="M-169.33,56A33.42,33.42,0,0,0-202.72,89.4a33.41,33.41,0,0,0,20.91,30.94l-.08,0a.88.88,0,0,0-.87.88v2.43a1.46,1.46,0,0,1-.4.14,5.49,5.49,0,0,1-.71.08l-.21,0a.49.49,0,0,1,0-.14l-.64-3.77a.87.87,0,0,0-.36-.57.84.84,0,0,0-.65-.15.9.9,0,0,0-.57.36.88.88,0,0,0-.15.65l.63,3.61a2.33,2.33,0,0,0,.14.75,1.61,1.61,0,0,0,.88.86,2.77,2.77,0,0,0,.95.17,5.13,5.13,0,0,0,1.5-.24,2.47,2.47,0,0,0,.85-.49,1.59,1.59,0,0,0,.5-1.14V121.2a.86.86,0,0,0-.36-.68,33.45,33.45,0,0,0,12,2.25,33.28,33.28,0,0,0,11.2-1.94.84.84,0,0,0-.15.46v2.34a1.66,1.66,0,0,0,.36,1.06,2.15,2.15,0,0,0,1.13.69,4.06,4.06,0,0,0,1,.13,2.21,2.21,0,0,0,1.29-.36,1.58,1.58,0,0,0,.52-.67,1.77,1.77,0,0,0,.15-.73l.47-3.48a.86.86,0,0,0-.75-1,.88.88,0,0,0-1,.75l-.47,3.48v.12a.28.28,0,0,1,0,.1l-.22,0a2.14,2.14,0,0,1-.69-.12l-.06,0v-2.32a.87.87,0,0,0-.63-.83A33.41,33.41,0,0,0-135.94,89.4,33.42,33.42,0,0,0-169.33,56Zm31.64,33.36A31.38,31.38,0,0,1-147,111.75,31.46,31.46,0,0,1-169.33,121a31.5,31.5,0,0,1-22.37-9.27A31.41,31.41,0,0,1-201,89.4a31.39,31.39,0,0,1,9.27-22.34,31.46,31.46,0,0,1,22.37-9.27A31.42,31.42,0,0,1-147,67.06,31.36,31.36,0,0,1-137.69,89.4Z" transform="translate(240.47 -38.86)"/>
    <path class="cls-1" d="M-169.33,60.87a28.63,28.63,0,0,0-28.6,28.57A28.62,28.62,0,0,0-169.33,118a28.6,28.6,0,0,0,28.59-28.57A28.61,28.61,0,0,0-169.33,60.87Zm26.84,28.57a26.62,26.62,0,0,1-7.87,19,26.67,26.67,0,0,1-19,7.86,26.66,26.66,0,0,1-19-7.86,26.63,26.63,0,0,1-7.88-19,26.61,26.61,0,0,1,7.88-19,26.63,26.63,0,0,1,19-7.87,26.63,26.63,0,0,1,19,7.87A26.6,26.6,0,0,1-142.49,89.44Z" transform="translate(240.47 -38.86)"/>
    <path class="cls-1" d="M-155.67,89.8a.8.8,0,0,0,.8.8h5.65a.79.79,0,0,0,.79-.8.79.79,0,0,0-.79-.79h-5.65A.79.79,0,0,0-155.67,89.8Z" transform="translate(240.47 -38.86)"/>
    <path class="cls-1" d="M-179.77,99.76a.8.8,0,0,0-1.13,0l0,0-.54.58c-.52.56-1.3,1.4-2,2.1l-.88.87a2,2,0,0,1-.25.2.79.79,0,0,0-.29.18.79.79,0,0,0-.23.57.79.79,0,0,0,.23.56.83.83,0,0,0,.57.24h0a.8.8,0,0,0,.37-.09,2.28,2.28,0,0,0,.51-.36c.44-.38,1.17-1.12,2.24-2.26.74-.78,1.36-1.47,1.44-1.55a.8.8,0,0,0-.05-1.13Zm-.25.28Z" transform="translate(240.47 -38.86)"/>
    <path class="cls-1" d="M-169.77,103.92a.8.8,0,0,0-.8.8v5.65a.8.8,0,0,0,.8.8.79.79,0,0,0,.79-.8v-5.65A.79.79,0,0,0-169.77,103.92Z" transform="translate(240.47 -38.86)"/>
    <path class="cls-1" d="M-155.79,95a.81.81,0,0,0,.37-.09.77.77,0,0,0,.39-.46.76.76,0,0,0-.05-.61.81.81,0,0,0-.47-.4l-11.71-3.74-.21-.37a2.57,2.57,0,0,0-.25-.65l.07-.06,5.79-5.78a.8.8,0,0,0,0-1.13.8.8,0,0,0-1.13,0l-5.78,5.78a1,1,0,0,0-.13.16,2.15,2.15,0,0,0-.87-.18,2.35,2.35,0,0,0-2.35,2.35,2.36,2.36,0,0,0,2.35,2.36,2.35,2.35,0,0,0,1.91-1L-156,94.94A.67.67,0,0,0-155.79,95ZM-169,89.8a.76.76,0,0,1-.75.76.76.76,0,0,1-.76-.76.76.76,0,0,1,.76-.75A.76.76,0,0,1-169,89.8Zm1.75-.13-.16,0a.2.2,0,0,0,0-.07Z" transform="translate(240.47 -38.86)"/>
    <path class="cls-1" d="M-233,54.6a.5.5,0,0,0-.42-.22h-3.26a.49.49,0,0,0-.41.22l-3.26,4.89a.51.51,0,0,0-.07.4l1.63,6.52a.51.51,0,0,0,.48.38h2.77V97.26h1V66.79h2.75a.51.51,0,0,0,.49-.38l1.63-6.52a.51.51,0,0,0-.07-.4Zm-3.41.78h2.73l2.66,4h-8.05Zm4.23,10.41h-5.73l-1.36-5.42h8.45Z" transform="translate(240.47 -38.86)"/>
    <path class="cls-1" d="M-208.14,65.44a14.05,14.05,0,0,0-3.13-8.2,10.15,10.15,0,0,0,1.5-4.84c0-2.54-1.54-4.95-3.28-5.33-.12-1.77-1-8.21-7-8.21-2.17,0-5.39,2.26-5.39,7.09a4.2,4.2,0,0,0,1.11,3c-1.56.57-4.37,2.23-4.37,6.74a7.94,7.94,0,0,0,3.06,6.72,9.69,9.69,0,0,0-1.15,7.45c.93,3.7,3.66,5.7,7.87,5.86V86.64h1V75.7A10.15,10.15,0,0,0-208.14,65.44Zm-17.68,4.16a8.78,8.78,0,0,1,1.27-7,.48.48,0,0,0,.1-.41.5.5,0,0,0-.26-.34s-3-1.61-3-6.14c0-5.32,4.34-6,4.53-6a.51.51,0,0,0,.42-.42.5.5,0,0,0-.27-.52A3,3,0,0,1-224.44,46c0-4,2.55-6.09,4.39-6.09,5.94,0,6,7.34,6,7.66a.49.49,0,0,0,.5.49c1.24,0,2.76,2,2.76,4.39A9.58,9.58,0,0,1-212.31,57a.5.5,0,0,0,.06.64,12.92,12.92,0,0,1,3.11,7.79,9.16,9.16,0,0,1-8.78,9.26V57.29h-1V74.7C-222.67,74.55-225,72.85-225.82,69.6Z" transform="translate(240.47 -38.86)"/>
    <path class="cls-1" d="M-206.78,78.8a7.21,7.21,0,0,1-3,.79V76.85h-1v2.73a7.14,7.14,0,0,1-3.64-1.17l-.56.83a8.13,8.13,0,0,0,4.2,1.34V85h1V80.59a8.4,8.4,0,0,0,3.45-.9Z" transform="translate(240.47 -38.86)"/>
    <path class="cls-1" d="M-206.5,56.59l-.83.56a31.26,31.26,0,0,1,4.49,11.63l1-.15A32.46,32.46,0,0,0-206.5,56.59Z" transform="translate(240.47 -38.86)"/>
    <path class="cls-1" d="M-111.88,69.84A9.7,9.7,0,0,0-113,62.39,8,8,0,0,0-110,55.67c0-4.51-2.82-6.17-4.38-6.74a4.15,4.15,0,0,0,1.12-3c0-4.83-3.22-7.09-5.39-7.09-6,0-6.88,6.44-7,8.21-1.75.38-3.28,2.79-3.28,5.33a10.15,10.15,0,0,0,1.5,4.84,14,14,0,0,0-3.13,8.2,10.15,10.15,0,0,0,9.78,10.26V86.64h1V75.7C-115.53,75.54-112.8,73.54-111.88,69.84Zm-17.64-4.4a12.92,12.92,0,0,1,3.11-7.79.5.5,0,0,0,.06-.64,9.42,9.42,0,0,1-1.54-4.61c0-2.36,1.51-4.39,2.76-4.39a.5.5,0,0,0,.5-.49c0-.32.08-7.66,6-7.66,1.84,0,4.39,2.12,4.39,6.09a3,3,0,0,1-1.42,2.74.49.49,0,0,0-.27.53.49.49,0,0,0,.42.42c.19,0,4.53.68,4.53,6,0,4.5-2.87,6.08-3,6.14a.47.47,0,0,0-.26.34.51.51,0,0,0,.09.41,8.67,8.67,0,0,1,1.27,7c-.81,3.25-3.14,5-6.89,5.1V57.29h-1V74.7A9.16,9.16,0,0,1-129.52,65.44Z" transform="translate(240.47 -38.86)"/>
    <path class="cls-1" d="M-124.26,78.41a7.08,7.08,0,0,1-3.63,1.17V76.85h-1v2.74a7.21,7.21,0,0,1-3-.79l-.46.89a8.36,8.36,0,0,0,3.45.9V85h1V80.58a8.16,8.16,0,0,0,4.2-1.34Z" transform="translate(240.47 -38.86)"/>
    <path class="cls-1" d="M-132.16,56.59a32.32,32.32,0,0,0-4.65,12l1,.15a31.41,31.41,0,0,1,4.48-11.63Z" transform="translate(240.47 -38.86)"/>
    <path class="cls-1" d="M-93.63,80.25V84h-15.91V80.25h-1V92.44h-5.84a.5.5,0,0,0-.5.5v6.34h1V93.44h13.8v5.84h1V93.44h7.45v5.84h1v-19Zm-15.91,12.19V85h15.91v7.46Z" transform="translate(240.47 -38.86)"/>
  </g>
</svg>
