<svg id="Режим_изоляции" data-name="Режим изоляции" xmlns="http://www.w3.org/2000/svg" viewBox="0 0 87.35 113.3">
  <defs>
    <style>
      .cls-1 {
        fill: #b9b9b9;
      }
    </style>
  </defs>
  <title>catalog-5</title>
  <g>
    <path class="cls-1" d="M919.47,935.79a1,1,0,0,0-1,1v5a.95.95,0,0,0,1.9,0v-5A1,1,0,0,0,919.47,935.79Z" transform="translate(-875.7 -864.17)"/>
    <path class="cls-1" d="M919.47,925.88a2.3,2.3,0,0,0,1.78-.84l10.29,3.29a1,1,0,0,0,.73-.06,1,1,0,0,0,.41-1.28,1,1,0,0,0-.56-.47l-10.35-3.31a2.54,2.54,0,0,0-.19-.61l5.06-5.05a1,1,0,0,0-1.35-1.34l-5.11,5.11,0,0a2.37,2.37,0,0,0-.69-.11,2.33,2.33,0,0,0,0,4.65Zm0-2.75a.43.43,0,1,1-.42.42A.42.42,0,0,1,919.47,923.13Z" transform="translate(-875.7 -864.17)"/>
    <path class="cls-1" d="M909.74,915.09h0a1,1,0,0,0,.67.27.88.88,0,0,0,.67-.29.9.9,0,0,0,.27-.67,1,1,0,0,0-.28-.67L907.29,910a1,1,0,0,0-1.34,0,.9.9,0,0,0-.27.67.91.91,0,0,0,.28.67Z" transform="translate(-875.7 -864.17)"/>
    <path class="cls-1" d="M928.79,915.19a1,1,0,0,0,.67-.28l3.53-3.54a1,1,0,0,0,0-1.35,1,1,0,0,0-1.34,0l-3.52,3.54a1,1,0,0,0,.67,1.62Z" transform="translate(-875.7 -864.17)"/>
    <path class="cls-1" d="M919.47,911.32a1,1,0,0,0,.95-1v-5a.95.95,0,0,0-1.9,0v5A1,1,0,0,0,919.47,911.32Z" transform="translate(-875.7 -864.17)"/>
    <path class="cls-1" d="M910.12,931.92h0a1.06,1.06,0,0,0-.52.19h0l-.09.11,0,0-.16.19c-.28.3-.87.94-1.47,1.57l-1.16,1.19-.38.34,0,0a.69.69,0,0,0-.3.2.9.9,0,0,0-.29.67,1,1,0,0,0,.28.67,1,1,0,0,0,.7.28.94.94,0,0,0,.43-.1,1.77,1.77,0,0,0,.44-.3l.06-.05c.4-.35,1.06-1,2-2,.57-.6,1-1.13,1.22-1.31l.06-.07a1,1,0,0,0-.07-1.34A1,1,0,0,0,910.12,931.92Z" transform="translate(-875.7 -864.17)"/>
    <path class="cls-1" d="M901.3,924.5h5a1,1,0,0,0,0-1.9h-5a1,1,0,0,0,0,1.9Z" transform="translate(-875.7 -864.17)"/>
    <path class="cls-1" d="M931.69,923.55a1,1,0,0,0,.95,1h5a1,1,0,0,0,0-1.9h-5A1,1,0,0,0,931.69,923.55Z" transform="translate(-875.7 -864.17)"/>
    <path class="cls-1" d="M961.38,921h-1a4.14,4.14,0,0,0-1.05-1.29,4.2,4.2,0,0,0-3.5-.81l-7.31,1.63-.32,0a.47.47,0,0,1-.4-.22,28.31,28.31,0,0,0-6.35-15.53,1,1,0,0,0,.19-.56v-.09l6.38-4.09a4.13,4.13,0,0,0,1.69-4.85l.71-.71a1.65,1.65,0,0,0,0-2.35l-.3-.31a1.73,1.73,0,0,0-2.35,0l-.76.75a4.12,4.12,0,0,0-1.12-.17h-.1a4.17,4.17,0,0,0-2.22.65,4.12,4.12,0,0,0-1.28,1.28l-1.43,2.24H930.41a28,28,0,0,0-5.61-1.69V893a14.92,14.92,0,1,0-10.86-.17v2a28,28,0,0,0-5.61,1.69H897.92l-1.43-2.24a4.13,4.13,0,0,0-4.74-1.73l-.76-.76a1.73,1.73,0,0,0-2.35,0l-.3.31a1.68,1.68,0,0,0-.49,1.17,1.66,1.66,0,0,0,.21.81l0,0,1.06,1.06a4,4,0,0,0-.23,1.33,4.19,4.19,0,0,0,.65,2.22,4.12,4.12,0,0,0,1.28,1.28l6,3.8v.38a1,1,0,0,0,.28.67.52.52,0,0,0,.11.1A28.25,28.25,0,0,0,891,920.37a.48.48,0,0,1-.37.17h-.08L883,918.89a3.94,3.94,0,0,0-.9-.1,4.16,4.16,0,0,0-3.65,2.2h-1a1.67,1.67,0,0,0-1.66,1.66v.43a1.68,1.68,0,0,0,1.66,1.67h1a4.14,4.14,0,0,0,2.82,2.23,4.2,4.2,0,0,0,1.8,0l7.32-1.63.31,0a.48.48,0,0,1,.38.2,28.39,28.39,0,0,0,6.49,15.6.5.5,0,0,1,0,.12.46.46,0,0,1-.14.34l-.22.2-5.46,3.48-.42-.61,4.52-2.61a1,1,0,0,0-.18-1.73l-.13,0a37.37,37.37,0,0,1-7.21-3.46c-3-1.83-6.82-4.89-8.49-9.08a.93.93,0,0,0-1-.59.92.92,0,0,0-.85.71,30.89,30.89,0,0,0-.83,7.51,68.22,68.22,0,0,0,2,15.13,1,1,0,0,0,.65.67,1,1,0,0,0,.93-.23c.15-.13,1.05-1,2-1.82l1.43-1.23a29.64,29.64,0,0,0,4.2,7.88,27.37,27.37,0,0,0,4.9,5.25,46,46,0,0,0,5.82,3.54c1.14.61,2.25,1.16,3.2,1.61a16.92,16.92,0,0,0,2.31.93c.38.11,1.47.47,2.91,1a41.38,41.38,0,0,1,7.23,3.72,13.94,13.94,0,0,1,2.85,2.42,4.37,4.37,0,0,1,1.18,2.33,1,1,0,0,0,.92.86h.24a1,1,0,0,0,.89-.86,5.44,5.44,0,0,1,2-3.16,29,29,0,0,1,7-4.31,43.17,43.17,0,0,1,5.2-2,16.41,16.41,0,0,0,2.32-.93c1.45-.67,3.23-1.6,4.9-2.53a39.16,39.16,0,0,0,4.14-2.62,31,31,0,0,0,9.11-13.13c.48.4,1.11,1,1.82,1.58s1.48,1.33,1.65,1.49a1,1,0,0,0,.91.21,1,1,0,0,0,.65-.69,68.17,68.17,0,0,0,2-15.11,30.92,30.92,0,0,0-.82-7.51.94.94,0,0,0-.86-.71.9.9,0,0,0-.94.59c-1.77,4.42-6,7.6-9.17,9.49a39.31,39.31,0,0,1-4.69,2.34c-.5.21-1,.4-1.46.57l-.39.14-.13,0a1,1,0,0,0-.19,1.73l4.52,2.61c-.16.24-.38.54-.64.91l-5.9-3.75-.25-.22a.48.48,0,0,1-.14-.35.79.79,0,0,1,0-.17,28.26,28.26,0,0,0,6.44-15.52.52.52,0,0,1,.42-.23h.07l7.56,1.65a3.91,3.91,0,0,0,.91.1,4.15,4.15,0,0,0,3.72-2.33h.94a1.68,1.68,0,0,0,1.66-1.67v-.43A1.67,1.67,0,0,0,961.38,921Zm-13.49,1.43.29,0h.15a2.37,2.37,0,0,0,.52-.06l7.38-1.64a2.2,2.2,0,0,1,1.88.44,2.27,2.27,0,0,1,.77,1.21l0,.11a3.71,3.71,0,0,1,.05.44,2,2,0,0,1-.06.49,2.26,2.26,0,0,1-2.19,1.75,2,2,0,0,1-.49,0l-7.38-1.64a2.35,2.35,0,0,0-.51-.06h-.16a2.66,2.66,0,0,0-.28,0c0-.2,0-.4,0-.59S947.89,922.57,947.89,922.42Zm2.51,28.82-.67-.67a4,4,0,0,0,.19-1.24,4.08,4.08,0,0,0-.65-2.22,3.05,3.05,0,0,0-.22-.32c.75-1,1.24-1.78,1.34-1.93a1,1,0,0,0,.12-.74.92.92,0,0,0-.45-.59l-3.66-2.12a39.35,39.35,0,0,0,5.13-2.55,24.91,24.91,0,0,0,8.66-7.89,33.75,33.75,0,0,1,.27,4.4,60.5,60.5,0,0,1-1,10.09c-.18,1-.38,2-.59,3l-.87-.77c-.54-.48-1.1-1-1.57-1.36l-.64-.51a3.16,3.16,0,0,0-.54-.36.94.94,0,0,0-1.33.59,26.25,26.25,0,0,1-3.15,6.87,1.75,1.75,0,0,0,.08-.51A1.68,1.68,0,0,0,950.4,951.24Zm-34.56-56.68v-1h.3l.8.15,0,.41a.53.53,0,0,1-.13.31Zm3.74-28.48a13,13,0,0,1,3.19,25.62h-.49l1-4.53a8.91,8.91,0,1,0-7.86-.22l1.06,4.76h0a13,13,0,0,1,3.11-25.63Zm2.2,28,0-.24a9.31,9.31,0,0,0,1.08-.2v1l-1-.1a.47.47,0,0,1-.12-.32Zm-9.21-15a7,7,0,0,1,14,0,7,7,0,0,1-3.12,5.81,4.27,4.27,0,0,0-.87-1.9,4.12,4.12,0,0,0-1.35-1v-1.11a1.68,1.68,0,0,0-1.67-1.67h-.43a1.68,1.68,0,0,0-1.66,1.67V882a3.89,3.89,0,0,0-2.14,2.68A7,7,0,0,1,912.57,879.08Zm5,5.15a2.5,2.5,0,0,1,.23-.23,2.38,2.38,0,0,1,1-.51l.16,0h.29a1.73,1.73,0,0,1,.66.08,2.34,2.34,0,0,1,1.16.7,2.23,2.23,0,0,1,.49,1.4,2.72,2.72,0,0,1,0,.49l-1.64,7.37a2.31,2.31,0,0,0-.06.52v.16a1.41,1.41,0,0,0,0,.2H919l-.09-.43h0a2,2,0,0,0,0-.44l-1.64-7.38a2,2,0,0,1-.05-.49A2.23,2.23,0,0,1,917.61,884.23Zm-.07,12.08a22.61,22.61,0,0,1,3.68,0,26.49,26.49,0,0,1,8.51,2l.09,0a26.44,26.44,0,0,1,7.08,4.46,27.29,27.29,0,0,1,2.68,2.7,26.39,26.39,0,0,1,6.34,15.35c.05.74.08,1.38.08,2s0,1.38-.1,2.17a26.44,26.44,0,0,1-6.16,15c-.52.62-1,1.2-1.58,1.73s-1.15,1.08-1.77,1.6a26.8,26.8,0,0,1-10.5,5.35,27.6,27.6,0,0,1-4.5.72h-.17l-.55,0c-.85,0-1.72,0-2.58,0l-.51,0h-.15a26.45,26.45,0,0,1-15.17-6.16c-.58-.48-1.14-1-1.66-1.51l-.06-.06c-.48-.48-1-1-1.43-1.56A26.35,26.35,0,0,1,892.83,925c-.06-.77-.09-1.46-.09-2.1s0-1.16.08-1.87a26.35,26.35,0,0,1,6.39-15.51,25.1,25.1,0,0,1,2.62-2.64,26.59,26.59,0,0,1,3.3-2.48,28.23,28.23,0,0,1,3.82-2A26.34,26.34,0,0,1,917.54,896.31Zm20.72,4.33-.21.24a.51.51,0,0,1-.29.15h0a28.88,28.88,0,0,0-3.09-2.27l-.49-.3h5.52Zm2.32,1.88-.33.26-.16.16-.09.1,0,.07-.36-.36-.37-.37.19-.17.38-.44,4.09-6.43a2.24,2.24,0,0,1,2.93-.78,4.1,4.1,0,0,1,.34.23l.14.1a2.25,2.25,0,0,1-.31,3.56ZM918.83,952.4a2.24,2.24,0,0,0,.06-.52v-.15a2,2,0,0,0,0-.34h1a2,2,0,0,0,0,.35v.14a2.31,2.31,0,0,0,.06.52l1.65,7.43a2.12,2.12,0,0,1,0,.44,2.2,2.2,0,0,1-.48,1.38,2.5,2.5,0,0,1-.23.23,2.18,2.18,0,0,1-.93.48,2.32,2.32,0,0,1-.62.09h-.07l-.33,0-.16,0a2.27,2.27,0,0,1-1.18-.71,2.21,2.21,0,0,1-.5-1.39,2,2,0,0,1,.06-.49Zm-22.16-1.11,3.83-6,.22-.26a.44.44,0,0,1,.5-.11,28.17,28.17,0,0,0,10.33,5.42,6.43,6.43,0,0,1-1.55,1.83,21,21,0,0,1-3.22,2.15,6.72,6.72,0,0,1-3,.79,8,8,0,0,1-3.88-1.2A16.68,16.68,0,0,1,896.67,951.29Zm45.69.4a15.15,15.15,0,0,1-2.81,2.18,8.15,8.15,0,0,1-4,1.2c-2.34,0-4.48-1.41-6.45-2.94a7.09,7.09,0,0,1-1.64-1.91,28.11,28.11,0,0,0,10-5.31.48.48,0,0,1,.56.07l.21.23,4,6.34Zm-38.25-52.92A28.58,28.58,0,0,0,901,901a.49.49,0,0,1-.3-.13l-.2-.22-1.41-2.21h5.5Zm-5.29,4.32-.15-.16-.11-.11a2.44,2.44,0,0,0-.4-.32l-6.37-4.06a2.27,2.27,0,0,1-.69-.69,2.24,2.24,0,0,1-.35-1.2,2.19,2.19,0,0,1,.48-1.36l.07-.11,0-.06a2,2,0,0,1,.45-.37,2.25,2.25,0,0,1,3.1.69l4.07,6.4.26.33.16.16.16.14Q899.17,902.73,898.82,903.09Zm-.33,40s.09-.07.35-.45l.4.41,0,0c.11.11.22.22.34.32a1.79,1.79,0,0,0-.25.23l-.38.44-4.09,6.42a2.2,2.2,0,0,1-.7.69,2.23,2.23,0,0,1-2.57-.13l-.11-.08a.1.1,0,0,1,0,0,2.24,2.24,0,0,1,.32-3.54l6.38-4.06Zm-9.08.41a.94.94,0,0,0-.35,1.29c0,.06.45.71,1.05,1.54a4.11,4.11,0,0,0-1.26,3,4.24,4.24,0,0,0,.19,1.21l-.7.7a1.6,1.6,0,0,0-.36.54,25.92,25.92,0,0,1-2.46-5.72.93.93,0,0,0-.53-.61.84.84,0,0,0-.38-.08.91.91,0,0,0-.43.1,2.93,2.93,0,0,0-.53.36c-.52.39-1.37,1.12-2.61,2.22l-.47.42a65,65,0,0,1-1.55-13.1,33.69,33.69,0,0,1,.28-4.4,24.78,24.78,0,0,0,8.65,7.89,40,40,0,0,0,5.12,2.55ZM891,953.9l.66-.66a4.16,4.16,0,0,0,3.57-.41l.18-.13a18.28,18.28,0,0,0,3.55,2.82c3.11,1.77,5.75,1.94,8.69.46a22.42,22.42,0,0,0,3.52-2.34,8.77,8.77,0,0,0,2.31-2.87,26.33,26.33,0,0,0,3.14.48.5.5,0,0,1,.38.48v.08l-1.66,7.55a4.7,4.7,0,0,0-.1.91,3.94,3.94,0,0,0,2.26,3.63v1a1.68,1.68,0,0,0,1.67,1.66h.43a1.67,1.67,0,0,0,1.66-1.66v-1a3.84,3.84,0,0,0,.92-.6,4.77,4.77,0,0,0,.45-.45,4.13,4.13,0,0,0,.91-2.59,4,4,0,0,0-.1-.91l-1.63-7.31,0-.31a.49.49,0,0,1,.35-.48,27.78,27.78,0,0,0,3.43-.55,9.49,9.49,0,0,0,2.39,2.93c2.24,1.72,4.71,3.32,7.63,3.33a9.83,9.83,0,0,0,4.91-1.45,17.19,17.19,0,0,0,3.29-2.56,4.1,4.1,0,0,0,3.32.29l.65.65a1.7,1.7,0,0,0,2.35,0l.21-.21a27.35,27.35,0,0,1-5.23,5.84,43.51,43.51,0,0,1-5.56,3.35c-1.12.6-2.2,1.14-3.12,1.57a15.38,15.38,0,0,1-2,.82c-.53.15-1.7.55-3.11,1.12a42.47,42.47,0,0,0-7.56,3.9,16.43,16.43,0,0,0-3.22,2.76,7.84,7.84,0,0,0-.75,1,10.45,10.45,0,0,0-1.72-2,29.2,29.2,0,0,0-7.46-4.64,42.53,42.53,0,0,0-5.52-2.16,17.37,17.37,0,0,1-2-.82c-1.38-.64-3.16-1.57-4.77-2.47a34.14,34.14,0,0,1-3.89-2.45,26.49,26.49,0,0,1-4.54-4.89l-.2-.27A1.7,1.7,0,0,0,891,953.9Zm56.77-3.53a2.43,2.43,0,0,1-.24.35l-.09.12a2.11,2.11,0,0,1-.45.39,2.25,2.25,0,0,1-3.1-.69l-4.08-6.4-.26-.33-.15-.16-.25-.22.36-.35.38-.39a1.78,1.78,0,0,0,.22.26l.23.2-.28.29.35.35.32-.32h0l6.25,4a2.2,2.2,0,0,1,.69.7,2.22,2.22,0,0,1,.09,2.24ZM889,893.82Zm-9.14,28.63a2.25,2.25,0,0,1,2.19-1.76,1.91,1.91,0,0,1,.48.06l7.39,1.64a2.84,2.84,0,0,0,.51.05h.15l.26,0c0,.15,0,.3,0,.45s0,.39,0,.58l-.27,0h-.14a2.22,2.22,0,0,0-.51.06l-7.39,1.64a2.27,2.27,0,0,1-1,0,2.23,2.23,0,0,1-1.68-1.65,2.35,2.35,0,0,1-.08-.54A2,2,0,0,1,879.87,922.45Z" transform="translate(-875.7 -864.17)"/>
    <path class="cls-1" d="M895.54,923.54a24,24,0,1,0,24-24A24,24,0,0,0,895.54,923.54Zm24-22A22.06,22.06,0,1,1,903.91,908,21.87,21.87,0,0,1,919.5,901.49Z" transform="translate(-875.7 -864.17)"/>
    <path class="cls-1" d="M929.46,932.2a1,1,0,0,0-1.35,1.35l3.53,3.53a1,1,0,1,0,1.35-1.34Z" transform="translate(-875.7 -864.17)"/>
  </g>
</svg>
