<svg id="OBJECTS" xmlns="http://www.w3.org/2000/svg" viewBox="0 0 149.89 121.42">
  <defs>
    <style>
      .cls-1 {
        fill: #b9b9b9;
      }
    </style>
  </defs>
  <title>catalog-4</title>
  <g>
    <path class="cls-1" d="M682.24,339.92a1.22,1.22,0,0,0-.09.92,1.19,1.19,0,0,0,.59.71,1.16,1.16,0,0,0,.57.15,1.12,1.12,0,0,0,.35-.06l5.62-1.7a1.19,1.19,0,0,0,.72-.58,1.23,1.23,0,0,0,.09-.92,1.21,1.21,0,0,0-1.51-.81l-5.62,1.7A1.2,1.2,0,0,0,682.24,339.92Z" transform="translate(-574.27 -283.83)"/>
    <path class="cls-1" d="M683.6,345.7a1.19,1.19,0,0,0-.25.89,1.2,1.2,0,0,0,.46.81,1.17,1.17,0,0,0,.74.26h.15l5.83-.7a1.2,1.2,0,0,0,1.06-1.34,1.22,1.22,0,0,0-1.34-1.06l-5.84.7A1.15,1.15,0,0,0,683.6,345.7Z" transform="translate(-574.27 -283.83)"/>
    <path class="cls-1" d="M679.94,334.54a1.21,1.21,0,0,0,1.15,1.59,1.16,1.16,0,0,0,.54-.13l5.25-2.64a1.19,1.19,0,0,0,.6-.7,1.21,1.21,0,0,0-1.69-1.46l-5.25,2.64A1.22,1.22,0,0,0,679.94,334.54Z" transform="translate(-574.27 -283.83)"/>
    <path class="cls-1" d="M676.43,329.25a1.21,1.21,0,0,0,1,1.36h.16a1.18,1.18,0,0,0,.74-.25L683,326.8a1.21,1.21,0,0,0,.22-1.7,1.16,1.16,0,0,0-.8-.46,1.14,1.14,0,0,0-.89.24l-4.67,3.57A1.22,1.22,0,0,0,676.43,329.25Z" transform="translate(-574.27 -283.83)"/>
    <path class="cls-1" d="M690.32,357.07a1.21,1.21,0,0,0,.16-2.41l-5.82-.77a1.22,1.22,0,0,0-.9.24,1.18,1.18,0,0,0-.46.8,1.21,1.21,0,0,0,1,1.36l5.83.77Z" transform="translate(-574.27 -283.83)"/>
    <path class="cls-1" d="M690.64,349.33H679.49a1.21,1.21,0,0,0,0,2.42h11.15a1.21,1.21,0,0,0,0-2.42Z" transform="translate(-574.27 -283.83)"/>
    <path class="cls-1" d="M688.63,364.48a1.2,1.2,0,0,0,1.14-.83,1.21,1.21,0,0,0-.77-1.53l-5.58-1.84a1.23,1.23,0,0,0-.92.07,1.19,1.19,0,0,0-.6.7,1.21,1.21,0,0,0,.77,1.53l5.58,1.84A1.21,1.21,0,0,0,688.63,364.48Z" transform="translate(-574.27 -283.83)"/>
    <path class="cls-1" d="M686.43,368.65l-5.18-2.78a1.21,1.21,0,0,0-1.14,2.13l5.18,2.78a1.17,1.17,0,0,0,.57.14,1.21,1.21,0,0,0,1.16-1.56A1.16,1.16,0,0,0,686.43,368.65Z" transform="translate(-574.27 -283.83)"/>
    <path class="cls-1" d="M660.58,318.71a1.2,1.2,0,0,0,1.52-.77l1.85-5.58a1.23,1.23,0,0,0-.07-.92,1.27,1.27,0,0,0-.7-.61,1.25,1.25,0,0,0-.93.07,1.22,1.22,0,0,0-.6.7l-1.84,5.58a1.2,1.2,0,0,0,.07.93A1.16,1.16,0,0,0,660.58,318.71Z" transform="translate(-574.27 -283.83)"/>
    <path class="cls-1" d="M654.46,317.31h.16a1.22,1.22,0,0,0,.73-.25,1.16,1.16,0,0,0,.46-.8l.77-5.83a1.21,1.21,0,1,0-2.39-.31l-.77,5.82a1.17,1.17,0,0,0,.24.9A1.2,1.2,0,0,0,654.46,317.31Z" transform="translate(-574.27 -283.83)"/>
    <path class="cls-1" d="M650.07,322.31a1.21,1.21,0,0,0,1.21-1.21V309.94a1.21,1.21,0,1,0-2.42,0V321.1A1.21,1.21,0,0,0,650.07,322.31Z" transform="translate(-574.27 -283.83)"/>
    <path class="cls-1" d="M670.81,324.21a1.17,1.17,0,0,0,.74.26h.15a1.23,1.23,0,0,0,.81-.45l3.63-4.62a1.21,1.21,0,0,0-1.9-1.5l-3.63,4.62a1.19,1.19,0,0,0-.25.89A1.15,1.15,0,0,0,670.81,324.21Z" transform="translate(-574.27 -283.83)"/>
    <path class="cls-1" d="M669.67,329.74a1.21,1.21,0,0,0,1.21,1.2h0a1.19,1.19,0,0,0,.86-.35l7.87-7.91a1.21,1.21,0,0,0,0-1.71,1.19,1.19,0,0,0-.86-.35h0a1.2,1.2,0,0,0-.85.36l-7.88,7.9A1.19,1.19,0,0,0,669.67,329.74Z" transform="translate(-574.27 -283.83)"/>
    <path class="cls-1" d="M665.89,321a1.18,1.18,0,0,0,.57.15,1.23,1.23,0,0,0,1.07-.64l2.77-5.18a1.21,1.21,0,1,0-2.13-1.14l-2.77,5.18a1.18,1.18,0,0,0-.1.92A1.23,1.23,0,0,0,665.89,321Z" transform="translate(-574.27 -283.83)"/>
    <path class="cls-1" d="M646,317.26h.14a1.2,1.2,0,0,0,.81-.46,1.19,1.19,0,0,0,.25-.89l-.69-5.83a1.23,1.23,0,0,0-.45-.81,1.21,1.21,0,0,0-1.95,1.09l.69,5.84A1.21,1.21,0,0,0,646,317.26Z" transform="translate(-574.27 -283.83)"/>
    <path class="cls-1" d="M639.47,311.33a1.21,1.21,0,0,0-.59-.72,1.18,1.18,0,0,0-.92-.09,1.2,1.2,0,0,0-.72.59,1.22,1.22,0,0,0-.09.92l1.7,5.62a1.28,1.28,0,0,0,.59.72,1.26,1.26,0,0,0,.57.14,1.34,1.34,0,0,0,.35-.05,1.22,1.22,0,0,0,.81-1.51Z" transform="translate(-574.27 -283.83)"/>
    <path class="cls-1" d="M645.68,383.77a1.26,1.26,0,0,0-.9.24,1.24,1.24,0,0,0-.46.81l-.77,5.82a1.21,1.21,0,0,0,1,1.36h.16A1.21,1.21,0,0,0,646,391l.77-5.83A1.22,1.22,0,0,0,645.68,383.77Z" transform="translate(-574.27 -283.83)"/>
    <path class="cls-1" d="M650.44,354.82h0a4.29,4.29,0,0,0,3.26-2l23.61,7.55a1.15,1.15,0,0,0,.37.06A1.21,1.21,0,0,0,678,358l-23.7-7.58a4.2,4.2,0,0,0-.72-2.29,1.4,1.4,0,0,0,.39-.26l11.41-11.42a1.21,1.21,0,1,0-1.71-1.71L652.29,346.2a1.24,1.24,0,0,0-.3.52,4.28,4.28,0,1,0-2.3,8.09Zm-.37-6.14a1.86,1.86,0,1,1-1.86,1.86A1.86,1.86,0,0,1,650.07,348.68Z" transform="translate(-574.27 -283.83)"/>
    <path class="cls-1" d="M632.88,313.73a1.16,1.16,0,0,0-.7-.6,1.18,1.18,0,0,0-.92.07,1.16,1.16,0,0,0-.6.7,1.18,1.18,0,0,0,.06.92l2.65,5.25a1.19,1.19,0,0,0,1.08.66,1.2,1.2,0,0,0,1.14-.83,1.18,1.18,0,0,0-.06-.92Z" transform="translate(-574.27 -283.83)"/>
    <path class="cls-1" d="M650.07,378.78a1.21,1.21,0,0,0-1.21,1.2v11.17a1.21,1.21,0,0,0,2.42,0V380A1.21,1.21,0,0,0,650.07,378.78Z" transform="translate(-574.27 -283.83)"/>
    <path class="cls-1" d="M639.56,382.37a1.22,1.22,0,0,0-1.53.77l-1.84,5.58a1.21,1.21,0,0,0,1.15,1.59,1.2,1.2,0,0,0,1.14-.83l1.85-5.58A1.22,1.22,0,0,0,639.56,382.37Z" transform="translate(-574.27 -283.83)"/>
    <path class="cls-1" d="M661.28,383.44a1.18,1.18,0,0,0-.59-.72,1.22,1.22,0,0,0-.92-.09,1.2,1.2,0,0,0-.8,1.51l1.7,5.62a1.2,1.2,0,0,0,1.16.86,1.33,1.33,0,0,0,.34-.05,1.25,1.25,0,0,0,.72-.59,1.18,1.18,0,0,0,.09-.92Z" transform="translate(-574.27 -283.83)"/>
    <path class="cls-1" d="M671.72,370.51a1.18,1.18,0,0,0-.85-.36h0a1.2,1.2,0,0,0-.86.36,1.17,1.17,0,0,0-.35.85,1.21,1.21,0,0,0,.35.86l7.89,7.89a1.19,1.19,0,0,0,.85.35h0a1.21,1.21,0,0,0,.86-2.06Z" transform="translate(-574.27 -283.83)"/>
    <path class="cls-1" d="M672.16,377.37a1.18,1.18,0,0,0-.8-.46,1.21,1.21,0,0,0-1.36,1,1.19,1.19,0,0,0,.24.89l3.57,4.66a1.22,1.22,0,0,0,1,.48,1.2,1.2,0,0,0,.74-.25,1.22,1.22,0,0,0,.22-1.7Z" transform="translate(-574.27 -283.83)"/>
    <path class="cls-1" d="M682.92,376.42a1.21,1.21,0,0,0-.21-1.7l-4.61-3.64a1.21,1.21,0,1,0-1.5,1.9l4.62,3.64a1.21,1.21,0,0,0,.74.26A1.23,1.23,0,0,0,682.92,376.42Z" transform="translate(-574.27 -283.83)"/>
    <path class="cls-1" d="M654.91,384.08a1.17,1.17,0,0,0-.89-.25,1.23,1.23,0,0,0-.81.45,1.2,1.2,0,0,0-.25.89l.7,5.84a1.2,1.2,0,0,0,1.19,1.06H655a1.2,1.2,0,0,0,.81-.46,1.19,1.19,0,0,0,.25-.89l-.7-5.83A1.15,1.15,0,0,0,654.91,384.08Z" transform="translate(-574.27 -283.83)"/>
    <path class="cls-1" d="M629.33,376.88a1.25,1.25,0,0,0-.89-.26,1.18,1.18,0,0,0-.81.46L624,381.69a1.22,1.22,0,0,0,.2,1.7,1.18,1.18,0,0,0,.75.26,1.21,1.21,0,0,0,.95-.46l3.64-4.62A1.21,1.21,0,0,0,629.33,376.88Z" transform="translate(-574.27 -283.83)"/>
    <path class="cls-1" d="M666.77,381a1.21,1.21,0,1,0-2.16,1.09l2.64,5.24a1.18,1.18,0,0,0,.7.61,1.26,1.26,0,0,0,.38.06,1.13,1.13,0,0,0,.54-.13,1.2,1.2,0,0,0,.61-.7,1.18,1.18,0,0,0-.07-.92Z" transform="translate(-574.27 -283.83)"/>
    <path class="cls-1" d="M634.24,380.09a1.22,1.22,0,0,0-.92-.09,1.2,1.2,0,0,0-.72.59l-2.77,5.18a1.22,1.22,0,0,0,.5,1.64,1.25,1.25,0,0,0,.56.14,1.19,1.19,0,0,0,1.07-.64l2.78-5.18a1.23,1.23,0,0,0,.09-.92A1.21,1.21,0,0,0,634.24,380.09Z" transform="translate(-574.27 -283.83)"/>
    <path class="cls-1" d="M629.82,331.35h0a1.18,1.18,0,0,0,.85-.36,1.21,1.21,0,0,0,0-1.71L622.23,321a1.21,1.21,0,0,0-1.7,1.72L629,331A1.19,1.19,0,0,0,629.82,331.35Z" transform="translate(-574.27 -283.83)"/>
    <path class="cls-1" d="M619.45,335.36a1.21,1.21,0,0,0,1.16-1.56,1.21,1.21,0,0,0-.59-.72l-5.18-2.77a1.19,1.19,0,0,0-1.63.49,1.21,1.21,0,0,0,.49,1.64l5.18,2.77A1.18,1.18,0,0,0,619.45,335.36Z" transform="translate(-574.27 -283.83)"/>
    <path class="cls-1" d="M626.32,317.58a1.21,1.21,0,0,0-2.16.58,1.22,1.22,0,0,0,.24.89l3.58,4.66a1.17,1.17,0,0,0,.8.47h.16a1.22,1.22,0,0,0,.73-.25,1.23,1.23,0,0,0,.47-.8,1.26,1.26,0,0,0-.24-.9Z" transform="translate(-574.27 -283.83)"/>
    <path class="cls-1" d="M615.79,344.79,610,344a1.21,1.21,0,1,0-.32,2.39l5.83.77h.16a1.15,1.15,0,0,0,.73-.25,1.21,1.21,0,0,0,.47-.8A1.22,1.22,0,0,0,615.79,344.79Z" transform="translate(-574.27 -283.83)"/>
    <path class="cls-1" d="M609.49,351.75h11.16a1.21,1.21,0,0,0,0-2.42H609.49a1.21,1.21,0,0,0,0,2.42Z" transform="translate(-574.27 -283.83)"/>
    <path class="cls-1" d="M618.24,340a1.22,1.22,0,0,0-.77-1.53l-5.58-1.84a1.21,1.21,0,0,0-1.53.77,1.2,1.2,0,0,0,.07.93,1.16,1.16,0,0,0,.7.6l5.58,1.84a1.22,1.22,0,0,0,1.53-.77Z" transform="translate(-574.27 -283.83)"/>
    <path class="cls-1" d="M622.78,330.26h.15a1.17,1.17,0,0,0,.8-.45,1.21,1.21,0,0,0-.2-1.7l-4.61-3.63a1.2,1.2,0,0,0-.89-.25,1.17,1.17,0,0,0-.81.45,1.22,1.22,0,0,0,.2,1.7L622,330A1.17,1.17,0,0,0,622.78,330.26Z" transform="translate(-574.27 -283.83)"/>
    <path class="cls-1" d="M620.2,366.54a1.23,1.23,0,0,0-.07-.92,1.27,1.27,0,0,0-.7-.61,1.25,1.25,0,0,0-.93.07l-5.24,2.65a1.2,1.2,0,0,0-.54,1.62,1.16,1.16,0,0,0,.7.6,1,1,0,0,0,.38.07,1.26,1.26,0,0,0,.54-.13l5.25-2.65A1.21,1.21,0,0,0,620.2,366.54Z" transform="translate(-574.27 -283.83)"/>
    <path class="cls-1" d="M623.46,370.94a1.21,1.21,0,0,0-1.69-.23l-4.67,3.58a1.22,1.22,0,0,0-.22,1.69,1.23,1.23,0,0,0,.8.47h.16a1.24,1.24,0,0,0,.74-.25l4.66-3.58A1.2,1.2,0,0,0,623.46,370.94Z" transform="translate(-574.27 -283.83)"/>
    <path class="cls-1" d="M627.32,375.25c1.46-1.55,2.69-2.91,2.84-3.08a1.21,1.21,0,0,0-.95-2,1.24,1.24,0,0,0-.84.4l.28.25-.3-.23-1.1,1.21c-.85.92-2.49,2.68-3.92,4.14-.75.76-1.34,1.34-1.76,1.73-.2.18-.37.33-.49.42l0,0h0l-.62-.1.19.33-.09.08a1.23,1.23,0,0,0-.35.85,1.19,1.19,0,0,0,.35.86,1.27,1.27,0,0,0,.87.37h0a1.33,1.33,0,0,0,.58-.14,4,4,0,0,0,.83-.58l.09-.08C623.77,378.94,625.21,377.48,627.32,375.25Z" transform="translate(-574.27 -283.83)"/>
    <path class="cls-1" d="M616.78,354.5a1.23,1.23,0,0,0-.45-.81,1.2,1.2,0,0,0-.89-.25l-5.84.69a1.23,1.23,0,0,0-.81.45,1.21,1.21,0,0,0,.21,1.7,1.17,1.17,0,0,0,.74.26h.15l5.83-.69A1.21,1.21,0,0,0,616.78,354.5Z" transform="translate(-574.27 -283.83)"/>
    <path class="cls-1" d="M618,360.25a1.18,1.18,0,0,0-.59-.72,1.22,1.22,0,0,0-.92-.09l-5.62,1.7a1.24,1.24,0,0,0-.72.59,1.22,1.22,0,0,0-.09.92,1.24,1.24,0,0,0,.59.72,1.26,1.26,0,0,0,.57.14,1.41,1.41,0,0,0,.35-.05l5.62-1.7A1.22,1.22,0,0,0,618,360.25Z" transform="translate(-574.27 -283.83)"/>
    <path class="cls-1" d="M722.8,369.6a5,5,0,0,0-1.46-.74l-.49-.21.21-.15.36-.3a7.4,7.4,0,0,0,1.18-1.13,2.5,2.5,0,0,0,.4-2.49,2.62,2.62,0,0,0-2.12-1.59l-.24,0v-.11c0-.28,0-.55,0-.82a2.32,2.32,0,0,0-3.85-1.82,6,6,0,0,0-1.7,1.8,34.48,34.48,0,0,1,.27-3.76l.79.07,2.42.22a5.24,5.24,0,0,0,5-2.51,3.52,3.52,0,0,0,.24-3.79,2.29,2.29,0,0,0-2.31-1.38,5,5,0,0,0-2.46.8,11.68,11.68,0,0,0-3.3,3l.48-3.58.68-.28c.6-.26,1.16-.49,1.74-.7a9.41,9.41,0,0,0,4.43-3.39,7,7,0,0,0,1-1.91,3.2,3.2,0,0,0-.32-2.74,2.09,2.09,0,0,0-2.81-.92,5.63,5.63,0,0,0-1.39.87,10.9,10.9,0,0,0-3,4l-.15-4.15c0-.34.08-.59.59-.81a11.37,11.37,0,0,0,4.45-3.34,6.94,6.94,0,0,0,1.56-3.62,4,4,0,0,0-.37-2.39,1.93,1.93,0,0,0-2.57-1,4.94,4.94,0,0,0-2.29,1.76,8.93,8.93,0,0,0-1.75,4.47l-.18,1.35c-.21-.93-.42-1.87-.62-2.81a1,1,0,0,1,0-.48,14.88,14.88,0,0,0,0-7.78,8.31,8.31,0,0,0-1.68-3.33,5.09,5.09,0,0,0-2.39-1.63,2.92,2.92,0,0,0-3.83,1.82,4.59,4.59,0,0,0-.28.9,6.72,6.72,0,0,0,1.41,5.68,9.56,9.56,0,0,0,3.29,2.8,3.24,3.24,0,0,1,1.83,2.18c.05.16.11.31.17.47a6.21,6.21,0,0,1,.2.61c.16.65.3,1.31.44,2v0l-.12-.11c-.34-.27-.67-.56-1-.84-.77-.65-1.56-1.32-2.39-1.94a5.4,5.4,0,0,0-3.16-1.21,3.15,3.15,0,0,0-2.57,1.13,3,3,0,0,0-.45,2.76,4.94,4.94,0,0,0,2.45,3,8.59,8.59,0,0,0,6.27,1c.41-.09.81-.21,1.25-.35l.19-.06,0,.81c.09,2,.17,3.83.08,5.71a11,11,0,0,0-5.32-3.77,3,3,0,0,0-3.28.6,3.2,3.2,0,0,0-.76,3.43,4.71,4.71,0,0,0,3.8,3.39,8.72,8.72,0,0,0,5-.43l.23-.08-.61,6.22a7.34,7.34,0,0,0-.72-1.09,2.34,2.34,0,0,0-1.76-1,2.5,2.5,0,0,0-1.85,1c-.13.15-.26.3-.39.47l-.22-.12a2.55,2.55,0,0,0-2.52-.27,2.7,2.7,0,0,0-1.44,2.14,7.89,7.89,0,0,0,.08,2.62,20.88,20.88,0,0,0,.81,2.55c0,.15.1.29.16.44l-.29-.08a6,6,0,0,0-4.24.34,2.32,2.32,0,0,0-1.22,3.39,5.88,5.88,0,0,0,1,1.32,3.16,3.16,0,0,0,.53.45h0c-.13.19-.24.36-.34.53a2.56,2.56,0,0,0,.65,3.58,4.23,4.23,0,0,0,3.46,1c.52-.08,1.05-.19,1.6-.32l.06,0c0,.07-.05.13-.07.19-.1.31-.21.62-.32.93-.29.82-.58,1.65-.8,2.5a4.08,4.08,0,0,0,.07,2.6l-.05-.05c-.71-.7-1.38-1.37-2.12-2a21.91,21.91,0,0,0-2.79-2,7.1,7.1,0,0,0-3.21-1,5,5,0,0,0-3.12.72,2.75,2.75,0,0,0-1.37,2.07,2.64,2.64,0,0,0,1,2.18,5.66,5.66,0,0,0,1,.68l-.42-.09a5.61,5.61,0,0,0-3.74.57A2.46,2.46,0,0,0,689.9,384a2.44,2.44,0,0,0,.82,2,3.47,3.47,0,0,0,.95.71l.26.11a16.24,16.24,0,0,0,2.41.93,24.41,24.41,0,0,0,5.62.64c.62,0,1.25,0,1.88.08h.1c-.82,1.13-1.66,2.22-2.54,3.27l-.34-.26-1.26-.93c-2.84-2.13-6.15-2.51-9.84-1.13a5.18,5.18,0,0,0-1.86,1.29,2.11,2.11,0,0,0-.63,1.51,2.23,2.23,0,0,0,.74,1.53,5.42,5.42,0,0,0,1.63,1.1,10.82,10.82,0,0,0,8.55.25c-.55.61-1.13,1.19-1.69,1.76l-.24.25a1.44,1.44,0,0,1-1,.49l-1.11.06a13.27,13.27,0,0,1-1.39.06,12,12,0,0,0-5.74,1.15,7,7,0,0,0-2.55,2,2.36,2.36,0,0,0,1.25,4,7.08,7.08,0,0,0,2.23.34,10,10,0,0,0,1.9-.2,7.28,7.28,0,0,0,4.91-3.56,27.25,27.25,0,0,1,4.56-5.5c.39-.38.75-.79,1.11-1.2-.12.37-.23.74-.32,1.11a6.68,6.68,0,0,0,.25,4.33A4.45,4.45,0,0,0,701.8,403a3.05,3.05,0,0,0,3.68-2,5.06,5.06,0,0,0,.23-2.69,8.12,8.12,0,0,0-4.27-5.75l-.56-.29,3.45-4.87a9.25,9.25,0,0,0,.65,4.28,4.2,4.2,0,0,0,2.3,2.39,2.87,2.87,0,0,0,4.06-2,4.61,4.61,0,0,0-1.2-4.67,13.72,13.72,0,0,0-2.49-1.8,10.61,10.61,0,0,0-1.47-.65l-.29-.1,1.12-2.37a1.73,1.73,0,0,0,.92.36H708a2,2,0,0,0,1.44-.73,6.29,6.29,0,0,0,.5-.63l.12.12a2.59,2.59,0,0,0,3.09.52,3.55,3.55,0,0,0,1.9-1.85c.37-.92.72-1.91,1-3a4.75,4.75,0,0,0,.13-2l.55.42a6.59,6.59,0,0,0,3.22,1.52,2.32,2.32,0,0,0,2.12-.59,2.34,2.34,0,0,0,.44-2.17c-.06-.27-.14-.53-.22-.79l0-.08.39-.27a2.42,2.42,0,0,0,1-1.9A2.25,2.25,0,0,0,722.8,369.6ZM702.93,371c.62-.79.56-1.28-.25-1.94a5.07,5.07,0,0,1-1.16-1.34,1.16,1.16,0,0,1-.17-.9,1.23,1.23,0,0,1,.7-.66,5,5,0,0,1,2.08-.47,6,6,0,0,1,3,.87.45.45,0,0,1,.14.11l2.27,2.43-4.75-.48,1.56.88a4.54,4.54,0,0,0,1.71.59l-1.9.47.12.81.27.05a3.37,3.37,0,0,0,1.35-.1l.33-.07c.37-.07.74-.17,1.13-.26l.19-.05.27.77h0l-.22.09-.08,0a2.51,2.51,0,0,0-.29.2h0l-.21.18a5.86,5.86,0,0,1-4.47,1.46,2.62,2.62,0,0,1-1-.34c-.59-.32-.93-.67-1-1.05A1.6,1.6,0,0,1,702.93,371Zm7.61-13c.2-.26.49-.58.78-.58h0c.29,0,.59.31.8.58a6.06,6.06,0,0,1,1.1,2.88,15,15,0,0,1-.32,5l-.1.58c0,.09,0,.1-.21.18a1.24,1.24,0,0,0-.44.25l-3.09-4.8.49,2.11c.41,1.77,1.3,3.12,2.32,3.52l1,.42a2,2,0,0,1,.68,2.47,1.57,1.57,0,0,1-1.28,1,1.12,1.12,0,0,1-1.14-.65,1.45,1.45,0,0,1,.13-1.68l.1-.05.17-.08.43-.24-.34-.35a1.07,1.07,0,0,0-.77-.39.86.86,0,0,0-.39.1l-.07-.09c-.17-.21-.32-.4-.48-.57a12.25,12.25,0,0,1-3.42-6.18h0a6.08,6.08,0,0,1,0-2.25,1,1,0,0,1,.47-.77,1.16,1.16,0,0,1,1,.14C709.43,359.24,709.64,359.2,710.54,358Zm8.07,3.18a.74.74,0,0,1,.38.57,5.13,5.13,0,0,1,.06,1.19v.48c0,.86.26,1.1,1.19,1.14a2.33,2.33,0,0,1,1,.18.84.84,0,0,1,.42.6,1.2,1.2,0,0,1-.28,1,6.15,6.15,0,0,1-3.31,2,6.85,6.85,0,0,1-.9.19l-.59.11a2.45,2.45,0,0,0-.75.25.85.85,0,0,0-.35.47,2.56,2.56,0,0,0-.13-.53l1.87-2.48-.69-.6-1.8,1.91a1.46,1.46,0,0,1-.16-1.65l.07-.16a12.81,12.81,0,0,1,1.91-3.47,4.7,4.7,0,0,1,1.47-1.13A.66.66,0,0,1,718.61,361.16Zm-5.71,19.27a1.45,1.45,0,0,1-1.06.38,1.51,1.51,0,0,1-.94-.74l0-.08a1.74,1.74,0,0,0-.11-.18,1.17,1.17,0,0,0-.82-.52,1.11,1.11,0,0,0-.82.57c-.1.14-.19.29-.28.43a6.06,6.06,0,0,1-.35.53c-.22.28-.38.36-.49.35s-.2-.13-.31-.41a3.46,3.46,0,0,1-.19-1.69,11.55,11.55,0,0,1,2-4.94,4.06,4.06,0,0,1,.73-.77,1.72,1.72,0,0,0,.27-.27,1.34,1.34,0,0,0,.23-.42l.13.06.34.16h0l.53.26h0l.28.13-.66,2.42.87.26.13-.33.21-.53a9.44,9.44,0,0,0,.47-1.29,1.11,1.11,0,0,1,.68-.84l.65,1.28a3.44,3.44,0,0,1,.33,2.63,19.54,19.54,0,0,1-.88,2.51A3,3,0,0,1,712.9,380.43Zm3.17-10.21a1.62,1.62,0,0,0,.5,0,1.6,1.6,0,0,1,.23,0l1,0a23.78,23.78,0,0,1,2.67,0,2.76,2.76,0,0,1,1.38.6.85.85,0,0,1,.41.65c0,.25-.17.51-.55.78-1.08.72-1.14.9-.72,2.14.18.52.29.91,0,1.19s-.6.22-1.19.07a5.07,5.07,0,0,1-2.24-1.29c-.65-.65-1.24-1.32-1.88-2-.21-.25-.43-.49-.65-.73a5.22,5.22,0,0,0,.46-1.77A.81.81,0,0,0,716.07,370.22ZM709,346a9.84,9.84,0,0,1,5.18,3.7,9.8,9.8,0,0,1-2-.37,10.57,10.57,0,0,0-1.62-.34l-1.11-.13.8.77a5.34,5.34,0,0,0,2.31,1.14l0,0a6.55,6.55,0,0,1-3.42-.09,3.3,3.3,0,0,1-2.45-3,1.69,1.69,0,0,1,.49-1.39,1.59,1.59,0,0,1,1.14-.42l.27,0h.09A1.43,1.43,0,0,1,709,346Zm-2.88-9.55a1.61,1.61,0,0,1,1.28-.54h.09a4,4,0,0,1,1.68.44,15.55,15.55,0,0,1,2.27,1.53c.77.58,1.52,1.21,2.24,1.82l.57.48a13.1,13.1,0,0,1-3.86-1c-.45-.16-.9-.33-1.35-.47l-1.8-.57,1.45,1.22a10.64,10.64,0,0,0,3.48,1.78,6.92,6.92,0,0,1-5.07-1.33,3.13,3.13,0,0,1-1.25-1.83A1.78,1.78,0,0,1,706.08,336.49Zm12.65,11.36a13,13,0,0,0,1-1.92l.5-1.27-1.08.83a10.89,10.89,0,0,0-2,2.2l-.17.23a11.36,11.36,0,0,1,2.82-4.4,6.51,6.51,0,0,1,1.33-1,1,1,0,0,1,.82-.1,1.1,1.1,0,0,1,.51.74,2.58,2.58,0,0,1-.4,2.2,8.21,8.21,0,0,1-3.39,3.09,3.48,3.48,0,0,1-.48.21Zm3.85,5.21a2.27,2.27,0,0,1-.28,2.23,4,4,0,0,1-4,1.88l-1.21-.16,3.29-2.37-1.45.18a6.6,6.6,0,0,0-2.47,1l-.18.1a10.47,10.47,0,0,1,3.64-3.28,3.92,3.92,0,0,1,1.25-.42A1.12,1.12,0,0,1,722.58,353.06Zm-1.28-20.28a4.77,4.77,0,0,1,0,1.68,6.37,6.37,0,0,1-2.55,3.81c-.31.25-.65.48-1,.7l1.08-2.19-.73-.5-1,1.3a9,9,0,0,1,1.19-3.7,4.54,4.54,0,0,1,1.69-1.69,1.12,1.12,0,0,1,.91-.16C721.14,332.14,721.25,332.5,721.3,332.78Zm-12-9.21a2.07,2.07,0,0,1,1.79.25,4.59,4.59,0,0,1,2,2.35,12,12,0,0,1,.91,5.9c0,.18,0,.37,0,.56a33.61,33.61,0,0,0-4.12-6l-.19-.22-.8.41.37.72.44.82,2,3.51.09.15a11.53,11.53,0,0,1-2.52-2.37,5.25,5.25,0,0,1-.95-4.64A2,2,0,0,1,709.34,323.57Zm-5.89,77.95a2,2,0,0,1-1.58.12,3.28,3.28,0,0,1-2.25-2.26,6,6,0,0,1,0-3.51c.13-.53.31-1,.48-1.55l.06-.21,3,4.55.77-.45-.08-.28a14,14,0,0,0-1.74-3.39l0,0a6,6,0,0,1,2.25,3.7,5.37,5.37,0,0,1-.08,2.14A1.72,1.72,0,0,1,703.45,401.52Zm-16.25-10a2.89,2.89,0,0,1,.83-.6,10.4,10.4,0,0,1,4-.84,8.15,8.15,0,0,1,5.16,1.79l-5.39.2v.85l5.83.24a9.76,9.76,0,0,1-8.7.76,5.75,5.75,0,0,1-1.67-.9,1.06,1.06,0,0,1-.48-.7A1.13,1.13,0,0,1,687.2,391.47Zm6.72-8.64a8.73,8.73,0,0,1,6.3,3.1l-2.08-.71-.32.86,2.26,1.05a20.93,20.93,0,0,1-5.68-.64,12.72,12.72,0,0,1-1.84-.7,3.76,3.76,0,0,1-.87-.58,1.29,1.29,0,0,1-.54-1.09,1.22,1.22,0,0,1,.8-.83A4.42,4.42,0,0,1,693.92,382.83Zm14.54,7.83,1.13.93-.54-1.36a14.27,14.27,0,0,0-2.2-3.48c-.06-.08-.12-.15-.17-.23a5.84,5.84,0,0,1,3.16,2.71,3.16,3.16,0,0,1,.07,2.71,1.4,1.4,0,0,1-1.89.9,2.46,2.46,0,0,1-1.45-1.1,7.86,7.86,0,0,1-1.08-4.44c.33.37.64.76.94,1.14A14.32,14.32,0,0,0,708.46,390.66Zm-8.93-11.92-.34.88,4.87,2.11a19,19,0,0,1-3.62,0A22.62,22.62,0,0,1,697,381a5,5,0,0,1-1.65-.89,1.36,1.36,0,0,1-.62-1.13,1.45,1.45,0,0,1,.83-1.09,3.61,3.61,0,0,1,1.91-.5,4.92,4.92,0,0,1,.84.07,8.23,8.23,0,0,1,4,2,5.34,5.34,0,0,1,.44.39Zm.21,4.18a17.45,17.45,0,0,0,4.27,0l1.34-.1h.27c-.87,1.52-1.78,2.94-2.72,4.3a12.7,12.7,0,0,0-5.14-4.64C698.4,382.67,699.06,382.81,699.74,382.92Zm-11.48,18.35-.42.16.23.38a1,1,0,0,0,1.48.41c.79-.41,1.55-.85,2.32-1.29a6.81,6.81,0,0,1-7.26,2.79,2.8,2.8,0,0,1-.41-.13,1.3,1.3,0,0,1-.84-.71,1.27,1.27,0,0,1,.29-1,4.44,4.44,0,0,1,.94-.95,7.92,7.92,0,0,1,4.27-1.66c.91-.07,1.86-.09,2.77-.12h.5A13.64,13.64,0,0,1,688.26,401.27Z" transform="translate(-574.27 -283.83)"/>
    <path class="cls-1" d="M609.26,316.86a6.27,6.27,0,0,0-.37-1.6,2.84,2.84,0,0,0-.31-.63h0l.52-.35a2.58,2.58,0,0,0,.84-3.54,4.25,4.25,0,0,0-2.78-2.3c-.51-.14-1-.24-1.59-.34h-.07l.13-.15.66-.71c.59-.64,1.2-1.29,1.75-2a4.23,4.23,0,0,0,1-2.4l0,.06c.37.93.72,1.81,1.14,2.68a21.36,21.36,0,0,0,1.77,3,7.13,7.13,0,0,0,2.56,2.17,5,5,0,0,0,2.4.63,4.62,4.62,0,0,0,.74-.06,2.71,2.71,0,0,0,2.08-1.34,2.64,2.64,0,0,0-.06-2.41,5.39,5.39,0,0,0-.6-1,3.79,3.79,0,0,0,.35.25,5.69,5.69,0,0,0,3.12,1,4.71,4.71,0,0,0,.53,0,2.47,2.47,0,0,0,1.93-1.11,2.43,2.43,0,0,0,0-2.19,3.3,3.3,0,0,0-.59-1l-.19-.2a17.5,17.5,0,0,0-1.84-1.81,24,24,0,0,0-4.9-2.82c-.56-.27-1.13-.54-1.69-.83l-.1,0c1.2-.71,2.41-1.38,3.64-2l.17.29c.28.47.55.95.83,1.43,1.75,3.09,4.63,4.76,8.57,5a5,5,0,0,0,2.22-.44,2.1,2.1,0,0,0,1.17-1.13,2.15,2.15,0,0,0-.06-1.7,5.42,5.42,0,0,0-1.06-1.66,10.84,10.84,0,0,0-7.74-3.64c.75-.33,1.5-.64,2.23-.93l.34-.14a1.4,1.4,0,0,1,1.13-.05c.34.14.69.27,1,.39s.88.31,1.3.5a11.86,11.86,0,0,0,5.72,1.22,6.86,6.86,0,0,0,3.14-.83,2.66,2.66,0,0,0,1.49-2,2.63,2.63,0,0,0-1-2.19,8,8,0,0,0-3.72-1.78,7.27,7.27,0,0,0-5.93,1.31,27,27,0,0,1-6.38,3.22c-.5.2-1,.43-1.49.66.25-.29.5-.58.73-.88a6.72,6.72,0,0,0,1.51-4.08,4.49,4.49,0,0,0-1.89-3.82,3.07,3.07,0,0,0-4.19.4,5,5,0,0,0-1.27,2.37,8.06,8.06,0,0,0,1.62,7l.39.5-5.1,3.08a9.12,9.12,0,0,0,1.11-4.18,4.24,4.24,0,0,0-1.15-3.11,3,3,0,0,0-2.34-1,2.94,2.94,0,0,0-2.19,1.23,4.59,4.59,0,0,0-.77,4.75,13.26,13.26,0,0,0,1.58,2.65,8.8,8.8,0,0,0,1.09,1.19l.22.2-2,1.73a1.58,1.58,0,0,0-.7-.7,1.92,1.92,0,0,0-1.68.06c-.24.11-.47.24-.71.38a1,1,0,0,0-.07-.15,2.56,2.56,0,0,0-2.54-1.72h-.08a3.55,3.55,0,0,0-2.48.95,30,30,0,0,0-2.13,2.3,4.57,4.57,0,0,0-.91,1.76c-.11-.2-.23-.4-.34-.61a6.66,6.66,0,0,0-2.34-2.67,2.33,2.33,0,0,0-2.19-.3,2.31,2.31,0,0,0-1.26,1.82,7,7,0,0,0-.12.8v.08l-.46.1a2.43,2.43,0,0,0-1.72,1.33,2.23,2.23,0,0,0,.15,2,5.78,5.78,0,0,0,1,1.27l.38.38-.26.06-.44.13a6.86,6.86,0,0,0-1.55.56,2.51,2.51,0,0,0-1.35,2.13,2.65,2.65,0,0,0,1.31,2.3l.21.13,0,.1c-.11.27-.22.52-.3.77a2.56,2.56,0,0,0,.34,2.51,2.59,2.59,0,0,0,2.47.69,6,6,0,0,0,2.27-1,34.28,34.28,0,0,1-1.74,3.34l-.65-.35-2.19-1.19a5.21,5.21,0,0,0-5.53.33,3.54,3.54,0,0,0-1.74,3.38,2.31,2.31,0,0,0,1.57,2.18,4.87,4.87,0,0,0,2.58.25,11.69,11.69,0,0,0,4.23-1.45l-1.87,3.1-.73,0c-.65,0-1.27,0-1.88-.05a9.45,9.45,0,0,0-5.41,1.34,6.83,6.83,0,0,0-1.64,1.37,3.23,3.23,0,0,0-.81,2.65,2.1,2.1,0,0,0,2.2,2h0a6,6,0,0,0,1.63-.24,10.88,10.88,0,0,0,4.37-2.48L584,334.77c-.12.31-.31.5-.84.5h-.14a11.52,11.52,0,0,0-5.3,1.29,7.11,7.11,0,0,0-2.87,2.7,4,4,0,0,0-.61,2.35,1.92,1.92,0,0,0,2,1.94,5,5,0,0,0,2.8-.7,9,9,0,0,0,3.39-3.4c.24-.39.47-.78.7-1.17-.18.94-.36,1.89-.55,2.83a1.07,1.07,0,0,1-.22.42,14.84,14.84,0,0,0-3.07,7.14,8.23,8.23,0,0,0,.2,3.73,5.05,5.05,0,0,0,1.54,2.44,3.21,3.21,0,0,0,2.08.85,3.09,3.09,0,0,0,2.17-1,4.77,4.77,0,0,0,.61-.72,6.71,6.71,0,0,0,1-5.78,9.47,9.47,0,0,0-1.91-3.87,3.24,3.24,0,0,1-.8-2.73,4.07,4.07,0,0,0,0-.5c0-.21,0-.43.06-.64.12-.65.25-1.31.38-2v-.05l.08.15.58,1.17c.45.9.91,1.83,1.42,2.73a5.3,5.3,0,0,0,2.42,2.37,2.92,2.92,0,0,0,4.32-2.36,5,5,0,0,0-1-3.74A8.64,8.64,0,0,0,587,335.4c-.41-.08-.83-.13-1.29-.18l-.19,0,.29-.75c.7-1.83,1.37-3.58,2.21-5.27a10.89,10.89,0,0,0,3.37,5.57,3.05,3.05,0,0,0,3.25.77,3.22,3.22,0,0,0,2.06-2.85,4.69,4.69,0,0,0-2.13-4.62,8.75,8.75,0,0,0-4.74-1.59h-.24l3-5.47a7.8,7.8,0,0,0,.23,1.28,2.33,2.33,0,0,0,1.23,1.6,2.41,2.41,0,0,0,2.09-.16l.54-.28a1.56,1.56,0,0,1,.16.2,2.58,2.58,0,0,0,2.2,1.25,2.65,2.65,0,0,0,2.17-1.39,8,8,0,0,0,1-2.43,23.21,23.21,0,0,0,.27-2.67l0-.46a2.11,2.11,0,0,1,.23.19,6.07,6.07,0,0,0,4,1.38,2.34,2.34,0,0,0,2.48-2.63ZM592.72,330a5.27,5.27,0,0,0-1.65-2l0,0a6.38,6.38,0,0,1,3.1,1.44,3.3,3.3,0,0,1,1.07,3.7,1.6,1.6,0,0,1-2.54.84,2.12,2.12,0,0,1-.27-.17,9.8,9.8,0,0,1-3.28-5.46,9.92,9.92,0,0,1,1.72,1.15,12.26,12.26,0,0,0,1.36,1l1,.56Zm-16.87,11.91a1,1,0,0,1-.06-.85,4.64,4.64,0,0,1,.69-1.53,6.43,6.43,0,0,1,3.86-2.48c.38-.1.77-.18,1.18-.25l-1.62,1.37-.2.28.42.69,1.42-.82a9,9,0,0,1-2.57,2.92h0a4.49,4.49,0,0,1-2.22.88A1.16,1.16,0,0,1,575.85,341.94Zm8.89,8.76c0-.31,0-.62-.07-.93-.14-1.24-.28-2.48-.43-3.72l-.06-.48a11.08,11.08,0,0,1,1.37,3.18,5.23,5.23,0,0,1-1,4.63,2,2,0,0,1-1.5.92h0a2,2,0,0,1-1.54-.94,4.61,4.61,0,0,1-.9-2.95,12.09,12.09,0,0,1,1.52-5.77l.27-.49a33.73,33.73,0,0,0,1.39,7.14l.09.28.89-.06Zm.58-29.3,1.4.41a6.5,6.5,0,0,0,2.67.07l.21,0a10.62,10.62,0,0,1-4.66,1.56,3.73,3.73,0,0,1-1.31-.12,1.11,1.11,0,0,1-.93-1.32,2.27,2.27,0,0,1,1.14-1.94,5,5,0,0,1,2.42-.72,3.79,3.79,0,0,1,2,.59l1,.62Zm4.44,22.3a3.94,3.94,0,0,1-1.37-1.07,15.32,15.32,0,0,1-1.48-2.31c-.47-.84-.91-1.72-1.33-2.57l-.33-.65a13,13,0,0,1,3.16,2.41c.35.33.69.66,1.05,1l1.43,1.24L590,340a10.63,10.63,0,0,0-2.48-3,6.94,6.94,0,0,1,4.12,3.24,3.1,3.1,0,0,1,.42,2.18,1.78,1.78,0,0,1-.87,1.33A1.63,1.63,0,0,1,589.76,343.7Zm-10.93-12.65a2.68,2.68,0,0,1,1.25-1.86,8.14,8.14,0,0,1,4.34-1.48h.52c-.26.2-.53.39-.8.58a14.38,14.38,0,0,0-1.69,1.36l-1,1,1.32-.33a10.54,10.54,0,0,0,2.69-1.23l.25-.14a11.43,11.43,0,0,1-4.35,2.91,6.12,6.12,0,0,1-1.6.35,1,1,0,0,1-.78-.23A1.11,1.11,0,0,1,578.83,331.05Zm10.61-15.59a5.23,5.23,0,0,1,.42-1.11c.06-.15.13-.3.19-.44.33-.8.21-1.12-.62-1.52a2.33,2.33,0,0,1-.84-.56.86.86,0,0,1-.14-.71,1.22,1.22,0,0,1,.64-.78,5.3,5.3,0,0,1,2.63-.6,10.41,10.41,0,0,1,1.21.07,7.21,7.21,0,0,1,.9.19l.59.13a2.21,2.21,0,0,0,.78.07.84.84,0,0,0,.51-.29,2.34,2.34,0,0,0-.09.54l-2.7,1.52.39.84,2.41-1a1.44,1.44,0,0,1-.51,1.57l-.12.12c-.31.3-.62.58-.93.86a1.74,1.74,0,0,0-.35-.53l-.17-.17-.82.3.41,1.16a7.64,7.64,0,0,1-1.28.8,4.79,4.79,0,0,1-1.8.46.69.69,0,0,1-.59-.21A.75.75,0,0,1,589.44,315.46Zm13-14.73a1.42,1.42,0,0,1,1.12.08,1.52,1.52,0,0,1,.57,1.05v.1l0,.2a1.07,1.07,0,0,0,.54.81,1.1,1.1,0,0,0,1-.2l.42-.28c.18-.12.35-.24.53-.34s.52-.18.6-.13.13.19.12.49a3.63,3.63,0,0,1-.5,1.64,11.59,11.59,0,0,1-3.77,3.74,4.51,4.51,0,0,1-1,.42,1.18,1.18,0,0,0-.36.14,1.22,1.22,0,0,0-.37.3l-.35-.4h0l-.17-.19-.21-.25h0l-.2-.24,1.34-1.67.18-.33-.64-.54-.25.25-.41.4a11.3,11.3,0,0,0-1,1,1.09,1.09,0,0,1-.95.5l-.09-1.43a3.43,3.43,0,0,1,.75-2.55,19.79,19.79,0,0,1,1.81-1.95A2.82,2.82,0,0,1,602.48,300.73Zm-9.82,2.4c0-.55.1-.95.45-1.1a.44.44,0,0,1,.22,0,1.55,1.55,0,0,1,.89.46,4.92,4.92,0,0,1,1.55,2.08c.33.85.61,1.7.91,2.61.1.3.2.61.31.92a5.24,5.24,0,0,0-1.13,1.45.81.81,0,0,0-.36-.66,1.52,1.52,0,0,0-.47-.18,1.29,1.29,0,0,1-.21-.06l-.9-.36-1.35-.56.09-2.77-.77,1.54a3.34,3.34,0,0,0-.3.77l-.11-.05a2.91,2.91,0,0,1-1-1.1.86.86,0,0,1-.12-.77c.1-.23.36-.4.82-.49C592.43,304.57,592.55,304.44,592.66,303.13Zm1.59,18.51a6.19,6.19,0,0,1,.13-3.08,15.13,15.13,0,0,1,2.27-4.43l.33-.5c0-.08.06-.09.28-.09a1.3,1.3,0,0,0,.5-.05l.92,5.63.39-2.13c.33-1.78,0-3.37-.73-4.16l-.8-.8a2,2,0,0,1,.37-2.53,1.56,1.56,0,0,1,1.57-.41,1.12,1.12,0,0,1,.78,1.06,1.44,1.44,0,0,1-.78,1.48,2,2,0,0,1-.3,0l-.49,0,.17.46c.25.68.68.75.95.72l0,.12c.07.26.13.49.21.72a12.19,12.19,0,0,1,.67,7,6.37,6.37,0,0,1-.89,2.07,1,1,0,0,1-.75.51,1.1,1.1,0,0,1-.89-.54c-.56-.7-.86-1-1.27-1a2.85,2.85,0,0,0-1.22.5,1.25,1.25,0,0,1-1,.23C594.49,322.38,594.33,322,594.25,321.64Zm6.86-9.18,4.16,2.34-1.09-1.43a4.5,4.5,0,0,0-1.35-1.22l2,.33.2-.8-.22-.15a3.26,3.26,0,0,0-1.28-.44l-.33-.07c-.38-.09-.76-.15-1.15-.21l-.18,0,0-.82a.48.48,0,0,0,.12,0h.13a1.9,1.9,0,0,0,.45-.07l.26-.08a5.87,5.87,0,0,1,4.68.44,2.61,2.61,0,0,1,.79.72,1.76,1.76,0,0,1,.52,1.36,1.67,1.67,0,0,1-1,1c-.89.48-1,1-.55,1.88a5.14,5.14,0,0,1,.53,1.69,1.12,1.12,0,0,1-.21.89,1.2,1.2,0,0,1-.9.32,5.21,5.21,0,0,1-4.45-2.36.61.61,0,0,1-.09-.16Zm13-4.85.66-.67-3.62-3.87a19.18,19.18,0,0,1,3.31,1.47,24.15,24.15,0,0,1,2.87,2,5,5,0,0,1,1.15,1.47,1.36,1.36,0,0,1,.12,1.28,1.45,1.45,0,0,1-1.19.68,4,4,0,0,1-2.7-.71,8.22,8.22,0,0,1-2.92-3.41c-.09-.18-.17-.36-.25-.54ZM611.65,302c-.43-.14-.86-.29-1.28-.45l-.25-.09c1.41-1.05,2.8-2,4.21-2.87a12.64,12.64,0,0,0,2.87,6.31c-.53-.4-1.08-.79-1.66-1.17A17.46,17.46,0,0,0,611.65,302Zm.25-10.67a2.51,2.51,0,0,1,.9,1.59,7.86,7.86,0,0,1-.79,4.51c-.15-.48-.28-.95-.4-1.42a14.56,14.56,0,0,0-1-2.85l-.66-1.3-.05,1.46a14,14,0,0,0,.64,4.07l.07.28a5.82,5.82,0,0,1-1.83-3.75,3.15,3.15,0,0,1,1-2.51A1.4,1.4,0,0,1,611.9,291.29Zm12,14.73a1.23,1.23,0,0,1-1.06.44,4.37,4.37,0,0,1-2-.37,8.65,8.65,0,0,1-4.55-5.34l1.63,1.47.63-.66-1.65-1.86a20.79,20.79,0,0,1,5,2.85,13.29,13.29,0,0,1,1.41,1.38,3.25,3.25,0,0,1,.56.88A1.28,1.28,0,0,1,623.9,306Zm-4.1-12.9-.14.16-1-5.38-.88.1,0,.3a13.67,13.67,0,0,0,.25,3.81h0a6.11,6.11,0,0,1-.58-4.29,5.43,5.43,0,0,1,.92-1.93,1.74,1.74,0,0,1,1.21-.74,2,2,0,0,1,1.49.51,3.31,3.31,0,0,1,1.16,3,6.06,6.06,0,0,1-1.35,3.24C620.53,292.31,620.16,292.72,619.8,293.12Zm6.31,5.26.4,0,.27-.67-5.25-2.54a9.75,9.75,0,0,1,8.29,2.77,5.94,5.94,0,0,1,1.17,1.49,1,1,0,0,1,.15.83,1.05,1.05,0,0,1-.69.57,2.77,2.77,0,0,1-1,.22,8.94,8.94,0,0,1-8-4.52Zm5.92-5.33c-.87-.3-1.76-.66-2.61-1l-.45-.18a13.79,13.79,0,0,1,4.41-.43l.45,0-.06-.44a1,1,0,0,0-1.19-1h0c-.89.07-1.76.16-2.64.26a6.82,6.82,0,0,1,7.77.33l.33.29a1.31,1.31,0,0,1,.48,1,1.28,1.28,0,0,1-.68.83,4.39,4.39,0,0,1-1.23.49A7.93,7.93,0,0,1,632,293.05Z" transform="translate(-574.27 -283.83)"/>
  </g>
</svg>
