<svg id="Icons" xmlns="http://www.w3.org/2000/svg" viewBox="0 0 119.34 115">
  <defs>
    <style>
      .cls-1 {
        fill: #b9b9b9;
      }
    </style>
  </defs>
  <title>catalog-3</title>
  <g>
    <path class="cls-1" d="M-110.33,295.61h-5.52v-7.69a1,1,0,0,0-1-1h-3.34v-12a1,1,0,0,0-1-1h-1.18V247.63h1.18a1,1,0,0,0,1-1v-7.69h3.34a1,1,0,0,0,1-1v-7.69h5.52a1,1,0,0,0,1-.73,1,1,0,0,0-.43-1.12l-58.67-36.94a1,1,0,0,0-1.06,0L-228.2,228.4a1,1,0,0,0-.43,1.12,1,1,0,0,0,1,.73h5.52v7.69a1,1,0,0,0,1,1h3.34v7.69a1,1,0,0,0,1,1h1.18v26.25h-1.18a1,1,0,0,0-1,1v12h-3.34a1,1,0,0,0-1,1v7.69h-5.52a1,1,0,0,0-1,1v8.69a1,1,0,0,0,1,1h117.34a1,1,0,0,0,1-1v-8.69A1,1,0,0,0-110.33,295.61Zm-11.86-8.69h-11v-11h11Zm-81.58-13h-1.17V247.63h1.17a1,1,0,0,0,1-1v-7.69h6.69v7.69a1,1,0,0,0,1,1h1.18v26.25h-1.18a1,1,0,0,0-1,1v12h-6.69v-12A1,1,0,0,0-203.77,273.88Zm11.87,0V247.63h6.69v26.25Zm-2.18-28.25v-6.69h11v6.69Zm0,30.25h11v11h-11Zm12-2h-1.17V247.63H-182a1,1,0,0,0,1-1v-7.69H-157v7.69a1,1,0,0,0,1,1h1.17v26.25H-156a1,1,0,0,0-1,1v12H-181v-12A1,1,0,0,0-182,273.88Zm29.25,0V247.63h6.69v26.25ZM-155,245.63v-6.69h11v6.69Zm0,30.25h11v11h-11Zm12-2h-1.18V247.63h1.18a1,1,0,0,0,1-1v-7.69h6.69v7.69a1,1,0,0,0,1,1h1.17v26.25h-1.17a1,1,0,0,0-1,1v12h-6.69v-12A1,1,0,0,0-142.92,273.88Zm18.55,0h-6.69V247.63h6.69Zm2.18-28.25h-11v-6.69h11ZM-169,193.49l55.21,34.76H-224.21Zm-51.15,36.76h102.3v6.69h-102.3Zm4.34,8.69h11v6.69h-11Zm2.18,8.69h6.69v26.25h-6.69Zm-2.18,28.25h11v11h-11Zm-4.34,13h102.3v6.69h-102.3Zm108.82,15.38H-226.67v-6.69h115.34Z" transform="translate(228.67 -191.3)"/>
    <path class="cls-1" d="M-174.52,256.32h11v16.39h2V255.32a1,1,0,0,0-1-1h-13a1,1,0,0,0-1,1v17.39h2Z" transform="translate(228.67 -191.3)"/>
    <path class="cls-1" d="M-172.82,208a.51.51,0,0,0-.39-.16h0a.59.59,0,0,0-.4.16.58.58,0,0,0,0,.8l1.62,1.6a.59.59,0,0,0,.4.16.66.66,0,0,0,.4-.17.56.56,0,0,0,0-.79Z" transform="translate(228.67 -191.3)"/>
    <path class="cls-1" d="M-172.1,217.6l-.22.24c-.19.21-.49.53-.75.79l-.43.45a.57.57,0,0,0-.26.48.54.54,0,0,0,.55.5h0l.17,0,.08,0a1,1,0,0,0,.24-.17,12.19,12.19,0,0,0,.87-.88l.56-.59a.56.56,0,0,0,.14-.41.59.59,0,0,0-.18-.39A.56.56,0,0,0-172.1,217.6Zm-1.21,1.85h0Zm.29.27-.09-.08.09-.07.05,0A.28.28,0,0,1-173,219.72Z" transform="translate(228.67 -191.3)"/>
    <path class="cls-1" d="M-172.79,214a.56.56,0,0,0-.56-.56h-2.15a.56.56,0,0,0-.56.56.56.56,0,0,0,.56.56h2.15A.56.56,0,0,0-172.79,214Z" transform="translate(228.67 -191.3)"/>
    <path class="cls-1" d="M-163.67,210.52h0a.56.56,0,0,0,.4-.17l1.51-1.52a.54.54,0,0,0,.17-.4.52.52,0,0,0-.17-.39.51.51,0,0,0-.39-.16h0a.54.54,0,0,0-.4.16l-1.52,1.52a.57.57,0,0,0,0,.8A.59.59,0,0,0-163.67,210.52Z" transform="translate(228.67 -191.3)"/>
    <path class="cls-1" d="M-167.68,208.86a.57.57,0,0,0,.56-.56v-2.16a.56.56,0,0,0-.56-.56.56.56,0,0,0-.56.56v2.16A.57.57,0,0,0-167.68,208.86Z" transform="translate(228.67 -191.3)"/>
    <path class="cls-1" d="M-167.52,203.3a10.56,10.56,0,0,0-10.55,10.54,10.56,10.56,0,0,0,10.55,10.54A10.55,10.55,0,0,0-157,213.84,10.55,10.55,0,0,0-167.52,203.3Zm0,19.92a9.35,9.35,0,0,1-6.64-2.75,9.35,9.35,0,0,1-2.75-6.63,9.33,9.33,0,0,1,2.75-6.63,9.35,9.35,0,0,1,6.64-2.75,9.33,9.33,0,0,1,6.63,2.75,9.29,9.29,0,0,1,2.75,6.63,9.3,9.3,0,0,1-2.75,6.63A9.33,9.33,0,0,1-167.52,223.22Z" transform="translate(228.67 -191.3)"/>
    <path class="cls-1" d="M-159.86,213.41H-162a.56.56,0,0,0-.56.56.56.56,0,0,0,.56.56h2.15a.57.57,0,0,0,.56-.56A.57.57,0,0,0-159.86,213.41Z" transform="translate(228.67 -191.3)"/>
    <path class="cls-1" d="M-167.68,219.08a.56.56,0,0,0-.56.56v2.15a.56.56,0,0,0,.56.56.56.56,0,0,0,.56-.56v-2.15A.56.56,0,0,0-167.68,219.08Z" transform="translate(228.67 -191.3)"/>
    <path class="cls-1" d="M-167.52,201.56a12.28,12.28,0,0,0-12.27,12.26,12.28,12.28,0,0,0,12.27,12.26,12.28,12.28,0,0,0,12.27-12.26A12.28,12.28,0,0,0-167.52,201.56Zm0,23.37a11.06,11.06,0,0,1-7.86-3.26,11,11,0,0,1-3.25-7.85,11,11,0,0,1,3.25-7.84,11.06,11.06,0,0,1,7.86-3.26,11,11,0,0,1,7.85,3.26,11,11,0,0,1,3.26,7.84,11,11,0,0,1-3.26,7.85A11,11,0,0,1-167.52,224.93Z" transform="translate(228.67 -191.3)"/>
    <path class="cls-1" d="M-163.28,217.58a.56.56,0,0,0-.79,0,.57.57,0,0,0,0,.8l1.52,1.52a.55.55,0,0,0,.4.16.54.54,0,0,0,.39-.16.57.57,0,0,0,0-.8Z" transform="translate(228.67 -191.3)"/>
    <path class="cls-1" d="M-162.53,216.17a.47.47,0,0,0,.17,0,.55.55,0,0,0,.53-.39.55.55,0,0,0-.36-.7l-4.37-1.4,0-.11,2.1-2.1a.51.51,0,0,0,.16-.39.52.52,0,0,0-.16-.4.57.57,0,0,0-.79,0l-2.15,2.15a1.16,1.16,0,0,0-1.4,1.12,1.15,1.15,0,0,0,1.15,1.15,1.13,1.13,0,0,0,.8-.34l4.35,1.39Z" transform="translate(228.67 -191.3)"/>
  </g>
</svg>
