<svg id="Слой_1" data-name="Слой 1" xmlns="http://www.w3.org/2000/svg" viewBox="0 0 409.49 294.61">
  <defs>
    <style>
      .cls-1 {
        fill: #fff;
      }
    </style>
  </defs>
  <title>form-check</title>
  <path class="cls-1" d="M-626.4-222c1.76-7.5,4.55-14.46,10.48-19.74,13.94-12.43,32.64-11.54,46.58,2.36q43.46,43.35,86.81,86.83a46.27,46.27,0,0,1,3.42,4.53c1.72-2.17,2.6-3.53,3.72-4.65q100.65-100.71,201.33-201.39c10-10,21.6-13.74,35.35-9.44,20.47,6.39,28.67,33.46,15.2,50.15a71.57,71.57,0,0,1-5,5.67Q-341.23-194.94-453.91-82.23c-10.1,10.1-21.81,14.45-35.58,9.55a38.23,38.23,0,0,1-13.57-8.76c-37.69-37.34-75.12-74.95-112.69-112.43A39.5,39.5,0,0,1-626.4-214Z" transform="translate(626.4 365.27)"/>
</svg>
