<svg id="Режим_изоляции" data-name="Режим изоляции" xmlns="http://www.w3.org/2000/svg" viewBox="0 0 25.79 24.94">
  <defs>
    <style>
      .cls-1 {
        fill: none;
        stroke: #fff;
        stroke-linecap: round;
        stroke-linejoin: round;
        stroke-width: 1.2px;
      }
    </style>
  </defs>
  <title>step-3</title>
  <g>
    <g>
      <path class="cls-1" d="M-84,8.43l-1.19-2L-83.79,5l2,1.19h0a5.61,5.61,0,0,1,1.21-.5L-80,3.47h2l.56,2.24a5.61,5.61,0,0,1,1.21.5h0l2-1.19,1.43,1.43-1.19,2h0a5.17,5.17,0,0,1,.51,1.21l2.24.56v2l-2.24.56A5.17,5.17,0,0,1-74,14h0l1.19,2-1.43,1.43-2-1.19h0a5.17,5.17,0,0,1-1.21.51L-78,19h-2l-.56-2.24a5.17,5.17,0,0,1-1.21-.51h0l-2,1.19L-85.22,16-84,14h0a5.17,5.17,0,0,1-.51-1.21l-2.24-.56v-2l2.24-.56A5.17,5.17,0,0,1-84,8.43Z" transform="translate(87.37 -2.87)"/>
      <circle class="cls-1" cx="8.34" cy="8.34" r="2.58"/>
    </g>
    <g>
      <path class="cls-1" d="M-70.67,20.19l-.8-1.32,1-.95,1.32.79h0a3.39,3.39,0,0,1,.81-.34l.37-1.49h1.35l.37,1.49a3.23,3.23,0,0,1,.81.34h0l1.32-.79,1,.95L-64,20.19h0a3.62,3.62,0,0,1,.33.81l1.5.37v1.35l-1.5.37a3.62,3.62,0,0,1-.33.81h0l.79,1.32-1,1-1.32-.79h0a3.62,3.62,0,0,1-.81.33l-.37,1.5H-68l-.37-1.5a3.83,3.83,0,0,1-.81-.33h0l-1.32.79-1-1,.8-1.32h0a3.23,3.23,0,0,1-.34-.81l-1.49-.37V21.37L-71,21a3.23,3.23,0,0,1,.34-.81Z" transform="translate(87.37 -2.87)"/>
      <circle class="cls-1" cx="20.03" cy="19.18" r="0.52"/>
    </g>
  </g>
</svg>
