<svg id="Слой_1" data-name="Слой 1" xmlns="http://www.w3.org/2000/svg" viewBox="0 0 24.35 23.79">
  <defs>
    <style>
      .cls-1 {
        fill: none;
        stroke: #fff;
        stroke-linecap: round;
        stroke-linejoin: round;
        stroke-width: 1.2px;
      }
    </style>
  </defs>
  <title>step-2</title>
  <g>
    <g>
      <polyline class="cls-1" points="9.05 10.66 4.91 6.52 4.89 6.51"/>
      <polygon class="cls-1" points="5.57 5.86 4.15 7.28 2.02 6.57 0.6 3.73 2.02 2.31 4.86 3.73 5.57 5.86"/>
      <path class="cls-1" d="M-19.27,16.79l4.87,4.88a3,3,0,0,1,.88,2.12,3,3,0,0,1-.88,2.13,3,3,0,0,1-4.26,0l-4.87-4.87" transform="translate(34.89 -3.81)"/>
    </g>
    <path class="cls-1" d="M-23,12l-9.88,9.89A3,3,0,0,0-33.73,24a3,3,0,0,0,.88,2.13,3,3,0,0,0,4.27,0l5-5.07,4.26-4.26.55-.55" transform="translate(34.89 -3.81)"/>
    <path class="cls-1" d="M-11.35,8.88a6,6,0,0,1-1.55,5.81,6,6,0,0,1-8.51,0,6,6,0,0,1,0-8.52A6,6,0,0,1-15.6,4.62" transform="translate(34.89 -3.81)"/>
    <polyline class="cls-1" points="23.55 5.06 20.72 7.33 17.36 7.08 17.03 3.44 19.29 0.81"/>
  </g>
</svg>
