<svg id="Слой_1" data-name="Слой 1" xmlns="http://www.w3.org/2000/svg" viewBox="0 0 320.71 320.95">
  <defs>
    <style>
      .cls-1 {
        fill: #b4b4b4;
      }
    </style>
  </defs>
  <title>card-zoom-image</title>
  <path class="cls-1" d="M146,123.89a28.3,28.3,0,0,1,3.76,2.7q27.75,27.66,55.44,55.38c4.6,4.59,6.69,9.91,5,16.33a15.9,15.9,0,0,1-25.72,8.17c-1.06-.87-2-1.87-3-2.84q-27.47-27.42-54.9-54.86c-.87-.88-1.79-1.71-2.83-2.7C86.29,174.41,44.7,184.19-1,173c-35.42-8.68-63.36-28.82-84-58.81-40.52-58.81-30.59-140.1,22.77-187.72C-7-122.85,74-123.18,129.87-73.86,184.81-25.38,196,60.37,146,123.89Zm0-90.25C146.43-28,96.59-78.18,34.64-78.55A111.71,111.71,0,0,0-77.95,32.81,112,112,0,0,0,33.8,145.49C95.47,145.82,145.66,95.81,146,33.64Z" transform="translate(109.9 110.69)"/>
</svg>
