<svg id="Слой_1" data-name="Слой 1" xmlns="http://www.w3.org/2000/svg" viewBox="0 0 166.59 295.1">
  <defs>
    <style>
      .cls-1 {
        fill: #fff;
      }
    </style>
  </defs>
  <title>category-scroll_down</title>
  <path class="cls-1" d="M1290.73,168c0-11.17-.07-22.33,0-33.5.28-41.95,28.4-75.38,69.68-82.89C1408,43,1455,79.94,1456.91,128.22c.82,20.27-.07,40.62-.19,60.94,0,6.16-.1,12.33-.13,18.49-.09,19.23-7.07,36-19.76,50-23.68,26.17-53.32,35.14-87,25-33.51-10.13-52.7-34.11-58.47-68.63a79.69,79.69,0,0,1-.67-12.47c-.08-11.16,0-22.33,0-33.49Zm158.75,0h-.26c0-11.16.16-22.33-.07-33.49a86,86,0,0,0-1.61-16.35A75.3,75.3,0,0,0,1365,59c-37.41,4.18-66,36.54-66.2,75-.1,22.83,0,45.65,0,68.48a60.91,60.91,0,0,0,.38,9c4.79,31.78,22.1,53.92,52.81,63.36,30.94,9.51,57.9.89,79.48-23.27,11.14-12.46,16.83-27.62,17.85-44.13C1450.13,194.32,1449.48,181.13,1449.48,168Z" transform="translate(-1290.66 -50.35)"/>
  <path class="cls-1" d="M1345.15,308.29a37.1,37.1,0,0,1,4.66,3.3c6.89,6.76,13.67,13.63,20.51,20.45,4.19,4.18,3.4,3.92,7.2.15,6.5-6.45,13-12.94,19.43-19.42.82-.82,1.62-1.67,2.49-2.44,1.85-1.63,3.9-2.05,5.8-.25s1.62,3.88,0,5.78c-1,1.14-2.09,2.15-3.14,3.21-8,8-16,16-24,24-3.17,3.12-4.95,3.17-8,.13-8.88-8.77-17.74-17.57-26.42-26.54a7.8,7.8,0,0,1-1.65-5.2C1342,310.48,1343.82,309.55,1345.15,308.29Z" transform="translate(-1290.66 -50.35)"/>
  <path class="cls-1" d="M1389.92,114.42c0,3.17.15,6.34,0,9.5a15.75,15.75,0,0,1-16.12,15.1,15.58,15.58,0,0,1-15.65-15c-.27-6.66-.25-13.34,0-20a15.9,15.9,0,0,1,31.76-.08C1390.08,107.41,1389.92,110.92,1389.92,114.42Zm-23.85-.82h0c0,3.32-.22,6.66.05,10A7.88,7.88,0,0,0,1374,131a7.74,7.74,0,0,0,7.81-7.5c.29-6.29.28-12.61,0-18.91a7.73,7.73,0,0,0-7.63-7.67c-4.34-.12-7.74,3-8.1,7.72C1365.89,107.62,1366.07,110.62,1366.07,113.6Z" transform="translate(-1290.66 -50.35)"/>
</svg>
