<svg id="Слой_1" data-name="Слой 1" xmlns="http://www.w3.org/2000/svg" xmlns:xlink="http://www.w3.org/1999/xlink" viewBox="0 0 20 20">
  <defs>
    <style>
      .cls-1 {
        fill: none;
      }

      .cls-2 {
        clip-path: url(#clip-path);
      }

      .cls-3 {
        fill: #79797a;
        fill-rule: evenodd;
      }
    </style>
    <clipPath id="clip-path" transform="translate(0 0)">
      <rect class="cls-1" width="20" height="20"/>
    </clipPath>
  </defs>
  <title>ftr-inst</title>
  <g class="cls-2">
    <path class="cls-3" d="M0,4A4,4,0,0,1,4,0H16a4,4,0,0,1,4,4V16a4,4,0,0,1-4,4H4a4,4,0,0,1-4-4ZM4,2A2,2,0,0,0,2,4V16a2,2,0,0,0,2,2H16a2,2,0,0,0,2-2V4a2,2,0,0,0-2-2Zm6,5a3,3,0,1,0,2.12.88A3,3,0,0,0,10,7M5,10a5,5,0,1,1,1.46,3.54A5,5,0,0,1,5,10M15.5,6a1.5,1.5,0,1,0-1.06-.44A1.5,1.5,0,0,0,15.5,6" transform="translate(0 0)"/>
  </g>
</svg>
