<svg id="Слой_1" data-name="Слой 1" xmlns="http://www.w3.org/2000/svg" viewBox="0 0 21.5 21">
  <defs>
    <style>
      .cls-1 {
        fill: #79797a;
        fill-rule: evenodd;
      }
    </style>
  </defs>
  <title>ftr-viber</title>
  <path class="cls-1" d="M3.5,12a8.49,8.49,0,1,1,4,7.19,1,1,0,0,0-.4-.15,1,1,0,0,0-.42,0l-2.88.86L4.84,17.4a1,1,0,0,0,.08-.47.89.89,0,0,0-.15-.45A8.55,8.55,0,0,1,3.5,12ZM12,1.5A10.51,10.51,0,0,0,2.8,17.07l-1.72,4a1,1,0,0,0-.07.55,1.09,1.09,0,0,0,.24.51,1,1,0,0,0,.48.29,1.06,1.06,0,0,0,.56,0l4.5-1.34A10.5,10.5,0,1,0,12,1.5Zm2.29,12.68L13,15.11a9.48,9.48,0,0,1-2-1.52,10.36,10.36,0,0,1-1.62-2.12l.83-.71a1,1,0,0,0,.34-.57,1.07,1.07,0,0,0-.1-.66l-1.07-2a1.05,1.05,0,0,0-.29-.34A.88.88,0,0,0,8.68,7a.93.93,0,0,0-.44,0,1,1,0,0,0-.4.21l-.31.27a2.66,2.66,0,0,0-.84,2.85A12,12,0,0,0,9.59,15a10.5,10.5,0,0,0,4.73,2.81,2.6,2.6,0,0,0,2.27-.55l.59-.49a1,1,0,0,0,.28-.37.86.86,0,0,0,.08-.47,1,1,0,0,0-.48-.79l-1.68-1a1,1,0,0,0-.55-.14,1.05,1.05,0,0,0-.54.18Z" transform="translate(-1 -1.5)"/>
</svg>
