<svg id="Слой_1" data-name="Слой 1" xmlns="http://www.w3.org/2000/svg" xmlns:xlink="http://www.w3.org/1999/xlink" viewBox="0 0 20 20">
  <defs>
    <style>
      .cls-1 {
        fill: none;
      }

      .cls-2 {
        clip-path: url(#clip-path);
      }

      .cls-3 {
        fill: #79797a;
        fill-rule: evenodd;
      }
    </style>
    <clipPath id="clip-path" transform="translate(0 0)">
      <rect class="cls-1" width="20" height="20"/>
    </clipPath>
  </defs>
  <title>ftr-fb</title>
  <g class="cls-2">
    <path class="cls-3" d="M0,4A4,4,0,0,1,4,0H16a4,4,0,0,1,4,4V16a4,4,0,0,1-4,4H4a4,4,0,0,1-4-4ZM4,2A2,2,0,0,0,2,4V16a2,2,0,0,0,2,2h6V11H9a1,1,0,0,1-.71-.29A1,1,0,0,1,9,9h1V7.5A3.48,3.48,0,0,1,13.5,4h.6a1,1,0,0,1,.71.29,1,1,0,0,1,0,1.42A1.05,1.05,0,0,1,14.1,6h-.6a1.56,1.56,0,0,0-.57.11,1.54,1.54,0,0,0-.82.82A1.56,1.56,0,0,0,12,7.5V9h2.1a1,1,0,0,1,.71.29,1,1,0,0,1,0,1.42,1.05,1.05,0,0,1-.71.29H12v7h4a2,2,0,0,0,2-2V4a2,2,0,0,0-2-2Z" transform="translate(0 0)"/>
  </g>
</svg>
