<svg id="Слой_1" data-name="Слой 1" xmlns="http://www.w3.org/2000/svg" viewBox="0 0 22 22">
  <defs>
    <style>
      .cls-1 {
        fill: none;
        stroke: #79797a;
        stroke-miterlimit: 10;
        stroke-width: 2px;
      }

      .cls-2 {
        fill: #797979;
      }
    </style>
  </defs>
  <title>ftr-telegram</title>
  <circle class="cls-1" cx="11" cy="11" r="10"/>
  <path class="cls-2" d="M-21.21,8.61c-.05.26-.11.51-.15.77-.32,1.7-.63,3.39-.94,5.09-.15.77-.29,1.54-.43,2.31a.55.55,0,0,1-.87.36l-3.46-2.85-.06-.06.06,0,4.25-4.11a1.07,1.07,0,0,0,.14-.16s0-.11,0-.14a.15.15,0,0,0-.13,0,.7.7,0,0,0-.23.11l-2.44,1.66c-1,.66-1.94,1.32-2.9,2a.19.19,0,0,1-.18,0l-2-.72a.69.69,0,0,1-.34-.25.3.3,0,0,1,0-.42.78.78,0,0,1,.26-.17l7.37-3.1,1.23-.52a2,2,0,0,1,.4-.11c.19,0,.26,0,.34.22Z" transform="translate(36.41 -1.44)"/>
</svg>
