<svg id="transport" xmlns="http://www.w3.org/2000/svg" viewBox="0 0 18.03 25">
  <defs>
    <style>
      .cls-1 {
        fill: none;
        stroke: #fff;
        stroke-miterlimit: 10;
        stroke-width: 2px;
      }
    </style>
  </defs>
  <title>mobile-call</title>
  <path id="handset" class="cls-1" d="M971.15-183.5l.06.1.06.11C975-176.81,981.4-173,982.59-175l1.5-2.85a.84.84,0,0,0-.06-.81v0c-.21-.41-.4-.42-1.5-1.15-.57-.42-1.17-.89-1.58-1.24a.94.94,0,0,0-1.26-.05l-.61.61a1.16,1.16,0,0,1-.8.32c-.89,0-2.59-2.42-3.54-3.9-.27-.42-.48-.77-.6-1s-.32-.58-.55-1c-.8-1.57-2-4.25-1.57-5a1.05,1.05,0,0,1,.68-.52l.84-.23a.94.94,0,0,0,.59-1.11c-.1-.52-.19-1.28-.28-2-.07-1.31,0-1.48-.23-1.87v0a.84.84,0,0,0-.68-.46l-3.22-.15C967.39-197.44,967.44-190,971.15-183.5Z" transform="translate(-967.13 198.46)"/>
</svg>
