<?xml version="1.0" encoding="utf-8"?><svg viewBox="0 0 409.49 294.61" xmlns="http://www.w3.org/2000/svg" xmlns:xlink="http://www.w3.org/1999/xlink"><style>:root>svg{display:none}:root>svg:target{display:block}</style><svg id="btn-arrow" data-name="Слой 1" viewBox="0 0 188.59 186.26" xmlns="http://www.w3.org/2000/svg"><defs><style>.acls-1{fill:none;stroke:#fff;stroke-width:6px}</style></defs><path class="acls-1" d="M185.59 0v183.26H0M18.13 16.45l167.46 166.81"/></svg><svg id="btn-arrow-black" data-name="Слой 1" viewBox="0 0 188.59 186.26" xmlns="http://www.w3.org/2000/svg"><defs><style>.bcls-1{fill:none;stroke:#050505;stroke-width:6px}</style></defs><path class="bcls-1" d="M185.59 0v183.26H0M18.13 16.45l167.46 166.81"/></svg><svg id="catalog-1" data-name="Режим изоляции" viewBox="0 0 83.73 56.02" xmlns="http://www.w3.org/2000/svg"><defs><style>.ccls-1{fill:#b9b9b9}</style></defs><path class="ccls-1" d="M790 604.89a.66.66 0 00.25.45.66.66 0 00.42.15h.07l5.44-.56a.67.67 0 00.61-.74.66.66 0 00-.74-.6l-5.45.56a.67.67 0 00-.6.74zm-2.26-1.8a.67.67 0 00.66.57h.11l5.33-.87a.68.68 0 00.56-.78.67.67 0 00-.27-.44.75.75 0 00-.5-.12l-5.34.88a.68.68 0 00-.55.76zm-3.05 12.8l4.93 1.2h.16a.74.74 0 00.35-.1.68.68 0 00-.19-1.24l-4.94-1.17a.65.65 0 00-.51.08.67.67 0 00-.31.41.69.69 0 00.51.82zm-7.17-.23l9.26 2.6h.18a.67.67 0 00.18-1.32l-9.26-2.6a.65.65 0 00-.51.06.69.69 0 00-.32.41.67.67 0 00.47.85zm13.84-9.33a.69.69 0 000 .95.67.67 0 00.46.18l5.45-.23a.65.65 0 00.47-.22.65.65 0 00.17-.48.68.68 0 00-.7-.65l-5.45.23a.72.72 0 00-.4.22zm2.08 7.47l-5.26-.91a.61.61 0 00-.5.11.66.66 0 00-.28.43.71.71 0 00.11.51.67.67 0 00.44.27l5.26.92h.11a.67.67 0 00.12-1.34zm-9.6 4.34l-4.36-1.54a.65.65 0 00-.51 0 .65.65 0 00-.35.38.68.68 0 00.41.86l4.36 1.54a.59.59 0 00.23 0 .65.65 0 00.29-.07.64.64 0 00.34-.38.67.67 0 00-.41-.79z" transform="translate(-722.97 -579.66)"/><path class="ccls-1" d="M786.37 607.46a.68.68 0 00-.68.68.67.67 0 00.68.67h11.18a.68.68 0 000-1.35zm10.92 1.76l-5.45-.26a.67.67 0 00-.48.18.65.65 0 00-.22.47.65.65 0 00.17.48.63.63 0 00.47.22l5.44.26a.71.71 0 00.45-.18.69.69 0 00.22-.47.62.62 0 00-.18-.48.63.63 0 00-.42-.22zm-1.41 2.45l-5.42-.61a.67.67 0 00-.49.14.71.71 0 00-.25.46.67.67 0 00.59.74l5.41.61h.08a.67.67 0 00.53-1.09.71.71 0 00-.45-.25zM785 601.84h.15l5-1.18a.68.68 0 00.5-.81.67.67 0 00-.81-.5l-5 1.18a.67.67 0 00.16 1.33zm-36.76-3.35a.68.68 0 00.33.09.66.66 0 00.59-.34l1-1.74a.7.7 0 00.07-.51.73.73 0 00-.32-.41.65.65 0 00-.51-.06.66.66 0 00-.41.32l-1 1.73a.67.67 0 00.25.92zm5.08-.65a.64.64 0 00.41-.14l2.36-1.86a.66.66 0 00.25-.45.67.67 0 00-1.09-.61l-2.35 1.86a.67.67 0 00-.26.45.67.67 0 00.68.75zm-5.01 22.35a.69.69 0 00.35.38.71.71 0 00.28.06 1 1 0 00.24 0 .68.68 0 00.4-.87l-.64-1.71a.69.69 0 00-.87-.4.7.7 0 00-.37.35.63.63 0 000 .52zM774.4 619l4.1 1.73a.58.58 0 00.26 0 .56.56 0 00.25 0 .63.63 0 00.37-.36.67.67 0 000-.52.64.64 0 00-.36-.36l-4.09-1.73a.68.68 0 00-.89.35.69.69 0 00.36.89zM743 598.54l-.5 2.61a.67.67 0 00.53.79h.13a.67.67 0 00.66-.54l.4-2a.72.72 0 00.11.15.67.67 0 001.16-.45v-1.54a.69.69 0 00-.66-.69.66.66 0 00-.47.19.63.63 0 00-.2.47v.72a.61.61 0 00-.37-.2.68.68 0 00-.79.49z" transform="translate(-722.97 -579.66)"/><path class="ccls-1" d="M804.65 602.49c-1.93-2.58-5.1-4.89-9.42-6.86a61.92 61.92 0 00-14.66-4.3 21.07 21.07 0 01-.79-4.14c-.06-.91-.1-1.76-.1-2.51a8.77 8.77 0 01.45-3.52.54.54 0 01.06-.11l.12-.09h.1a.66.66 0 00.25-.75.68.68 0 00-.47-.45h-.42a1.05 1.05 0 00-.26.13 1.19 1.19 0 00-.23.22l-14 10.07a.65.65 0 00-.39-.12c-11.09 0-21.53 1.84-29.39 5.17a28.47 28.47 0 00-9 5.71 10.32 10.32 0 00-3.43 7.29v9.32a10.32 10.32 0 003.43 7.29c3.2 3.2 8.46 5.92 15.22 7.87a85.65 85.65 0 0023.21 3c11.09 0 21.53-1.84 29.39-5.18a28.4 28.4 0 009-5.7 10.36 10.36 0 003.43-7.29v-9.32a9.45 9.45 0 00-2.1-5.73zm-26.22-15.21a23.47 23.47 0 00.94 4.77v.11c.41 1.43.9 2.89 1.39 4.34l.09.25c.37 1.12.72 2.16 1 3.14a1.11 1.11 0 000 .17.51.51 0 00.09.18 17.9 17.9 0 011 4.91 4.37 4.37 0 01-.15 1.22 2.47 2.47 0 01-.41.69l-.17.22h-38.53l34.79-25a18.14 18.14 0 00-.14 2.4c0 .78.04 1.66.1 2.6zm-37.24 20.12a.68.68 0 00.4 1.23h41a.72.72 0 00.5-.22l.44-.53a3.91 3.91 0 00.63-1.14 5.53 5.53 0 00.2-1.59 17.91 17.91 0 00-.88-4.82l3.6-1a.66.66 0 00.41-.32.65.65 0 00.06-.51.66.66 0 00-.32-.41.65.65 0 00-.51-.06l-3.63 1c0-.13-.09-.27-.13-.4l1.13-.39a.68.68 0 00-.44-1.28l-1.12.38c-.09-.27-.18-.55-.28-.84l-.06-.19c-.11-.31-.21-.62-.32-.94a39.43 39.43 0 0113.25 5.35 14.06 14.06 0 013.72 3.58 6.84 6.84 0 011.27 3.83 7.84 7.84 0 01-2.63 5.46c-2.6 2.61-7.12 4.93-12.73 6.54a73.26 73.26 0 01-19.88 2.59c-9.49 0-18.4-1.57-25.11-4.43a23.59 23.59 0 01-7.49-4.7 7.8 7.8 0 01-2.63-5.46 7.63 7.63 0 012.39-5.22c2.39-2.53 6.42-4.74 11.66-6.4a68.2 68.2 0 0116.67-2.85zm21.07-15.13h-.21c-9.08.3-17.52 2-23.78 4.89A23.35 23.35 0 00731 602a8.94 8.94 0 00-2.76 6.15 9.05 9.05 0 003 6.41c2.81 2.81 7.41 5.19 13.32 6.89a74.36 74.36 0 0020.25 2.64c9.67 0 18.78-1.61 25.66-4.53a25 25 0 007.92-5 9.09 9.09 0 003-6.41 8.06 8.06 0 00-1.5-4.58 18.47 18.47 0 00-6.91-5.64 46.46 46.46 0 00-11.14-3.93.73.73 0 00-.44 0c-.14-.42-.28-.85-.41-1.28 7 1.29 13 3.37 17.39 6.05a18.43 18.43 0 015.18 4.47 8.14 8.14 0 011.79 4.9 9 9 0 01-3 6.33c-3 3-8.18 5.68-14.63 7.53a84.52 84.52 0 01-22.85 3c-10.91 0-21.16-1.8-28.85-5.07a27.2 27.2 0 01-8.61-5.42 8.12 8.12 0 010-12.67c3-3 8.18-5.67 14.63-7.52a83.23 83.23 0 0121.51-3zm-35.86 23.2c3.2 3.21 8.46 5.93 15.22 7.87a85.25 85.25 0 0023.21 3c11.09 0 21.53-1.84 29.39-5.18a28.24 28.24 0 009-5.71 14 14 0 002.08-2.62 9.12 9.12 0 01-3 6.19c-3 3-8.18 5.68-14.63 7.53a84.5 84.5 0 01-22.84 3c-10.91 0-21.15-1.8-28.85-5.07a27.2 27.2 0 01-8.61-5.42 9.08 9.08 0 01-3-6.2 13.33 13.33 0 002.03 2.61zm-2.08 1.89a13.67 13.67 0 002.08 2.64c3.2 3.2 8.46 5.92 15.22 7.87a85.65 85.65 0 0023.21 3c11.09 0 21.53-1.84 29.39-5.18a28.4 28.4 0 009-5.7 14.35 14.35 0 002.08-2.63v.14a9 9 0 01-3 6.33c-3 3-8.18 5.68-14.63 7.53a84.5 84.5 0 01-22.84 3c-10.91 0-21.15-1.8-28.85-5.07a27.2 27.2 0 01-8.61-5.42 9 9 0 01-3-6.33z" transform="translate(-722.97 -579.66)"/><path class="ccls-1" d="M743.24 618.12a.66.66 0 00.49.16.62.62 0 00.42-.2v.53a.69.69 0 00.61.73h.07a.62.62 0 00.43-.16.65.65 0 00.24-.45l.14-1.52a.7.7 0 00-.62-.74.69.69 0 00-.68.41l-.15-1.93a.69.69 0 00-.24-.46.76.76 0 00-.49-.16.69.69 0 00-.46.24.68.68 0 00-.16.49l.21 2.6a.65.65 0 00.19.46zm22.1 2.01l3.92 1.92a.66.66 0 00.3.07.67.67 0 00.3-1.28l-3.93-1.92a.67.67 0 10-.59 1.21zm-10.96 1.22a.65.65 0 00.46.19.67.67 0 00.47-1.16l-1.92-1.84a.66.66 0 00-.95 0 .66.66 0 00-.19.48.64.64 0 00.21.47zm15.62-1.63l4 1.86a.67.67 0 00.28.06.59.59 0 00.23 0 .66.66 0 00.38-.35.63.63 0 000-.52.65.65 0 00-.35-.38l-4-1.85a.66.66 0 00-.89.33.63.63 0 000 .52.64.64 0 00.35.33zm-11.87.36l3.16 1.92a.64.64 0 00.35.1h.16a.66.66 0 00.42-.31.69.69 0 00.08-.51.67.67 0 00-.31-.41l-3.16-1.92a.65.65 0 00-.51-.08.71.71 0 00-.42.3.7.7 0 00.23.93zm.98-1.64l6.55 3.68a.8.8 0 00.33.08h.19a.71.71 0 00.4-.32.67.67 0 00-.26-.92l-6.55-3.68a.69.69 0 00-.92.26.77.77 0 00-.06.52.71.71 0 00.32.38z" transform="translate(-722.97 -579.66)"/></svg><svg id="catalog-2" viewBox="0 0 147.85 86.73" xmlns="http://www.w3.org/2000/svg"><defs><style>.dcls-1{fill:#b9b9b9}</style></defs><path class="dcls-1" d="M-183.74 74.69a.81.81 0 00-.57-.23.8.8 0 00-.56.24.79.79 0 00-.23.57.76.76 0 00.24.56l4.27 4.21a.82.82 0 00.56.23.78.78 0 00.57-.24.79.79 0 00.23-.57.8.8 0 00-.24-.56zm-.14 15.11a.79.79 0 00-.79-.79h-5.65a.79.79 0 00-.8.79.8.8 0 00.8.8h5.65a.79.79 0 00.79-.8zm14.11-14.11a.79.79 0 00.79-.8v-5.65a.79.79 0 00-.79-.8.8.8 0 00-.8.8v5.65a.8.8 0 00.8.8zm9.98 4.14a.8.8 0 00.56.23.8.8 0 00.56-.23l4-4a.8.8 0 000-1.13.79.79 0 00-.56-.23.8.8 0 00-.57.24l-4 4a.8.8 0 000 1.13zm.26-.27zm.86 20.22a.8.8 0 00-1.13 0 .8.8 0 000 1.13l4 4a.78.78 0 00.57.23.76.76 0 00.56-.23.8.8 0 000-1.13z" transform="translate(240.47 -38.86)"/><path class="dcls-1" d="M-169.33 56a33.42 33.42 0 00-33.39 33.4 33.41 33.41 0 0020.91 30.94h-.08a.88.88 0 00-.87.88v2.43a1.46 1.46 0 01-.4.14 5.49 5.49 0 01-.71.08h-.21a.49.49 0 010-.14l-.64-3.77a.87.87 0 00-.36-.57.84.84 0 00-.65-.15.9.9 0 00-.57.36.88.88 0 00-.15.65l.63 3.61a2.33 2.33 0 00.14.75 1.61 1.61 0 00.88.86 2.77 2.77 0 00.95.17 5.13 5.13 0 001.5-.24 2.47 2.47 0 00.85-.49 1.59 1.59 0 00.5-1.14v-2.57a.86.86 0 00-.36-.68 33.45 33.45 0 0012 2.25 33.28 33.28 0 0011.2-1.94.84.84 0 00-.15.46v2.34a1.66 1.66 0 00.36 1.06 2.15 2.15 0 001.13.69 4.06 4.06 0 001 .13 2.21 2.21 0 001.29-.36 1.58 1.58 0 00.52-.67 1.77 1.77 0 00.15-.73l.47-3.48a.86.86 0 00-.75-1 .88.88 0 00-1 .75l-.47 3.48v.12a.28.28 0 010 .1h-.22a2.14 2.14 0 01-.69-.12h-.06v-2.32a.87.87 0 00-.63-.83 33.41 33.41 0 0021.27-31.05A33.42 33.42 0 00-169.33 56zm31.64 33.36a31.38 31.38 0 01-9.31 22.39 31.46 31.46 0 01-22.33 9.25 31.5 31.5 0 01-22.37-9.27A31.41 31.41 0 01-201 89.4a31.39 31.39 0 019.27-22.34 31.46 31.46 0 0122.37-9.27A31.42 31.42 0 01-147 67.06a31.36 31.36 0 019.31 22.34z" transform="translate(240.47 -38.86)"/><path class="dcls-1" d="M-169.33 60.87a28.63 28.63 0 00-28.6 28.57 28.62 28.62 0 0028.6 28.56 28.6 28.6 0 0028.59-28.57 28.61 28.61 0 00-28.59-28.56zm26.84 28.57a26.62 26.62 0 01-7.87 19 26.67 26.67 0 01-19 7.86 26.66 26.66 0 01-19-7.86 26.63 26.63 0 01-7.88-19 26.61 26.61 0 017.88-19 26.63 26.63 0 0119-7.87 26.63 26.63 0 0119 7.87 26.6 26.6 0 017.87 19z" transform="translate(240.47 -38.86)"/><path class="dcls-1" d="M-155.67 89.8a.8.8 0 00.8.8h5.65a.79.79 0 00.79-.8.79.79 0 00-.79-.79h-5.65a.79.79 0 00-.8.79zm-24.1 9.96a.8.8 0 00-1.13 0l-.54.58c-.52.56-1.3 1.4-2 2.1l-.88.87a2 2 0 01-.25.2.79.79 0 00-.29.18.79.79 0 00-.23.57.79.79 0 00.23.56.83.83 0 00.57.24.8.8 0 00.37-.09 2.28 2.28 0 00.51-.36c.44-.38 1.17-1.12 2.24-2.26.74-.78 1.36-1.47 1.44-1.55a.8.8 0 00-.05-1.13zm-.25.28zm10.25 3.88a.8.8 0 00-.8.8v5.65a.8.8 0 00.8.8.79.79 0 00.79-.8v-5.65a.79.79 0 00-.79-.8zm13.98-8.92a.81.81 0 00.37-.09.77.77 0 00.39-.46.76.76 0 00-.05-.61.81.81 0 00-.47-.4l-11.71-3.74-.21-.37a2.57 2.57 0 00-.25-.65l.07-.06 5.79-5.78a.8.8 0 000-1.13.8.8 0 00-1.13 0l-5.78 5.78a1 1 0 00-.13.16 2.15 2.15 0 00-.87-.18 2.35 2.35 0 00-2.35 2.35 2.36 2.36 0 002.35 2.36 2.35 2.35 0 001.91-1l11.86 3.76a.67.67 0 00.21.06zM-169 89.8a.76.76 0 01-.75.76.76.76 0 01-.76-.76.76.76 0 01.76-.75.76.76 0 01.75.75zm1.75-.13h-.16a.2.2 0 000-.07zM-233 54.6a.5.5 0 00-.42-.22h-3.26a.49.49 0 00-.41.22l-3.26 4.89a.51.51 0 00-.07.4l1.63 6.52a.51.51 0 00.48.38h2.77v30.47h1V66.79h2.75a.51.51 0 00.49-.38l1.63-6.52a.51.51 0 00-.07-.4zm-3.41.78h2.73l2.66 4h-8.05zm4.23 10.41h-5.73l-1.36-5.42h8.45zm24.04-.35a14.05 14.05 0 00-3.13-8.2 10.15 10.15 0 001.5-4.84c0-2.54-1.54-4.95-3.28-5.33-.12-1.77-1-8.21-7-8.21-2.17 0-5.39 2.26-5.39 7.09a4.2 4.2 0 001.11 3c-1.56.57-4.37 2.23-4.37 6.74a7.94 7.94 0 003.06 6.72 9.69 9.69 0 00-1.15 7.45c.93 3.7 3.66 5.7 7.87 5.86v10.92h1V75.7a10.15 10.15 0 009.78-10.26zm-17.68 4.16a8.78 8.78 0 011.27-7 .48.48 0 00.1-.41.5.5 0 00-.26-.34s-3-1.61-3-6.14c0-5.32 4.34-6 4.53-6a.51.51 0 00.42-.42.5.5 0 00-.27-.52 3 3 0 01-1.41-2.77c0-4 2.55-6.09 4.39-6.09 5.94 0 6 7.34 6 7.66a.49.49 0 00.5.49c1.24 0 2.76 2 2.76 4.39a9.58 9.58 0 01-1.52 4.55.5.5 0 00.06.64 12.92 12.92 0 013.11 7.79 9.16 9.16 0 01-8.78 9.26v-17.4h-1V74.7c-3.75-.15-6.08-1.85-6.9-5.1z" transform="translate(240.47 -38.86)"/><path class="dcls-1" d="M-206.78 78.8a7.21 7.21 0 01-3 .79v-2.74h-1v2.73a7.14 7.14 0 01-3.64-1.17l-.56.83a8.13 8.13 0 004.2 1.34V85h1v-4.41a8.4 8.4 0 003.45-.9zm.28-22.21l-.83.56a31.26 31.26 0 014.49 11.63l1-.15a32.46 32.46 0 00-4.66-12.04zm94.62 13.25a9.7 9.7 0 00-1.12-7.45 8 8 0 003-6.72c0-4.51-2.82-6.17-4.38-6.74a4.15 4.15 0 001.12-3c0-4.83-3.22-7.09-5.39-7.09-6 0-6.88 6.44-7 8.21-1.75.38-3.28 2.79-3.28 5.33a10.15 10.15 0 001.5 4.84 14 14 0 00-3.13 8.2 10.15 10.15 0 009.78 10.26v10.96h1V75.7c4.25-.16 6.98-2.16 7.9-5.86zm-17.64-4.4a12.92 12.92 0 013.11-7.79.5.5 0 00.06-.64 9.42 9.42 0 01-1.54-4.61c0-2.36 1.51-4.39 2.76-4.39a.5.5 0 00.5-.49c0-.32.08-7.66 6-7.66 1.84 0 4.39 2.12 4.39 6.09a3 3 0 01-1.42 2.74.49.49 0 00-.27.53.49.49 0 00.42.42c.19 0 4.53.68 4.53 6 0 4.5-2.87 6.08-3 6.14a.47.47 0 00-.26.34.51.51 0 00.09.41 8.67 8.67 0 011.27 7c-.81 3.25-3.14 5-6.89 5.1V57.29h-1V74.7a9.16 9.16 0 01-8.75-9.26z" transform="translate(240.47 -38.86)"/><path class="dcls-1" d="M-124.26 78.41a7.08 7.08 0 01-3.63 1.17v-2.73h-1v2.74a7.21 7.21 0 01-3-.79l-.46.89a8.36 8.36 0 003.45.9V85h1v-4.42a8.16 8.16 0 004.2-1.34zm-7.9-21.82a32.32 32.32 0 00-4.65 12l1 .15a31.41 31.41 0 014.48-11.63zm38.53 23.66V84h-15.91v-3.75h-1v12.19h-5.84a.5.5 0 00-.5.5v6.34h1v-5.84h13.8v5.84h1v-5.84h7.45v5.84h1v-19zm-15.91 12.19V85h15.91v7.46z" transform="translate(240.47 -38.86)"/></svg><svg id="catalog-3" viewBox="0 0 119.34 115" xmlns="http://www.w3.org/2000/svg"><defs><style>.ecls-1{fill:#b9b9b9}</style></defs><path class="ecls-1" d="M-110.33 295.61h-5.52v-7.69a1 1 0 00-1-1h-3.34v-12a1 1 0 00-1-1h-1.18v-26.29h1.18a1 1 0 001-1v-7.69h3.34a1 1 0 001-1v-7.69h5.52a1 1 0 001-.73 1 1 0 00-.43-1.12l-58.67-36.94a1 1 0 00-1.06 0l-58.71 36.94a1 1 0 00-.43 1.12 1 1 0 001 .73h5.52v7.69a1 1 0 001 1h3.34v7.69a1 1 0 001 1h1.18v26.25h-1.18a1 1 0 00-1 1v12h-3.34a1 1 0 00-1 1v7.69h-5.52a1 1 0 00-1 1v8.69a1 1 0 001 1h117.34a1 1 0 001-1v-8.69a1 1 0 00-1.04-.96zm-11.86-8.69h-11v-11h11zm-81.58-13h-1.17v-26.29h1.17a1 1 0 001-1v-7.69h6.69v7.69a1 1 0 001 1h1.18v26.25h-1.18a1 1 0 00-1 1v12h-6.69v-12a1 1 0 00-1-1zm11.87 0v-26.29h6.69v26.25zm-2.18-28.25v-6.69h11v6.69zm0 30.25h11v11h-11zm12-2h-1.17v-26.29h1.25a1 1 0 001-1v-7.69h24v7.69a1 1 0 001 1h1.17v26.25H-156a1 1 0 00-1 1v12h-24v-12a1 1 0 00-1-1zm29.25 0v-26.29h6.69v26.25zm-2.17-28.29v-6.69h11v6.69zm0 30.25h11v11h-11zm12-2h-1.18v-26.25h1.18a1 1 0 001-1v-7.69h6.69v7.69a1 1 0 001 1h1.17v26.25h-1.17a1 1 0 00-1 1v12H-142v-12a1 1 0 00-.92-1zm18.55 0h-6.69v-26.25h6.69zm2.18-28.25h-11v-6.69h11zM-169 193.49l55.21 34.76h-110.42zm-51.15 36.76h102.3v6.69h-102.3zm4.34 8.69h11v6.69h-11zm2.18 8.69h6.69v26.25h-6.69zm-2.18 28.25h11v11h-11zm-4.34 13h102.3v6.69h-102.3zm108.82 15.38h-115.34v-6.69h115.34z" transform="translate(228.67 -191.3)"/><path class="ecls-1" d="M-174.52 256.32h11v16.39h2v-17.39a1 1 0 00-1-1h-13a1 1 0 00-1 1v17.39h2zm1.7-48.32a.51.51 0 00-.39-.16.59.59 0 00-.4.16.58.58 0 000 .8l1.62 1.6a.59.59 0 00.4.16.66.66 0 00.4-.17.56.56 0 000-.79zm.72 9.6l-.22.24c-.19.21-.49.53-.75.79l-.43.45a.57.57 0 00-.26.48.54.54 0 00.55.5h.25a1 1 0 00.24-.17 12.19 12.19 0 00.87-.88l.56-.59a.56.56 0 00.14-.41.59.59 0 00-.18-.39.56.56 0 00-.77-.02zm-1.21 1.85zm.29.27l-.09-.08.09-.07h.05a.28.28 0 01-.03.15zm.23-5.72a.56.56 0 00-.56-.56h-2.15a.56.56 0 00-.56.56.56.56 0 00.56.56h2.15a.56.56 0 00.56-.56zm9.12-3.48a.56.56 0 00.4-.17l1.51-1.52a.54.54 0 00.17-.4.52.52 0 00-.17-.39.51.51 0 00-.39-.16.54.54 0 00-.4.16l-1.52 1.52a.57.57 0 000 .8.59.59 0 00.4.16zm-4.01-1.66a.57.57 0 00.56-.56v-2.16a.56.56 0 00-.56-.56.56.56 0 00-.56.56v2.16a.57.57 0 00.56.56z" transform="translate(228.67 -191.3)"/><path class="ecls-1" d="M-167.52 203.3a10.56 10.56 0 00-10.55 10.54 10.56 10.56 0 0010.55 10.54A10.55 10.55 0 00-157 213.84a10.55 10.55 0 00-10.52-10.54zm0 19.92a9.35 9.35 0 01-6.64-2.75 9.35 9.35 0 01-2.75-6.63 9.33 9.33 0 012.75-6.63 9.35 9.35 0 016.64-2.75 9.33 9.33 0 016.63 2.75 9.29 9.29 0 012.75 6.63 9.3 9.3 0 01-2.75 6.63 9.33 9.33 0 01-6.63 2.75z" transform="translate(228.67 -191.3)"/><path class="ecls-1" d="M-159.86 213.41H-162a.56.56 0 00-.56.56.56.56 0 00.56.56h2.15a.57.57 0 00.56-.56.57.57 0 00-.57-.56zm-7.82 5.67a.56.56 0 00-.56.56v2.15a.56.56 0 00.56.56.56.56 0 00.56-.56v-2.15a.56.56 0 00-.56-.56z" transform="translate(228.67 -191.3)"/><path class="ecls-1" d="M-167.52 201.56a12.28 12.28 0 00-12.27 12.26 12.28 12.28 0 0012.27 12.26 12.28 12.28 0 0012.27-12.26 12.28 12.28 0 00-12.27-12.26zm0 23.37a11.06 11.06 0 01-7.86-3.26 11 11 0 01-3.25-7.85 11 11 0 013.25-7.84 11.06 11.06 0 017.86-3.26 11 11 0 017.85 3.26 11 11 0 013.26 7.84 11 11 0 01-3.26 7.85 11 11 0 01-7.85 3.26z" transform="translate(228.67 -191.3)"/><path class="ecls-1" d="M-163.28 217.58a.56.56 0 00-.79 0 .57.57 0 000 .8l1.52 1.52a.55.55 0 00.4.16.54.54 0 00.39-.16.57.57 0 000-.8zm.75-1.41a.47.47 0 00.17 0 .55.55 0 00.53-.39.55.55 0 00-.36-.7l-4.37-1.4v-.11l2.1-2.1a.51.51 0 00.16-.39.52.52 0 00-.16-.4.57.57 0 00-.79 0l-2.15 2.15a1.16 1.16 0 00-1.4 1.12 1.15 1.15 0 001.15 1.15 1.13 1.13 0 00.8-.34l4.35 1.39z" transform="translate(228.67 -191.3)"/></svg><svg id="catalog-4" viewBox="0 0 149.89 121.42" xmlns="http://www.w3.org/2000/svg"><defs><style>.fcls-1{fill:#b9b9b9}</style></defs><path class="fcls-1" d="M682.24 339.92a1.22 1.22 0 00-.09.92 1.19 1.19 0 00.59.71 1.16 1.16 0 00.57.15 1.12 1.12 0 00.35-.06l5.62-1.7a1.19 1.19 0 00.72-.58 1.23 1.23 0 00.09-.92 1.21 1.21 0 00-1.51-.81l-5.62 1.7a1.2 1.2 0 00-.72.59zm1.36 5.78a1.19 1.19 0 00-.25.89 1.2 1.2 0 00.46.81 1.17 1.17 0 00.74.26h.15l5.83-.7a1.2 1.2 0 001.06-1.34 1.22 1.22 0 00-1.34-1.06l-5.84.7a1.15 1.15 0 00-.81.44zm-3.66-11.16a1.21 1.21 0 001.15 1.59 1.16 1.16 0 00.54-.13l5.25-2.64a1.19 1.19 0 00.6-.7 1.21 1.21 0 00-1.69-1.46l-5.25 2.64a1.22 1.22 0 00-.6.7zm-3.51-5.29a1.21 1.21 0 001 1.36h.16a1.18 1.18 0 00.74-.25l4.67-3.56a1.21 1.21 0 00.22-1.7 1.16 1.16 0 00-.8-.46 1.14 1.14 0 00-.89.24l-4.67 3.57a1.22 1.22 0 00-.43.8zm13.89 27.82a1.21 1.21 0 00.16-2.41l-5.82-.77a1.22 1.22 0 00-.9.24 1.18 1.18 0 00-.46.8 1.21 1.21 0 001 1.36l5.83.77zm.32-7.74h-11.15a1.21 1.21 0 000 2.42h11.15a1.21 1.21 0 000-2.42zm-2.01 15.15a1.2 1.2 0 001.14-.83 1.21 1.21 0 00-.77-1.53l-5.58-1.84a1.23 1.23 0 00-.92.07 1.19 1.19 0 00-.6.7 1.21 1.21 0 00.77 1.53l5.58 1.84a1.21 1.21 0 00.38.06zm-2.2 4.17l-5.18-2.78a1.21 1.21 0 00-1.14 2.13l5.18 2.78a1.17 1.17 0 00.57.14 1.21 1.21 0 001.16-1.56 1.16 1.16 0 00-.59-.71zm-25.85-49.94a1.2 1.2 0 001.52-.77l1.85-5.58a1.23 1.23 0 00-.07-.92 1.27 1.27 0 00-.7-.61 1.25 1.25 0 00-.93.07 1.22 1.22 0 00-.6.7l-1.84 5.58a1.2 1.2 0 00.07.93 1.16 1.16 0 00.7.6zm-6.12-1.4h.16a1.22 1.22 0 00.73-.25 1.16 1.16 0 00.46-.8l.77-5.83a1.21 1.21 0 10-2.39-.31l-.77 5.82a1.17 1.17 0 00.24.9 1.2 1.2 0 00.8.47zm-4.39 5a1.21 1.21 0 001.21-1.21v-11.16a1.21 1.21 0 10-2.42 0v11.16a1.21 1.21 0 001.21 1.21zm20.74 1.9a1.17 1.17 0 00.74.26h.15a1.23 1.23 0 00.81-.45l3.63-4.62a1.21 1.21 0 00-1.9-1.5l-3.63 4.62a1.19 1.19 0 00-.25.89 1.15 1.15 0 00.45.8zm-1.14 5.53a1.21 1.21 0 001.21 1.2 1.19 1.19 0 00.86-.35l7.87-7.91a1.21 1.21 0 000-1.71 1.19 1.19 0 00-.86-.35 1.2 1.2 0 00-.85.36l-7.88 7.9a1.19 1.19 0 00-.35.86zm-3.78-8.74a1.18 1.18 0 00.57.15 1.23 1.23 0 001.07-.64l2.77-5.18a1.21 1.21 0 10-2.13-1.14l-2.77 5.18a1.18 1.18 0 00-.1.92 1.23 1.23 0 00.59.71zM646 317.26h.14a1.2 1.2 0 00.81-.46 1.19 1.19 0 00.25-.89l-.69-5.83a1.23 1.23 0 00-.45-.81 1.21 1.21 0 00-1.95 1.09l.69 5.84a1.21 1.21 0 001.2 1.06zm-6.53-5.93a1.21 1.21 0 00-.59-.72 1.18 1.18 0 00-.92-.09 1.2 1.2 0 00-.72.59 1.22 1.22 0 00-.09.92l1.7 5.62a1.28 1.28 0 00.59.72 1.26 1.26 0 00.57.14 1.34 1.34 0 00.35-.05 1.22 1.22 0 00.81-1.51zm6.21 72.44a1.26 1.26 0 00-.9.24 1.24 1.24 0 00-.46.81l-.77 5.82a1.21 1.21 0 001 1.36h.16a1.21 1.21 0 001.29-1l.77-5.83a1.22 1.22 0 00-1.09-1.4zm4.76-28.95a4.29 4.29 0 003.26-2l23.61 7.55a1.15 1.15 0 00.37.06A1.21 1.21 0 00678 358l-23.7-7.58a4.2 4.2 0 00-.72-2.29 1.4 1.4 0 00.39-.26l11.41-11.42a1.21 1.21 0 10-1.71-1.71l-11.38 11.46a1.24 1.24 0 00-.3.52 4.28 4.28 0 10-2.3 8.09zm-.37-6.14a1.86 1.86 0 11-1.86 1.86 1.86 1.86 0 011.86-1.86zm-17.19-34.95a1.16 1.16 0 00-.7-.6 1.18 1.18 0 00-.92.07 1.16 1.16 0 00-.6.7 1.18 1.18 0 00.06.92l2.65 5.25a1.19 1.19 0 001.08.66 1.2 1.2 0 001.14-.83 1.18 1.18 0 00-.06-.92zm17.19 65.05a1.21 1.21 0 00-1.21 1.2v11.17a1.21 1.21 0 002.42 0V380a1.21 1.21 0 00-1.21-1.22zm-10.51 3.59a1.22 1.22 0 00-1.53.77l-1.84 5.58a1.21 1.21 0 001.15 1.59 1.2 1.2 0 001.14-.83l1.85-5.58a1.22 1.22 0 00-.77-1.53zm21.72 1.07a1.18 1.18 0 00-.59-.72 1.22 1.22 0 00-.92-.09 1.2 1.2 0 00-.8 1.51l1.7 5.62a1.2 1.2 0 001.16.86 1.33 1.33 0 00.34-.05 1.25 1.25 0 00.72-.59 1.18 1.18 0 00.09-.92zm10.44-12.93a1.18 1.18 0 00-.85-.36 1.2 1.2 0 00-.86.36 1.17 1.17 0 00-.35.85 1.21 1.21 0 00.35.86l7.89 7.89a1.19 1.19 0 00.85.35 1.21 1.21 0 00.86-2.06zm.44 6.86a1.18 1.18 0 00-.8-.46 1.21 1.21 0 00-1.36 1 1.19 1.19 0 00.24.89l3.57 4.66a1.22 1.22 0 001 .48 1.2 1.2 0 00.74-.25 1.22 1.22 0 00.22-1.7zm10.76-.95a1.21 1.21 0 00-.21-1.7l-4.61-3.64a1.21 1.21 0 10-1.5 1.9l4.62 3.64a1.21 1.21 0 00.74.26 1.23 1.23 0 00.96-.46zm-28.01 7.66a1.17 1.17 0 00-.89-.25 1.23 1.23 0 00-.81.45 1.2 1.2 0 00-.25.89l.7 5.84a1.2 1.2 0 001.19 1.06h.15a1.2 1.2 0 00.81-.46 1.19 1.19 0 00.25-.89l-.7-5.83a1.15 1.15 0 00-.45-.81zm-25.58-7.2a1.25 1.25 0 00-.89-.26 1.18 1.18 0 00-.81.46l-3.63 4.61a1.22 1.22 0 00.2 1.7 1.18 1.18 0 00.75.26 1.21 1.21 0 00.95-.46l3.64-4.62a1.21 1.21 0 00-.21-1.69zm37.44 4.12a1.21 1.21 0 10-2.16 1.09l2.64 5.24a1.18 1.18 0 00.7.61 1.26 1.26 0 00.38.06 1.13 1.13 0 00.54-.13 1.2 1.2 0 00.61-.7 1.18 1.18 0 00-.07-.92zm-32.53-.91a1.22 1.22 0 00-.92-.09 1.2 1.2 0 00-.72.59l-2.77 5.18a1.22 1.22 0 00.5 1.64 1.25 1.25 0 00.56.14 1.19 1.19 0 001.07-.64l2.78-5.18a1.23 1.23 0 00.09-.92 1.21 1.21 0 00-.59-.72zm-4.42-48.74a1.18 1.18 0 00.85-.36 1.21 1.21 0 000-1.71l-8.44-8.28a1.21 1.21 0 00-1.7 1.72L629 331a1.19 1.19 0 00.82.35zm-10.37 4.01a1.21 1.21 0 001.16-1.56 1.21 1.21 0 00-.59-.72l-5.18-2.77a1.19 1.19 0 00-1.63.49 1.21 1.21 0 00.49 1.64l5.18 2.77a1.18 1.18 0 00.57.15zm6.87-17.78a1.21 1.21 0 00-2.16.58 1.22 1.22 0 00.24.89l3.58 4.66a1.17 1.17 0 00.8.47h.16a1.22 1.22 0 00.73-.25 1.23 1.23 0 00.47-.8 1.26 1.26 0 00-.24-.9zm-10.53 27.21L610 344a1.21 1.21 0 10-.32 2.39l5.83.77h.16a1.15 1.15 0 00.73-.25 1.21 1.21 0 00.47-.8 1.22 1.22 0 00-1.08-1.32zm-6.3 6.96h11.16a1.21 1.21 0 000-2.42h-11.16a1.21 1.21 0 000 2.42zm8.75-11.75a1.22 1.22 0 00-.77-1.53l-5.58-1.84a1.21 1.21 0 00-1.53.77 1.2 1.2 0 00.07.93 1.16 1.16 0 00.7.6l5.58 1.84a1.22 1.22 0 001.53-.77zm4.54-9.74h.15a1.17 1.17 0 00.8-.45 1.21 1.21 0 00-.2-1.7l-4.61-3.63a1.2 1.2 0 00-.89-.25 1.17 1.17 0 00-.81.45 1.22 1.22 0 00.2 1.7L622 330a1.17 1.17 0 00.78.26zm-2.58 36.28a1.23 1.23 0 00-.07-.92 1.27 1.27 0 00-.7-.61 1.25 1.25 0 00-.93.07l-5.24 2.65a1.2 1.2 0 00-.54 1.62 1.16 1.16 0 00.7.6 1 1 0 00.38.07 1.26 1.26 0 00.54-.13l5.25-2.65a1.21 1.21 0 00.61-.7zm3.26 4.4a1.21 1.21 0 00-1.69-.23l-4.67 3.58a1.22 1.22 0 00-.22 1.69 1.23 1.23 0 00.8.47h.16a1.24 1.24 0 00.74-.25l4.66-3.58a1.2 1.2 0 00.22-1.68zm3.86 4.31c1.46-1.55 2.69-2.91 2.84-3.08a1.21 1.21 0 00-.95-2 1.24 1.24 0 00-.84.4l.28.25-.3-.23-1.1 1.21c-.85.92-2.49 2.68-3.92 4.14-.75.76-1.34 1.34-1.76 1.73-.2.18-.37.33-.49.42l-.62-.1.19.33-.09.08a1.23 1.23 0 00-.35.85 1.19 1.19 0 00.35.86 1.27 1.27 0 00.87.37 1.33 1.33 0 00.58-.14 4 4 0 00.83-.58l.09-.08c.84-.74 2.28-2.2 4.39-4.43zm-10.54-20.75a1.23 1.23 0 00-.45-.81 1.2 1.2 0 00-.89-.25l-5.84.69a1.23 1.23 0 00-.81.45 1.21 1.21 0 00.21 1.7 1.17 1.17 0 00.74.26h.15l5.83-.69a1.21 1.21 0 001.06-1.35zm1.22 5.75a1.18 1.18 0 00-.59-.72 1.22 1.22 0 00-.92-.09l-5.62 1.7a1.24 1.24 0 00-.72.59 1.22 1.22 0 00-.09.92 1.24 1.24 0 00.59.72 1.26 1.26 0 00.57.14 1.41 1.41 0 00.35-.05l5.62-1.7a1.22 1.22 0 00.81-1.51zm104.8 9.35a5 5 0 00-1.46-.74l-.49-.21.21-.15.36-.3a7.4 7.4 0 001.18-1.13 2.5 2.5 0 00.4-2.49 2.62 2.62 0 00-2.12-1.59h-.24v-.93a2.32 2.32 0 00-3.85-1.82 6 6 0 00-1.7 1.8 34.48 34.48 0 01.27-3.76l.79.07 2.42.22a5.24 5.24 0 005-2.51 3.52 3.52 0 00.24-3.79 2.29 2.29 0 00-2.31-1.38 5 5 0 00-2.46.8 11.68 11.68 0 00-3.3 3l.48-3.58.68-.28c.6-.26 1.16-.49 1.74-.7a9.41 9.41 0 004.43-3.39 7 7 0 001-1.91 3.2 3.2 0 00-.32-2.74 2.09 2.09 0 00-2.81-.92 5.63 5.63 0 00-1.39.87 10.9 10.9 0 00-3 4l-.15-4.15c0-.34.08-.59.59-.81a11.37 11.37 0 004.45-3.34 6.94 6.94 0 001.56-3.62 4 4 0 00-.37-2.39 1.93 1.93 0 00-2.57-1 4.94 4.94 0 00-2.29 1.76 8.93 8.93 0 00-1.75 4.47l-.18 1.35c-.21-.93-.42-1.87-.62-2.81a1 1 0 010-.48 14.88 14.88 0 000-7.78 8.31 8.31 0 00-1.68-3.33 5.09 5.09 0 00-2.39-1.63 2.92 2.92 0 00-3.83 1.82 4.59 4.59 0 00-.28.9 6.72 6.72 0 001.41 5.68 9.56 9.56 0 003.29 2.8 3.24 3.24 0 011.83 2.18c.05.16.11.31.17.47a6.21 6.21 0 01.2.61c.16.65.3 1.31.44 2l-.12-.11c-.34-.27-.67-.56-1-.84-.77-.65-1.56-1.32-2.39-1.94a5.4 5.4 0 00-3.16-1.21 3.15 3.15 0 00-2.57 1.13 3 3 0 00-.45 2.76 4.94 4.94 0 002.45 3 8.59 8.59 0 006.27 1c.41-.09.81-.21 1.25-.35l.19-.06v.81c.09 2 .17 3.83.08 5.71a11 11 0 00-5.32-3.77 3 3 0 00-3.28.6 3.2 3.2 0 00-.76 3.43 4.71 4.71 0 003.8 3.39 8.72 8.72 0 005-.43l.23-.08-.61 6.22a7.34 7.34 0 00-.72-1.09 2.34 2.34 0 00-1.76-1 2.5 2.5 0 00-1.85 1c-.13.15-.26.3-.39.47l-.22-.12a2.55 2.55 0 00-2.52-.27 2.7 2.7 0 00-1.44 2.14 7.89 7.89 0 00.08 2.62 20.88 20.88 0 00.81 2.55c0 .15.1.29.16.44l-.29-.08a6 6 0 00-4.24.34 2.32 2.32 0 00-1.22 3.39 5.88 5.88 0 001 1.32 3.16 3.16 0 00.53.45c-.13.19-.24.36-.34.53a2.56 2.56 0 00.65 3.58 4.23 4.23 0 003.46 1c.52-.08 1.05-.19 1.6-.32h.06c0 .07-.05.13-.07.19-.1.31-.21.62-.32.93-.29.82-.58 1.65-.8 2.5a4.08 4.08 0 00.07 2.6l-.05-.05c-.71-.7-1.38-1.37-2.12-2a21.91 21.91 0 00-2.79-2 7.1 7.1 0 00-3.21-1 5 5 0 00-3.12.72 2.75 2.75 0 00-1.37 2.07 2.64 2.64 0 001 2.18 5.66 5.66 0 001 .68l-.42-.09a5.61 5.61 0 00-3.74.57 2.46 2.46 0 00-1.51 1.75 2.44 2.44 0 00.82 2 3.47 3.47 0 00.95.71l.26.11a16.24 16.24 0 002.41.93 24.41 24.41 0 005.62.64c.62 0 1.25 0 1.88.08h.1c-.82 1.13-1.66 2.22-2.54 3.27l-.34-.26-1.26-.93c-2.84-2.13-6.15-2.51-9.84-1.13a5.18 5.18 0 00-1.86 1.29 2.11 2.11 0 00-.63 1.51 2.23 2.23 0 00.74 1.53 5.42 5.42 0 001.63 1.1 10.82 10.82 0 008.55.25c-.55.61-1.13 1.19-1.69 1.76l-.24.25a1.44 1.44 0 01-1 .49l-1.11.06a13.27 13.27 0 01-1.39.06 12 12 0 00-5.74 1.15 7 7 0 00-2.55 2 2.36 2.36 0 001.25 4 7.08 7.08 0 002.23.34 10 10 0 001.9-.2 7.28 7.28 0 004.91-3.56 27.25 27.25 0 014.56-5.5c.39-.38.75-.79 1.11-1.2-.12.37-.23.74-.32 1.11a6.68 6.68 0 00.25 4.33 4.45 4.45 0 003.24 2.81 3.05 3.05 0 003.68-2 5.06 5.06 0 00.23-2.69 8.12 8.12 0 00-4.27-5.75l-.56-.29 3.45-4.87a9.25 9.25 0 00.65 4.28 4.2 4.2 0 002.3 2.39 2.87 2.87 0 004.06-2 4.61 4.61 0 00-1.2-4.67 13.72 13.72 0 00-2.49-1.8 10.61 10.61 0 00-1.47-.65l-.29-.1 1.12-2.37a1.73 1.73 0 00.92.36h.07a2 2 0 001.44-.73 6.29 6.29 0 00.5-.63l.12.12a2.59 2.59 0 003.09.52 3.55 3.55 0 001.9-1.85c.37-.92.72-1.91 1-3a4.75 4.75 0 00.13-2l.55.42a6.59 6.59 0 003.22 1.52 2.32 2.32 0 002.12-.59 2.34 2.34 0 00.44-2.17c-.06-.27-.14-.53-.22-.79v-.08l.39-.27a2.42 2.42 0 001-1.9 2.25 2.25 0 00-.88-1.81zm-19.87 1.4c.62-.79.56-1.28-.25-1.94a5.07 5.07 0 01-1.16-1.34 1.16 1.16 0 01-.17-.9 1.23 1.23 0 01.7-.66 5 5 0 012.08-.47 6 6 0 013 .87.45.45 0 01.14.11l2.27 2.43-4.75-.48 1.56.88a4.54 4.54 0 001.71.59l-1.9.47.12.81.27.05a3.37 3.37 0 001.35-.1l.33-.07c.37-.07.74-.17 1.13-.26l.19-.05.27.77-.22.09h-.08a2.51 2.51 0 00-.29.2l-.21.18a5.86 5.86 0 01-4.47 1.46 2.62 2.62 0 01-1-.34c-.59-.32-.93-.67-1-1.05a1.6 1.6 0 01.38-1.25zm7.61-13c.2-.26.49-.58.78-.58.29 0 .59.31.8.58a6.06 6.06 0 011.1 2.88 15 15 0 01-.32 5l-.1.58c0 .09 0 .1-.21.18a1.24 1.24 0 00-.44.25l-3.09-4.8.49 2.11c.41 1.77 1.3 3.12 2.32 3.52l1 .42a2 2 0 01.68 2.47 1.57 1.57 0 01-1.28 1 1.12 1.12 0 01-1.14-.65 1.45 1.45 0 01.13-1.68l.1-.05.17-.08.43-.24-.34-.35a1.07 1.07 0 00-.77-.39.86.86 0 00-.39.1l-.07-.09c-.17-.21-.32-.4-.48-.57a12.25 12.25 0 01-3.42-6.18 6.08 6.08 0 010-2.25 1 1 0 01.47-.77 1.16 1.16 0 011 .14c1.47.69 1.68.65 2.58-.55zm8.07 3.18a.74.74 0 01.38.57 5.13 5.13 0 01.06 1.19v.48c0 .86.26 1.1 1.19 1.14a2.33 2.33 0 011 .18.84.84 0 01.42.6 1.2 1.2 0 01-.28 1 6.15 6.15 0 01-3.31 2 6.85 6.85 0 01-.9.19l-.59.11a2.45 2.45 0 00-.75.25.85.85 0 00-.35.47 2.56 2.56 0 00-.13-.53l1.87-2.48-.69-.6-1.8 1.91a1.46 1.46 0 01-.16-1.65l.07-.16a12.81 12.81 0 011.91-3.47 4.7 4.7 0 011.47-1.13.66.66 0 01.59-.09zm-5.71 19.27a1.45 1.45 0 01-1.06.38 1.51 1.51 0 01-.94-.74v-.08a1.74 1.74 0 00-.11-.18 1.17 1.17 0 00-.82-.52 1.11 1.11 0 00-.82.57c-.1.14-.19.29-.28.43a6.06 6.06 0 01-.35.53c-.22.28-.38.36-.49.35s-.2-.13-.31-.41a3.46 3.46 0 01-.19-1.69 11.55 11.55 0 012-4.94 4.06 4.06 0 01.73-.77 1.72 1.72 0 00.27-.27 1.34 1.34 0 00.23-.42l.13.06.34.16.53.26.28.13-.66 2.42.87.26.13-.33.21-.53a9.44 9.44 0 00.47-1.29 1.11 1.11 0 01.68-.84l.65 1.28a3.44 3.44 0 01.33 2.63 19.54 19.54 0 01-.88 2.51 3 3 0 01-.94 1.02zm3.17-10.21a1.62 1.62 0 00.5 0 1.6 1.6 0 01.23 0h1a23.78 23.78 0 012.67 0 2.76 2.76 0 011.38.6.85.85 0 01.41.65c0 .25-.17.51-.55.78-1.08.72-1.14.9-.72 2.14.18.52.29.91 0 1.19s-.6.22-1.19.07a5.07 5.07 0 01-2.24-1.29c-.65-.65-1.24-1.32-1.88-2-.21-.25-.43-.49-.65-.73a5.22 5.22 0 00.46-1.77.81.81 0 00.58.34zM709 346a9.84 9.84 0 015.18 3.7 9.8 9.8 0 01-2-.37 10.57 10.57 0 00-1.62-.34l-1.11-.13.8.77a5.34 5.34 0 002.31 1.14 6.55 6.55 0 01-3.42-.09 3.3 3.3 0 01-2.45-3 1.69 1.69 0 01.49-1.39 1.59 1.59 0 011.14-.42h.36a1.43 1.43 0 01.32.13zm-2.88-9.55a1.61 1.61 0 011.28-.54h.09a4 4 0 011.68.44 15.55 15.55 0 012.27 1.53c.77.58 1.52 1.21 2.24 1.82l.57.48a13.1 13.1 0 01-3.86-1c-.45-.16-.9-.33-1.35-.47l-1.8-.57 1.45 1.22a10.64 10.64 0 003.48 1.78 6.92 6.92 0 01-5.07-1.33 3.13 3.13 0 01-1.25-1.83 1.78 1.78 0 01.23-1.49zm12.65 11.36a13 13 0 001-1.92l.5-1.27-1.08.83a10.89 10.89 0 00-2 2.2l-.17.23a11.36 11.36 0 012.82-4.4 6.51 6.51 0 011.33-1 1 1 0 01.82-.1 1.1 1.1 0 01.51.74 2.58 2.58 0 01-.4 2.2 8.21 8.21 0 01-3.39 3.09 3.48 3.48 0 01-.48.21zm3.85 5.21a2.27 2.27 0 01-.28 2.23 4 4 0 01-4 1.88l-1.21-.16 3.29-2.37-1.45.18a6.6 6.6 0 00-2.47 1l-.18.1a10.47 10.47 0 013.64-3.28 3.92 3.92 0 011.25-.42 1.12 1.12 0 011.37.88zm-1.28-20.28a4.77 4.77 0 010 1.68 6.37 6.37 0 01-2.55 3.81c-.31.25-.65.48-1 .7l1.08-2.19-.73-.5-1 1.3a9 9 0 011.19-3.7 4.54 4.54 0 011.69-1.69 1.12 1.12 0 01.91-.16c.21.15.32.51.37.79zm-12-9.21a2.07 2.07 0 011.79.25 4.59 4.59 0 012 2.35 12 12 0 01.91 5.9v.56a33.61 33.61 0 00-4.12-6l-.19-.22-.8.41.37.72.44.82 2 3.51.09.15a11.53 11.53 0 01-2.52-2.37 5.25 5.25 0 01-.95-4.64 2 2 0 01.98-1.4zm-5.89 77.95a2 2 0 01-1.58.12 3.28 3.28 0 01-2.25-2.26 6 6 0 010-3.51c.13-.53.31-1 .48-1.55l.06-.21 3 4.55.77-.45-.08-.28a14 14 0 00-1.74-3.39 6 6 0 012.25 3.7 5.37 5.37 0 01-.08 2.14 1.72 1.72 0 01-.83 1.18zm-16.25-10a2.89 2.89 0 01.83-.6 10.4 10.4 0 014-.84 8.15 8.15 0 015.16 1.79l-5.39.2v.85l5.83.24a9.76 9.76 0 01-8.7.76 5.75 5.75 0 01-1.67-.9 1.06 1.06 0 01-.48-.7 1.13 1.13 0 01.42-.81zm6.72-8.64a8.73 8.73 0 016.3 3.1l-2.08-.71-.32.86 2.26 1.05a20.93 20.93 0 01-5.68-.64 12.72 12.72 0 01-1.84-.7 3.76 3.76 0 01-.87-.58 1.29 1.29 0 01-.54-1.09 1.22 1.22 0 01.8-.83 4.42 4.42 0 011.97-.47zm14.54 7.83l1.13.93-.54-1.36a14.27 14.27 0 00-2.2-3.48c-.06-.08-.12-.15-.17-.23a5.84 5.84 0 013.16 2.71 3.16 3.16 0 01.07 2.71 1.4 1.4 0 01-1.89.9 2.46 2.46 0 01-1.45-1.1 7.86 7.86 0 01-1.08-4.44c.33.37.64.76.94 1.14a14.32 14.32 0 002.03 2.21zm-8.93-11.92l-.34.88 4.87 2.11a19 19 0 01-3.62 0A22.62 22.62 0 01697 381a5 5 0 01-1.65-.89 1.36 1.36 0 01-.62-1.13 1.45 1.45 0 01.83-1.09 3.61 3.61 0 011.91-.5 4.92 4.92 0 01.84.07 8.23 8.23 0 014 2 5.34 5.34 0 01.44.39zm.21 4.18a17.45 17.45 0 004.27 0l1.34-.1h.27c-.87 1.52-1.78 2.94-2.72 4.3a12.7 12.7 0 00-5.14-4.64c.64.18 1.3.32 1.98.43zm-11.48 18.35l-.42.16.23.38a1 1 0 001.48.41c.79-.41 1.55-.85 2.32-1.29a6.81 6.81 0 01-7.26 2.79 2.8 2.8 0 01-.41-.13 1.3 1.3 0 01-.84-.71 1.27 1.27 0 01.29-1 4.44 4.44 0 01.94-.95 7.92 7.92 0 014.27-1.66c.91-.07 1.86-.09 2.77-.12h.5a13.64 13.64 0 01-3.87 2.11zm-79-84.42a6.27 6.27 0 00-.37-1.6 2.84 2.84 0 00-.31-.63l.52-.35a2.58 2.58 0 00.84-3.54 4.25 4.25 0 00-2.78-2.3c-.51-.14-1-.24-1.59-.34h-.07l.13-.15.66-.71c.59-.64 1.2-1.29 1.75-2a4.23 4.23 0 001-2.4v.06c.37.93.72 1.81 1.14 2.68a21.36 21.36 0 001.77 3 7.13 7.13 0 002.56 2.17 5 5 0 002.4.63 4.62 4.62 0 00.74-.06 2.71 2.71 0 002.08-1.34 2.64 2.64 0 00-.06-2.41 5.39 5.39 0 00-.6-1 3.79 3.79 0 00.35.25 5.69 5.69 0 003.12 1 4.71 4.71 0 00.53 0 2.47 2.47 0 001.93-1.11 2.43 2.43 0 000-2.19 3.3 3.3 0 00-.59-1l-.19-.2a17.5 17.5 0 00-1.84-1.81 24 24 0 00-4.9-2.82c-.56-.27-1.13-.54-1.69-.83h-.1c1.2-.71 2.41-1.38 3.64-2l.17.29c.28.47.55.95.83 1.43 1.75 3.09 4.63 4.76 8.57 5a5 5 0 002.22-.44 2.1 2.1 0 001.17-1.13 2.15 2.15 0 00-.06-1.7 5.42 5.42 0 00-1.06-1.66 10.84 10.84 0 00-7.74-3.64c.75-.33 1.5-.64 2.23-.93l.34-.14a1.4 1.4 0 011.13-.05c.34.14.69.27 1 .39s.88.31 1.3.5a11.86 11.86 0 005.72 1.22 6.86 6.86 0 003.14-.83 2.66 2.66 0 001.49-2 2.63 2.63 0 00-1-2.19 8 8 0 00-3.72-1.78 7.27 7.27 0 00-5.93 1.31 27 27 0 01-6.38 3.22c-.5.2-1 .43-1.49.66.25-.29.5-.58.73-.88a6.72 6.72 0 001.51-4.08 4.49 4.49 0 00-1.89-3.82 3.07 3.07 0 00-4.19.4 5 5 0 00-1.27 2.37 8.06 8.06 0 001.62 7l.39.5-5.1 3.08a9.12 9.12 0 001.11-4.18 4.24 4.24 0 00-1.15-3.11 3 3 0 00-2.34-1 2.94 2.94 0 00-2.19 1.23 4.59 4.59 0 00-.77 4.75 13.26 13.26 0 001.58 2.65 8.8 8.8 0 001.09 1.19l.22.2-2 1.73a1.58 1.58 0 00-.7-.7 1.92 1.92 0 00-1.68.06c-.24.11-.47.24-.71.38a1 1 0 00-.07-.15 2.56 2.56 0 00-2.54-1.72h-.08a3.55 3.55 0 00-2.48.95 30 30 0 00-2.13 2.3 4.57 4.57 0 00-.91 1.76c-.11-.2-.23-.4-.34-.61a6.66 6.66 0 00-2.34-2.67 2.33 2.33 0 00-2.19-.3 2.31 2.31 0 00-1.26 1.82 7 7 0 00-.12.8v.08l-.46.1a2.43 2.43 0 00-1.72 1.33 2.23 2.23 0 00.15 2 5.78 5.78 0 001 1.27l.38.38-.26.06-.44.13a6.86 6.86 0 00-1.55.56 2.51 2.51 0 00-1.35 2.13 2.65 2.65 0 001.31 2.3l.21.13v.1c-.11.27-.22.52-.3.77a2.56 2.56 0 00.34 2.51 2.59 2.59 0 002.47.69 6 6 0 002.27-1 34.28 34.28 0 01-1.74 3.34l-.65-.35-2.19-1.19a5.21 5.21 0 00-5.53.33 3.54 3.54 0 00-1.74 3.38 2.31 2.31 0 001.57 2.18 4.87 4.87 0 002.58.25 11.69 11.69 0 004.23-1.45l-1.87 3.1h-.73c-.65 0-1.27 0-1.88-.05a9.45 9.45 0 00-5.41 1.34 6.83 6.83 0 00-1.64 1.37 3.23 3.23 0 00-.81 2.65 2.1 2.1 0 002.2 2 6 6 0 001.63-.24 10.88 10.88 0 004.37-2.48l-1.5 3.71c-.12.31-.31.5-.84.5h-.14a11.52 11.52 0 00-5.3 1.29 7.11 7.11 0 00-2.87 2.7 4 4 0 00-.61 2.35 1.92 1.92 0 002 1.94 5 5 0 002.8-.7 9 9 0 003.39-3.4c.24-.39.47-.78.7-1.17-.18.94-.36 1.89-.55 2.83a1.07 1.07 0 01-.22.42 14.84 14.84 0 00-3.07 7.14 8.23 8.23 0 00.2 3.73 5.05 5.05 0 001.54 2.44 3.21 3.21 0 002.08.85 3.09 3.09 0 002.17-1 4.77 4.77 0 00.61-.72 6.71 6.71 0 001-5.78 9.47 9.47 0 00-1.91-3.87 3.24 3.24 0 01-.8-2.73 4.07 4.07 0 000-.5c0-.21 0-.43.06-.64.12-.65.25-1.31.38-2v-.05l.08.15.58 1.17c.45.9.91 1.83 1.42 2.73a5.3 5.3 0 002.42 2.37 2.92 2.92 0 004.32-2.36 5 5 0 00-1-3.74 8.64 8.64 0 00-5.44-3.32c-.41-.08-.83-.13-1.29-.18h-.19l.29-.75c.7-1.83 1.37-3.58 2.21-5.27a10.89 10.89 0 003.37 5.57 3.05 3.05 0 003.25.77 3.22 3.22 0 002.06-2.85 4.69 4.69 0 00-2.13-4.62 8.75 8.75 0 00-4.74-1.59h-.24l3-5.47a7.8 7.8 0 00.23 1.28 2.33 2.33 0 001.23 1.6 2.41 2.41 0 002.09-.16l.54-.28a1.56 1.56 0 01.16.2 2.58 2.58 0 002.2 1.25 2.65 2.65 0 002.17-1.39 8 8 0 001-2.43 23.21 23.21 0 00.27-2.67v-.46a2.11 2.11 0 01.23.19 6.07 6.07 0 004 1.38 2.34 2.34 0 002.48-2.63zM592.72 330a5.27 5.27 0 00-1.65-2 6.38 6.38 0 013.1 1.44 3.3 3.3 0 011.07 3.7 1.6 1.6 0 01-2.54.84 2.12 2.12 0 01-.27-.17 9.8 9.8 0 01-3.28-5.46 9.92 9.92 0 011.72 1.15 12.26 12.26 0 001.36 1l1 .56zm-16.87 11.91a1 1 0 01-.06-.85 4.64 4.64 0 01.69-1.53 6.43 6.43 0 013.86-2.48c.38-.1.77-.18 1.18-.25l-1.62 1.37-.2.28.42.69 1.42-.82a9 9 0 01-2.57 2.92 4.49 4.49 0 01-2.22.88 1.16 1.16 0 01-.9-.18zm8.89 8.76c0-.31 0-.62-.07-.93-.14-1.24-.28-2.48-.43-3.72l-.06-.48a11.08 11.08 0 011.37 3.18 5.23 5.23 0 01-1 4.63 2 2 0 01-1.5.92 2 2 0 01-1.54-.94 4.61 4.61 0 01-.9-2.95 12.09 12.09 0 011.52-5.77l.27-.49a33.73 33.73 0 001.39 7.14l.09.28.89-.06zm.58-29.3l1.4.41a6.5 6.5 0 002.67.07h.21a10.62 10.62 0 01-4.66 1.56 3.73 3.73 0 01-1.31-.12 1.11 1.11 0 01-.93-1.32 2.27 2.27 0 011.14-1.94 5 5 0 012.42-.72 3.79 3.79 0 012 .59l1 .62zm4.44 22.3a3.94 3.94 0 01-1.37-1.07 15.32 15.32 0 01-1.48-2.31c-.47-.84-.91-1.72-1.33-2.57l-.33-.65a13 13 0 013.16 2.41c.35.33.69.66 1.05 1l1.43 1.24L590 340a10.63 10.63 0 00-2.48-3 6.94 6.94 0 014.12 3.24 3.1 3.1 0 01.42 2.18 1.78 1.78 0 01-.87 1.33 1.63 1.63 0 01-1.43-.05zm-10.93-12.65a2.68 2.68 0 011.25-1.86 8.14 8.14 0 014.34-1.48h.52c-.26.2-.53.39-.8.58a14.38 14.38 0 00-1.69 1.36l-1 1 1.32-.33a10.54 10.54 0 002.69-1.23l.25-.14a11.43 11.43 0 01-4.35 2.91 6.12 6.12 0 01-1.6.35 1 1 0 01-.78-.23 1.11 1.11 0 01-.15-.9zm10.61-15.59a5.23 5.23 0 01.42-1.11c.06-.15.13-.3.19-.44.33-.8.21-1.12-.62-1.52a2.33 2.33 0 01-.84-.56.86.86 0 01-.14-.71 1.22 1.22 0 01.64-.78 5.3 5.3 0 012.63-.6 10.41 10.41 0 011.21.07 7.21 7.21 0 01.9.19l.59.13a2.21 2.21 0 00.78.07.84.84 0 00.51-.29 2.34 2.34 0 00-.09.54l-2.7 1.52.39.84 2.41-1a1.44 1.44 0 01-.51 1.57l-.12.12c-.31.3-.62.58-.93.86a1.74 1.74 0 00-.35-.53l-.17-.17-.82.3.41 1.16a7.64 7.64 0 01-1.28.8 4.79 4.79 0 01-1.8.46.69.69 0 01-.59-.21.75.75 0 01-.12-.68zm13-14.73a1.42 1.42 0 011.12.08 1.52 1.52 0 01.57 1.05v.3a1.07 1.07 0 00.54.81 1.1 1.1 0 001-.2l.42-.28c.18-.12.35-.24.53-.34s.52-.18.6-.13.13.19.12.49a3.63 3.63 0 01-.5 1.64 11.59 11.59 0 01-3.77 3.74 4.51 4.51 0 01-1 .42 1.18 1.18 0 00-.36.14 1.22 1.22 0 00-.37.3l-.35-.4-.17-.19-.21-.25-.2-.24 1.34-1.67.18-.33-.64-.54-.25.25-.41.4a11.3 11.3 0 00-1 1 1.09 1.09 0 01-.95.5l-.09-1.43a3.43 3.43 0 01.75-2.55 19.79 19.79 0 011.81-1.95 2.82 2.82 0 011.33-.59zm-9.82 2.4c0-.55.1-.95.45-1.1a.44.44 0 01.22 0 1.55 1.55 0 01.89.46 4.92 4.92 0 011.55 2.08c.33.85.61 1.7.91 2.61.1.3.2.61.31.92a5.24 5.24 0 00-1.13 1.45.81.81 0 00-.36-.66 1.52 1.52 0 00-.47-.18 1.29 1.29 0 01-.21-.06l-.9-.36-1.35-.56.09-2.77-.77 1.54a3.34 3.34 0 00-.3.77l-.11-.05a2.91 2.91 0 01-1-1.1.86.86 0 01-.12-.77c.1-.23.36-.4.82-.49 1.29-.26 1.41-.39 1.52-1.7zm1.59 18.51a6.19 6.19 0 01.13-3.08 15.13 15.13 0 012.27-4.43l.33-.5c0-.08.06-.09.28-.09a1.3 1.3 0 00.5-.05l.92 5.63.39-2.13c.33-1.78 0-3.37-.73-4.16l-.8-.8a2 2 0 01.37-2.53 1.56 1.56 0 011.57-.41 1.12 1.12 0 01.78 1.06 1.44 1.44 0 01-.78 1.48 2 2 0 01-.3 0h-.49l.17.46c.25.68.68.75.95.72v.12c.07.26.13.49.21.72a12.19 12.19 0 01.67 7 6.37 6.37 0 01-.89 2.07 1 1 0 01-.75.51 1.1 1.1 0 01-.89-.54c-.56-.7-.86-1-1.27-1a2.85 2.85 0 00-1.22.5 1.25 1.25 0 01-1 .23c-.14-.01-.3-.39-.38-.75zm6.86-9.18l4.16 2.34-1.09-1.43a4.5 4.5 0 00-1.35-1.22l2 .33.2-.8-.22-.15a3.26 3.26 0 00-1.28-.44l-.33-.07c-.38-.09-.76-.15-1.15-.21h-.18v-.82a.48.48 0 00.12 0h.13a1.9 1.9 0 00.45-.07l.26-.08a5.87 5.87 0 014.68.44 2.61 2.61 0 01.79.72 1.76 1.76 0 01.52 1.36 1.67 1.67 0 01-1 1c-.89.48-1 1-.55 1.88a5.14 5.14 0 01.53 1.69 1.12 1.12 0 01-.21.89 1.2 1.2 0 01-.9.32 5.21 5.21 0 01-4.45-2.36.61.61 0 01-.09-.16zm13-4.85l.66-.67-3.62-3.87a19.18 19.18 0 013.31 1.47 24.15 24.15 0 012.87 2 5 5 0 011.15 1.47 1.36 1.36 0 01.12 1.28 1.45 1.45 0 01-1.19.68 4 4 0 01-2.7-.71 8.22 8.22 0 01-2.92-3.41c-.09-.18-.17-.36-.25-.54zm-2.42-5.58c-.43-.14-.86-.29-1.28-.45l-.25-.09c1.41-1.05 2.8-2 4.21-2.87a12.64 12.64 0 002.87 6.31c-.53-.4-1.08-.79-1.66-1.17a17.46 17.46 0 00-3.89-1.73zm.25-10.67a2.51 2.51 0 01.9 1.59 7.86 7.86 0 01-.79 4.51c-.15-.48-.28-.95-.4-1.42a14.56 14.56 0 00-1-2.85l-.66-1.3-.05 1.46a14 14 0 00.64 4.07l.07.28a5.82 5.82 0 01-1.83-3.75 3.15 3.15 0 011-2.51 1.4 1.4 0 012.12-.12zm12 14.73a1.23 1.23 0 01-1.06.44 4.37 4.37 0 01-2-.37 8.65 8.65 0 01-4.55-5.34l1.63 1.47.63-.66-1.65-1.86a20.79 20.79 0 015 2.85 13.29 13.29 0 011.41 1.38 3.25 3.25 0 01.56.88 1.28 1.28 0 01.03 1.15zm-4.1-12.9l-.14.16-1-5.38-.88.1v.3a13.67 13.67 0 00.25 3.81 6.11 6.11 0 01-.58-4.29 5.43 5.43 0 01.92-1.93 1.74 1.74 0 011.21-.74 2 2 0 011.49.51 3.31 3.31 0 011.16 3 6.06 6.06 0 01-1.35 3.24c-.35.37-.72.78-1.08 1.18zm6.31 5.26h.4l.27-.67-5.25-2.54a9.75 9.75 0 018.29 2.77 5.94 5.94 0 011.17 1.49 1 1 0 01.15.83 1.05 1.05 0 01-.69.57 2.77 2.77 0 01-1 .22 8.94 8.94 0 01-8-4.52zm5.92-5.33c-.87-.3-1.76-.66-2.61-1l-.45-.18a13.79 13.79 0 014.41-.43h.45l-.06-.44a1 1 0 00-1.19-1c-.89.07-1.76.16-2.64.26a6.82 6.82 0 017.77.33l.33.29a1.31 1.31 0 01.48 1 1.28 1.28 0 01-.68.83 4.39 4.39 0 01-1.23.49 7.93 7.93 0 01-4.61-.19z" transform="translate(-574.27 -283.83)"/></svg><svg id="catalog-5" data-name="Режим изоляции" viewBox="0 0 87.35 113.3" xmlns="http://www.w3.org/2000/svg"><defs><style>.gcls-1{fill:#b9b9b9}</style></defs><path class="gcls-1" d="M919.47 935.79a1 1 0 00-1 1v5a.95.95 0 001.9 0v-5a1 1 0 00-.9-1zm0-9.91a2.3 2.3 0 001.78-.84l10.29 3.29a1 1 0 00.73-.06 1 1 0 00.41-1.28 1 1 0 00-.56-.47l-10.35-3.31a2.54 2.54 0 00-.19-.61l5.06-5.05a1 1 0 00-1.35-1.34l-5.11 5.11a2.37 2.37 0 00-.69-.11 2.33 2.33 0 000 4.65zm0-2.75a.43.43 0 11-.42.42.42.42 0 01.42-.42zm-9.73-8.04a1 1 0 00.67.27.88.88 0 00.67-.29.9.9 0 00.27-.67 1 1 0 00-.28-.67l-3.78-3.73a1 1 0 00-1.34 0 .9.9 0 00-.27.67.91.91 0 00.28.67zm19.05.1a1 1 0 00.67-.28l3.53-3.54a1 1 0 000-1.35 1 1 0 00-1.34 0l-3.52 3.54a1 1 0 00.67 1.62zm-9.32-3.87a1 1 0 00.95-1v-5a.95.95 0 00-1.9 0v5a1 1 0 00.95 1zm-9.35 20.6a1.06 1.06 0 00-.52.19l-.09.11-.16.19c-.28.3-.87.94-1.47 1.57l-1.16 1.19-.38.34a.69.69 0 00-.3.2.9.9 0 00-.29.67 1 1 0 00.28.67 1 1 0 00.7.28.94.94 0 00.43-.1 1.77 1.77 0 00.44-.3l.06-.05c.4-.35 1.06-1 2-2 .57-.6 1-1.13 1.22-1.31l.06-.07a1 1 0 00-.07-1.34 1 1 0 00-.75-.24zm-8.82-7.42h5a1 1 0 000-1.9h-5a1 1 0 000 1.9zm30.39-.95a1 1 0 00.95 1h5a1 1 0 000-1.9h-5a1 1 0 00-.95.9z" transform="translate(-875.7 -864.17)"/><path class="gcls-1" d="M961.38 921h-1a4.14 4.14 0 00-1.05-1.29 4.2 4.2 0 00-3.5-.81l-7.31 1.63h-.32a.47.47 0 01-.4-.22 28.31 28.31 0 00-6.35-15.53 1 1 0 00.19-.56v-.09l6.38-4.09a4.13 4.13 0 001.69-4.85l.71-.71a1.65 1.65 0 000-2.35l-.3-.31a1.73 1.73 0 00-2.35 0l-.76.75a4.12 4.12 0 00-1.12-.17h-.1a4.17 4.17 0 00-2.22.65 4.12 4.12 0 00-1.28 1.28l-1.43 2.24h-10.45a28 28 0 00-5.61-1.69V893a14.92 14.92 0 10-10.86-.17v2a28 28 0 00-5.61 1.69h-10.41l-1.43-2.24a4.13 4.13 0 00-4.74-1.73l-.76-.76a1.73 1.73 0 00-2.35 0l-.3.31a1.68 1.68 0 00-.49 1.17 1.66 1.66 0 00.21.81l1.06 1.06a4 4 0 00-.23 1.33 4.19 4.19 0 00.65 2.22 4.12 4.12 0 001.28 1.28l6 3.8v.38a1 1 0 00.28.67.52.52 0 00.11.1 28.25 28.25 0 00-6.21 15.45.48.48 0 01-.37.17h-.08l-7.55-1.65a3.94 3.94 0 00-.9-.1 4.16 4.16 0 00-3.65 2.2h-1a1.67 1.67 0 00-1.66 1.66v.43a1.68 1.68 0 001.66 1.67h1a4.14 4.14 0 002.82 2.23 4.2 4.2 0 001.8 0l7.32-1.63h.31a.48.48 0 01.38.2 28.39 28.39 0 006.49 15.6.5.5 0 010 .12.46.46 0 01-.14.34l-.22.2-5.46 3.48-.42-.61 4.52-2.61a1 1 0 00-.18-1.73h-.13a37.37 37.37 0 01-7.21-3.46c-3-1.83-6.82-4.89-8.49-9.08a.93.93 0 00-1-.59.92.92 0 00-.85.71 30.89 30.89 0 00-.83 7.51 68.22 68.22 0 002 15.13 1 1 0 00.65.67 1 1 0 00.93-.23c.15-.13 1.05-1 2-1.82l1.43-1.23a29.64 29.64 0 004.2 7.88 27.37 27.37 0 004.9 5.25 46 46 0 005.82 3.54c1.14.61 2.25 1.16 3.2 1.61a16.92 16.92 0 002.31.93c.38.11 1.47.47 2.91 1a41.38 41.38 0 017.23 3.72 13.94 13.94 0 012.85 2.42 4.37 4.37 0 011.18 2.33 1 1 0 00.92.86h.24a1 1 0 00.89-.86 5.44 5.44 0 012-3.16 29 29 0 017-4.31 43.17 43.17 0 015.2-2 16.41 16.41 0 002.32-.93c1.45-.67 3.23-1.6 4.9-2.53a39.16 39.16 0 004.14-2.62 31 31 0 009.11-13.13c.48.4 1.11 1 1.82 1.58s1.48 1.33 1.65 1.49a1 1 0 00.91.21 1 1 0 00.65-.69 68.17 68.17 0 002-15.11 30.92 30.92 0 00-.82-7.51.94.94 0 00-.86-.71.9.9 0 00-.94.59c-1.77 4.42-6 7.6-9.17 9.49a39.31 39.31 0 01-4.69 2.34c-.5.21-1 .4-1.46.57l-.39.14h-.13a1 1 0 00-.19 1.73l4.52 2.61c-.16.24-.38.54-.64.91l-5.9-3.75-.25-.22a.48.48 0 01-.14-.35.79.79 0 010-.17 28.26 28.26 0 006.44-15.52.52.52 0 01.42-.23h.07l7.56 1.65a3.91 3.91 0 00.91.1 4.15 4.15 0 003.72-2.33h.94a1.68 1.68 0 001.66-1.67v-.43a1.67 1.67 0 00-1.8-1.67zm-13.49 1.43h.44a2.37 2.37 0 00.52-.06l7.38-1.64a2.2 2.2 0 011.88.44 2.27 2.27 0 01.77 1.21v.11a3.71 3.71 0 01.05.44 2 2 0 01-.06.49 2.26 2.26 0 01-2.19 1.75 2 2 0 01-.49 0l-7.38-1.64a2.35 2.35 0 00-.51-.06h-.16a2.66 2.66 0 00-.28 0v-.59c0-.19.03-.31.03-.46zm2.51 28.82l-.67-.67a4 4 0 00.19-1.24 4.08 4.08 0 00-.65-2.22 3.05 3.05 0 00-.22-.32c.75-1 1.24-1.78 1.34-1.93a1 1 0 00.12-.74.92.92 0 00-.45-.59l-3.66-2.12a39.35 39.35 0 005.13-2.55 24.91 24.91 0 008.66-7.89 33.75 33.75 0 01.27 4.4 60.5 60.5 0 01-1 10.09c-.18 1-.38 2-.59 3l-.87-.77c-.54-.48-1.1-1-1.57-1.36l-.64-.51a3.16 3.16 0 00-.54-.36.94.94 0 00-1.33.59 26.25 26.25 0 01-3.15 6.87 1.75 1.75 0 00.08-.51 1.68 1.68 0 00-.45-1.18zm-34.56-56.68v-1h.3l.8.15v.41a.53.53 0 01-.13.31zm3.74-28.48a13 13 0 013.19 25.62h-.49l1-4.53a8.91 8.91 0 10-7.86-.22l1.06 4.76a13 13 0 013.11-25.63zm2.2 28v-.24a9.31 9.31 0 001.08-.2v1l-1-.1a.47.47 0 01-.12-.32zm-9.21-15a7 7 0 0114 0 7 7 0 01-3.12 5.81 4.27 4.27 0 00-.87-1.9 4.12 4.12 0 00-1.35-1v-1.11a1.68 1.68 0 00-1.67-1.67h-.43a1.68 1.68 0 00-1.66 1.67V882a3.89 3.89 0 00-2.14 2.68 7 7 0 01-2.76-5.6zm5 5.15a2.5 2.5 0 01.23-.23 2.38 2.38 0 011-.51h.45a1.73 1.73 0 01.66.08 2.34 2.34 0 011.16.7 2.23 2.23 0 01.49 1.4 2.72 2.72 0 010 .49l-1.64 7.37a2.31 2.31 0 00-.06.52v.16a1.41 1.41 0 000 .2H919l-.09-.43a2 2 0 000-.44l-1.64-7.38a2 2 0 01-.05-.49 2.23 2.23 0 01.39-1.45zm-.07 12.08a22.61 22.61 0 013.68 0 26.49 26.49 0 018.51 2h.09a26.44 26.44 0 017.08 4.46 27.29 27.29 0 012.68 2.7 26.39 26.39 0 016.34 15.35c.05.74.08 1.38.08 2s0 1.38-.1 2.17a26.44 26.44 0 01-6.16 15c-.52.62-1 1.2-1.58 1.73s-1.15 1.08-1.77 1.6a26.8 26.8 0 01-10.5 5.35 27.6 27.6 0 01-4.5.72h-3.96a26.45 26.45 0 01-15.17-6.16c-.58-.48-1.14-1-1.66-1.51l-.06-.06c-.48-.48-1-1-1.43-1.56a26.35 26.35 0 01-6.24-15.11c-.06-.77-.09-1.46-.09-2.1s0-1.16.08-1.87a26.35 26.35 0 016.39-15.51 25.1 25.1 0 012.62-2.64 26.59 26.59 0 013.3-2.48 28.23 28.23 0 013.82-2 26.34 26.34 0 018.59-2.09zm20.72 4.33l-.21.24a.51.51 0 01-.29.15 28.88 28.88 0 00-3.09-2.27l-.49-.3h5.52zm2.32 1.88l-.33.26-.16.16-.09.1v.07l-.36-.36-.37-.37.19-.17.38-.44 4.09-6.43a2.24 2.24 0 012.93-.78 4.1 4.1 0 01.34.23l.14.1a2.25 2.25 0 01-.31 3.56zm-21.71 49.87a2.24 2.24 0 00.06-.52v-.15a2 2 0 000-.34h1a2 2 0 000 .35v.14a2.31 2.31 0 00.06.52l1.65 7.43a2.12 2.12 0 010 .44 2.2 2.2 0 01-.48 1.38 2.5 2.5 0 01-.23.23 2.18 2.18 0 01-.93.48 2.32 2.32 0 01-.62.09h-.56a2.27 2.27 0 01-1.18-.71 2.21 2.21 0 01-.5-1.39 2 2 0 01.06-.49zm-22.16-1.11l3.83-6 .22-.26a.44.44 0 01.5-.11 28.17 28.17 0 0010.33 5.42 6.43 6.43 0 01-1.55 1.83 21 21 0 01-3.22 2.15 6.72 6.72 0 01-3 .79 8 8 0 01-3.88-1.2 16.68 16.68 0 01-3.23-2.62zm45.69.4a15.15 15.15 0 01-2.81 2.18 8.15 8.15 0 01-4 1.2c-2.34 0-4.48-1.41-6.45-2.94a7.09 7.09 0 01-1.64-1.91 28.11 28.11 0 0010-5.31.48.48 0 01.56.07l.21.23 4 6.34zm-38.25-52.92A28.58 28.58 0 00901 901a.49.49 0 01-.3-.13l-.2-.22-1.41-2.21h5.5zm-5.29 4.32l-.15-.16-.11-.11a2.44 2.44 0 00-.4-.32l-6.37-4.06a2.27 2.27 0 01-.69-.69 2.24 2.24 0 01-.35-1.2 2.19 2.19 0 01.48-1.36l.07-.11v-.06a2 2 0 01.45-.37 2.25 2.25 0 013.1.69l4.07 6.4.26.33.16.16.16.14q-.33.36-.68.72zm-.33 40s.09-.07.35-.45l.4.41c.11.11.22.22.34.32a1.79 1.79 0 00-.25.23l-.38.44-4.09 6.42a2.2 2.2 0 01-.7.69 2.23 2.23 0 01-2.57-.13l-.11-.08a2.24 2.24 0 01.32-3.54l6.38-4.06zm-9.08.41a.94.94 0 00-.35 1.29c0 .06.45.71 1.05 1.54a4.11 4.11 0 00-1.26 3 4.24 4.24 0 00.19 1.21l-.7.7a1.6 1.6 0 00-.36.54 25.92 25.92 0 01-2.46-5.72.93.93 0 00-.53-.61.84.84 0 00-.38-.08.91.91 0 00-.43.1 2.93 2.93 0 00-.53.36c-.52.39-1.37 1.12-2.61 2.22l-.47.42a65 65 0 01-1.55-13.1 33.69 33.69 0 01.28-4.4 24.78 24.78 0 008.65 7.89 40 40 0 005.12 2.55zm1.59 10.4l.66-.66a4.16 4.16 0 003.57-.41l.18-.13a18.28 18.28 0 003.55 2.82c3.11 1.77 5.75 1.94 8.69.46a22.42 22.42 0 003.52-2.34 8.77 8.77 0 002.31-2.87 26.33 26.33 0 003.14.48.5.5 0 01.38.48v.08l-1.66 7.55a4.7 4.7 0 00-.1.91 3.94 3.94 0 002.26 3.63v1a1.68 1.68 0 001.67 1.66h.43a1.67 1.67 0 001.66-1.66v-1a3.84 3.84 0 00.92-.6 4.77 4.77 0 00.45-.45 4.13 4.13 0 00.91-2.59 4 4 0 00-.1-.91l-1.63-7.31v-.31a.49.49 0 01.35-.48 27.78 27.78 0 003.43-.55 9.49 9.49 0 002.39 2.93c2.24 1.72 4.71 3.32 7.63 3.33a9.83 9.83 0 004.91-1.45 17.19 17.19 0 003.29-2.56 4.1 4.1 0 003.32.29l.65.65a1.7 1.7 0 002.35 0l.21-.21a27.35 27.35 0 01-5.23 5.84 43.51 43.51 0 01-5.56 3.35c-1.12.6-2.2 1.14-3.12 1.57a15.38 15.38 0 01-2 .82c-.53.15-1.7.55-3.11 1.12a42.47 42.47 0 00-7.56 3.9 16.43 16.43 0 00-3.22 2.76 7.84 7.84 0 00-.75 1 10.45 10.45 0 00-1.72-2 29.2 29.2 0 00-7.46-4.64 42.53 42.53 0 00-5.52-2.16 17.37 17.37 0 01-2-.82c-1.38-.64-3.16-1.57-4.77-2.47a34.14 34.14 0 01-3.89-2.45 26.49 26.49 0 01-4.54-4.89l-.2-.27a1.7 1.7 0 001.31-.44zm56.77-3.53a2.43 2.43 0 01-.24.35l-.09.12a2.11 2.11 0 01-.45.39 2.25 2.25 0 01-3.1-.69l-4.08-6.4-.26-.33-.15-.16-.25-.22.36-.35.38-.39a1.78 1.78 0 00.22.26l.23.2-.28.29.35.35.32-.32 6.25 4a2.2 2.2 0 01.69.7 2.22 2.22 0 01.09 2.24zM889 893.82zm-9.14 28.63a2.25 2.25 0 012.19-1.76 1.91 1.91 0 01.48.06l7.39 1.64a2.84 2.84 0 00.51.05h.41v1.03h-.41a2.22 2.22 0 00-.51.06l-7.39 1.64a2.27 2.27 0 01-1 0 2.23 2.23 0 01-1.68-1.65 2.35 2.35 0 01-.08-.54 2 2 0 01.1-.53z" transform="translate(-875.7 -864.17)"/><path class="gcls-1" d="M895.54 923.54a24 24 0 1024-24 24 24 0 00-24 24zm24-22a22.06 22.06 0 11-15.63 6.46 21.87 21.87 0 0115.59-6.51z" transform="translate(-875.7 -864.17)"/><path class="gcls-1" d="M929.46 932.2a1 1 0 00-1.35 1.35l3.53 3.53a1 1 0 101.35-1.34z" transform="translate(-875.7 -864.17)"/></svg><svg id="catalog-6" data-name="Режим изоляции" viewBox="0 0 45.46 114" xmlns="http://www.w3.org/2000/svg"><defs><style>.hcls-1{fill:#b9b9b9}</style></defs><path class="hcls-1" d="M922.38 734.14a1.62 1.62 0 00-.24 3.22h.5a1.62 1.62 0 00-.26-3.22zm0 1.5a.12.12 0 110 .24.13.13 0 01-.12-.12.11.11 0 01.13-.12zm-6.07 13.86l-1.73-1.73-.14-.15a1.61 1.61 0 00-1-.31 1.61 1.61 0 00-1.13.47l-1.74 1.74a.73.73 0 00-.22.52.79.79 0 00.22.54.75.75 0 001.06 0l1.73-1.73a.12.12 0 01.17 0l1.74 1.74a.75.75 0 001.06 0 .77.77 0 00.22-.53.75.75 0 00-.24-.56zm19.83 52.2a.8.8 0 00.21-.53V769a.76.76 0 00-.5-.71H903.4a.73.73 0 00-.75.75v32.21a.77.77 0 00.22.53.75.75 0 00.53.22h32.2a.79.79 0 00.54-.3zm-32-1.28v-30.71h30.7v30.71zM912 813a.76.76 0 00-.75.75v9a.75.75 0 001.5 0v-9a.76.76 0 00-.75-.75zm4.89-78.84h-.49a1.63 1.63 0 10.49 0zm-.24 1.72a.13.13 0 01-.12-.12.11.11 0 01.12-.12.12.12 0 01.12.12.12.12 0 01-.12.12zM919 815a.76.76 0 00-.75.75v7a.75.75 0 001.5 0v-7a.76.76 0 00-.75-.75zm1.64-63.77a1.61 1.61 0 00-1.14-.47 1.61 1.61 0 00-1.14.47l-1.74 1.77a.77.77 0 00-.22.53.75.75 0 00.22.53.71.71 0 00.53.22.71.71 0 00.53-.22l1.74-1.73a.1.1 0 01.16 0l1.74 1.73a.75.75 0 001.28-.53.77.77 0 00-.22-.53z" transform="translate(-896.77 -709.5)"/><path class="hcls-1" d="M941.48 758.82a.76.76 0 00-.75.75v3.06h-2.17v-5.38a.75.75 0 000-1v-5.94a.75.75 0 00-1.5 0v4.94L927.84 744v-5.2a.59.59 0 00-.06-.32l-7.53-17.85v-10.38a.75.75 0 00-1.5 0v10.37l-7.09 17.82a.82.82 0 00-.07.31V744l-9.65 11.3v-5a.75.75 0 00-1.5 0v5.94a.75.75 0 000 1v5.38h-2.17v-3.06a.75.75 0 00-1.5 0v47.11a.75.75 0 00.67.74.77.77 0 00.44.14h3.39a1.23 1.23 0 000 .19v15a.75.75 0 001.5 0v-15a1.23 1.23 0 000-.19h3.54a1.23 1.23 0 000 .19v15a.75.75 0 001.5 0v-15a1.23 1.23 0 000-.19h23.54a1.23 1.23 0 000 .19v15a.75.75 0 001.5 0v-15a1.23 1.23 0 000-.19h3.54a1.23 1.23 0 000 .19v15a.75.75 0 001.5 0v-15a1.23 1.23 0 000-.19h3.4a.76.76 0 00.43-.14.75.75 0 00.67-.74v-47.1a.76.76 0 00-.91-.75zm-22-36.08L926 738h-12.55zm-6.43 20.76v-4h13.25v4zm-.4 1.5h14l9 11h-32.37zM932 804a.76.76 0 00-.75.75v1.31h-3.5v-1.31a.75.75 0 00-1.5 0v1.31h-3.5v-1.31a.75.75 0 00-1.5 0v1.31h-3.5v-1.31a.75.75 0 00-1.5 0v1.31h-3.5v-1.31a.75.75 0 00-1.5 0v1.31h-3.5v-1.31a.75.75 0 00-1.5 0v1.31h-7.62v-41.93h41.75v41.93h-7.63v-1.31a.76.76 0 00-.75-.75zm5.06-41.37h-4.31v-3.38a.75.75 0 00-1.5 0v3.38h-3.5v-3.38a.75.75 0 00-1.5 0v3.38h-3.5v-3.38a.75.75 0 00-1.5 0v3.38h-3.5v-3.38a.75.75 0 00-1.5 0v3.38h-3.5v-3.38a.75.75 0 00-1.5 0v3.38h-3.5v-3.38a.75.75 0 00-1.5 0v3.38h-4.31v-5.13h35.12z" transform="translate(-896.77 -709.5)"/><path class="hcls-1" d="M927 813a.76.76 0 00-.75.75v9a.75.75 0 001.5 0v-9a.76.76 0 00-.75-.75zm-15.42-34.89v.09a2.57 2.57 0 00.19.28h.05c.2.23.56.59 1.13 1.12.37.36.71.66.76.71a.78.78 0 00.51.2.76.76 0 00.55-.25.77.77 0 00.2-.54.76.76 0 00-.25-.52l-.17.19.17-.19-1-.9-.64-.63-.17-.19-.06-.18v-.07a.75.75 0 00-.49-.19.76.76 0 00-.52.21.75.75 0 00-.23.56.34.34 0 000 .1l-.3.14zm12.05 9.89l-2.75-2.75a1.55 1.55 0 000-.31 1.51 1.51 0 00-3-.25v.5a1.54 1.54 0 00.41.8l-1.77 5.56a.76.76 0 00.48.94.66.66 0 00.23 0 .73.73 0 00.35-.09.75.75 0 00.42-.4l1.79-5.61h.11l2.69 2.69a.77.77 0 001.06 0 .75.75 0 00-.02-1.08z" transform="translate(-896.77 -709.5)"/><path class="hcls-1" d="M919.4 791.5a.75.75 0 00-.75.75V795a.75.75 0 001.5 0v-2.76a.74.74 0 00-.75-.74zm-5.68-1.92l-2 1.95a.75.75 0 000 1.06.75.75 0 001.06 0l2-2a.75.75 0 00-1.06-1.06zm11.37 0a.75.75 0 00-.53-.22.73.73 0 00-.52.22.74.74 0 000 1.06l2 2a.71.71 0 00.53.22.75.75 0 00.52-1.28zM926 785a.75.75 0 00.75.75h2.76a.75.75 0 000-1.5h-2.81a.74.74 0 00-.7.75zm-13.14 0a.75.75 0 00-.75-.75h-2.76a.75.75 0 100 1.5h2.76a.76.76 0 00.75-.75zm11.6-4.31a.75.75 0 00.53-.22l2.06-2.09a.75.75 0 00.22-.53.8.8 0 00-.23-.53.75.75 0 00-1.06 0l-2.06 2.09a.75.75 0 000 1.06.74.74 0 00.54.22zm-5.06-2.27a.75.75 0 00.75-.75v-2.76a.75.75 0 00-1.5 0v2.76a.76.76 0 00.75.75zm9.05-28.92l-1.91-1.92a1.63 1.63 0 00-.95-.31 1.61 1.61 0 00-1.14.47l-1.74 1.73a.76.76 0 000 1.07.75.75 0 001.06 0l1.74-1.74a.11.11 0 01.16 0l1.74 1.74a.75.75 0 101.06-1.06z" transform="translate(-896.77 -709.5)"/><path class="hcls-1" d="M919.57 771a14.19 14.19 0 1014.18 14.44v-.5A14.21 14.21 0 00919.57 771zm9 23.16a12.67 12.67 0 113.72-9 12.59 12.59 0 01-3.76 8.95z" transform="translate(-896.77 -709.5)"/></svg><svg data-name="Слой 1" viewBox="0 0 409.49 294.61" id="form-check" xmlns="http://www.w3.org/2000/svg"><path d="M0 143.27c1.76-7.5 4.55-14.46 10.48-19.74 13.94-12.43 32.64-11.54 46.58 2.36q43.46 43.35 86.81 86.83a46.27 46.27 0 013.42 4.53c1.72-2.17 2.6-3.53 3.72-4.65Q251.66 111.89 352.34 11.21c10-10 21.6-13.74 35.35-9.44 20.47 6.39 28.67 33.46 15.2 50.15a71.57 71.57 0 01-5 5.67q-112.72 112.74-225.4 225.45c-10.1 10.1-21.81 14.45-35.58 9.55a38.23 38.23 0 01-13.57-8.76C85.65 246.49 48.22 208.88 10.65 171.4A39.5 39.5 0 010 151.27z"/></svg><svg id="step-1" data-name="Слой 1" viewBox="0 0 23.79 23.79" xmlns="http://www.w3.org/2000/svg"><defs><style>.jcls-1{fill:none;stroke:#fff;stroke-linecap:round;stroke-linejoin:round;stroke-width:1.2px}</style></defs><path class="jcls-1" d="M12 27H6a1 1 0 01-1-1v-5.59a1 1 0 01.29-.7l15-15a1 1 0 011.42 0l5.58 5.58a1 1 0 010 1.42zm5-19l7 7" transform="translate(-4.4 -3.81)"/><path class="jcls-1" d="M27 27H12l-6.94-6.94" transform="translate(-4.4 -3.81)"/></svg><svg id="step-2" data-name="Слой 1" viewBox="0 0 24.35 23.79" xmlns="http://www.w3.org/2000/svg"><defs><style>.kcls-1{fill:none;stroke:#fff;stroke-linecap:round;stroke-linejoin:round;stroke-width:1.2px}</style></defs><path class="kcls-1" d="M9.05 10.66L4.91 6.52l-.02-.01"/><path class="kcls-1" d="M5.57 5.86L4.15 7.28l-2.13-.71L.6 3.73l1.42-1.42 2.84 1.42.71 2.13z"/><path class="kcls-1" d="M-19.27 16.79l4.87 4.88a3 3 0 01.88 2.12 3 3 0 01-.88 2.13 3 3 0 01-4.26 0l-4.87-4.87M-23 12l-9.88 9.89a3 3 0 00-.85 2.11 3 3 0 00.88 2.13 3 3 0 004.27 0l5-5.07 4.26-4.26.55-.55" transform="translate(34.89 -3.81)"/><path class="kcls-1" d="M-11.35 8.88a6 6 0 01-1.55 5.81 6 6 0 01-8.51 0 6 6 0 010-8.52 6 6 0 015.81-1.55" transform="translate(34.89 -3.81)"/><path class="kcls-1" d="M23.55 5.06l-2.83 2.27-3.36-.25-.33-3.64L19.29.81"/></svg><svg id="step-3" data-name="Режим изоляции" viewBox="0 0 25.79 24.94" xmlns="http://www.w3.org/2000/svg"><defs><style>.lcls-1{fill:none;stroke:#fff;stroke-linecap:round;stroke-linejoin:round;stroke-width:1.2px}</style></defs><path class="lcls-1" d="M-84 8.43l-1.19-2 1.4-1.43 2 1.19a5.61 5.61 0 011.21-.5l.58-2.22h2l.56 2.24a5.61 5.61 0 011.21.5l2-1.19 1.43 1.43-1.19 2a5.17 5.17 0 01.51 1.21l2.24.56v2l-2.24.56A5.17 5.17 0 01-74 14l1.19 2-1.43 1.43-2-1.19a5.17 5.17 0 01-1.21.51L-78 19h-2l-.56-2.24a5.17 5.17 0 01-1.21-.51l-2 1.19-1.45-1.44 1.22-2a5.17 5.17 0 01-.51-1.21l-2.24-.56v-2l2.24-.56A5.17 5.17 0 01-84 8.43z" transform="translate(87.37 -2.87)"/><circle class="lcls-1" cx="8.34" cy="8.34" r="2.58"/><path class="lcls-1" d="M-70.67 20.19l-.8-1.32 1-.95 1.32.79a3.39 3.39 0 01.81-.34l.37-1.49h1.35l.37 1.49a3.23 3.23 0 01.81.34l1.32-.79 1 .95-.88 1.32a3.62 3.62 0 01.33.81l1.5.37v1.35l-1.5.37a3.62 3.62 0 01-.33.81l.79 1.32-1 1-1.32-.79a3.62 3.62 0 01-.81.33l-.37 1.5H-68l-.37-1.5a3.83 3.83 0 01-.81-.33l-1.32.79-1-1 .8-1.32a3.23 3.23 0 01-.34-.81l-1.49-.37v-1.35L-71 21a3.23 3.23 0 01.34-.81z" transform="translate(87.37 -2.87)"/><circle class="lcls-1" cx="20.03" cy="19.18" r=".52"/></svg><svg id="step-4" data-name="Слой 1" viewBox="0 0 14.83 23.59" xmlns="http://www.w3.org/2000/svg"><defs><style>.mcls-1{fill:none;stroke:#fff;stroke-linecap:round;stroke-linejoin:round;stroke-width:1.2px}</style></defs><path class="mcls-1" d="M5.47 22.99h3.89"/><path class="mcls-1" d="M-41.42 11.23a6.81 6.81 0 00-6.93-6.81A6.89 6.89 0 00-55 11a6.82 6.82 0 002.77 5.73A2.84 2.84 0 01-51.16 19v2.69c0 .79.44 1.22 1 1.22h3.89a1 1 0 001-1V19a2.79 2.79 0 011.1-2.28 6.79 6.79 0 002.75-5.49z" transform="translate(55.65 -3.81)"/><path class="mcls-1" d="M7.42 10.34v8.76M5.47 8.39l1.95 1.95m1.94-1.95l-1.94 1.95"/></svg><svg id="step-5" data-name="Слой 1" viewBox="0 0 20.81 24.94" xmlns="http://www.w3.org/2000/svg"><defs><style>.ncls-1{fill:none;stroke:#fff;stroke-linecap:round;stroke-linejoin:round;stroke-width:1.2px}</style></defs><path class="ncls-1" d="M18.15 12.99V5.76m1.03 0h-2.07L16.08 3.7 17.11.6h2.07l1.03 3.1-1.03 2.06z"/><path class="ncls-1" d="M-110.87 13.37v11.77a2.07 2.07 0 002.07 2.07 2.07 2.07 0 002.06-2.07V13.37a5.2 5.2 0 003.1-4.74 5.19 5.19 0 00-3.1-4.74V7.6a2.07 2.07 0 01-2.06 2.06 2.07 2.07 0 01-2.07-2.06V3.89A5.18 5.18 0 00-114 8.63a5.19 5.19 0 003.13 4.74zm14.45 13.84a2.07 2.07 0 01-2.06-2.07v-9.29h4.13v9.29a2.07 2.07 0 01-2.07 2.07z" transform="translate(114.56 -2.87)"/></svg></svg>